<svg width="178" height="70" viewBox="0 0 178 70" fill="none" xmlns="http://www.w3.org/2000/svg">
<rect width="178" height="70" fill="#343B97" fill-opacity="0.8"/>
<path d="M40.9513 43.0445H37.0588V36.7895H30.3313V43.0445H26.4163V27.272H30.3313V33.392H37.0588V27.272H40.9513V43.0445Z" fill="white"/>
<path d="M60.9988 35.192C60.9679 34.3094 60.6779 33.4553 60.1651 32.7363C59.6522 32.0173 58.939 31.4651 58.1145 31.1485C57.29 30.832 56.3906 30.765 55.5283 30.956C54.666 31.147 53.879 31.5876 53.2653 32.2227C52.6516 32.8579 52.2384 33.6596 52.0772 34.5279C51.916 35.3963 52.0138 36.2929 52.3585 37.106C52.7033 37.9191 53.2797 38.6129 54.0159 39.1007C54.7521 39.5886 55.6156 39.849 56.4988 39.8495C57.1032 39.8499 57.7015 39.7285 58.258 39.4926C58.8145 39.2566 59.3178 38.911 59.7378 38.4763C60.1578 38.0416 60.4858 37.5268 60.7025 36.9625C60.9192 36.3982 61.0199 35.7961 60.9988 35.192ZM64.9588 35.192C65.0036 36.883 64.543 38.549 63.6361 39.9769C62.7292 41.4048 61.4171 42.5298 59.8675 43.2082C58.3179 43.8866 56.6012 44.0874 54.9368 43.7851C53.2725 43.4828 51.736 42.691 50.5239 41.511C49.3119 40.331 48.4792 38.8164 48.1324 37.1608C47.7856 35.5051 47.9404 33.7836 48.577 32.2164C49.2135 30.6492 50.303 29.3074 51.7061 28.3625C53.1092 27.4176 54.7622 26.9126 56.4538 26.912C57.5591 26.885 58.6587 27.0791 59.688 27.4829C60.7173 27.8866 61.6557 28.4919 62.4479 29.2631C63.2401 30.0344 63.8703 30.9561 64.3015 31.9743C64.7327 32.9924 64.9561 34.0864 64.9588 35.192Z" fill="white"/>
<path d="M79.5613 34.3819C80.9788 34.3819 81.8113 33.6394 81.8113 32.4694C81.8113 31.2994 80.9338 30.6019 79.5613 30.6019H75.8263V34.3819H79.5613ZM81.8113 43.0444L76.9963 37.6219H75.8263V43.0444H71.9113V27.1819H80.0563C80.7816 27.1026 81.5155 27.1775 82.2098 27.4019C82.9041 27.6262 83.5431 27.9948 84.0849 28.4835C84.6267 28.9721 85.0591 29.5699 85.3536 30.2374C85.6481 30.905 85.7981 31.6273 85.7937 32.3569C85.8197 33.5576 85.4103 34.7272 84.641 35.6495C83.8717 36.5718 82.7947 37.1845 81.6088 37.3744L86.6038 42.9769L81.8113 43.0444Z" fill="white"/>
<path d="M105.256 43.0445H92.8138V27.272H105.166V30.602H96.7513V33.572H104.469V36.7445H96.7513V39.7145H105.256V43.0445Z" fill="white"/>
<path d="M128.229 37.127C127.89 38.9776 126.882 40.6386 125.396 41.7925C123.91 42.9464 122.051 43.5123 120.174 43.382C119.055 43.4404 117.935 43.2705 116.884 42.8825C115.833 42.4945 114.871 41.8966 114.058 41.1251C113.245 40.3536 112.598 39.4247 112.156 38.395C111.713 37.3654 111.485 36.2564 111.485 35.1357C111.485 34.0151 111.713 32.9061 112.156 31.8764C112.598 30.8467 113.245 29.9179 114.058 29.1464C114.871 28.3749 115.833 27.777 116.884 27.3889C117.935 27.0009 119.055 26.831 120.174 26.8895C122.011 26.79 123.825 27.3427 125.294 28.4501C126.764 29.5574 127.795 31.1483 128.206 32.942L124.336 33.8195C124.182 32.8401 123.672 31.952 122.904 31.3252C122.136 30.6983 121.164 30.3767 120.174 30.422C118.927 30.422 117.73 30.9174 116.849 31.7993C115.967 32.6812 115.471 33.8773 115.471 35.1245C115.471 36.3717 115.967 37.5677 116.849 38.4496C117.73 39.3315 118.927 39.827 120.174 39.827C121.176 39.8552 122.155 39.5164 122.925 38.8743C123.696 38.2321 124.206 37.3308 124.359 36.3395L128.229 37.127Z" fill="white"/>
<path d="M141.864 31.682L139.861 36.8345H143.934L141.864 31.682ZM146.364 43.067L145.239 40.187H138.489L137.364 43.067H133.156L139.906 27.317H143.911L150.661 43.067H146.364Z" fill="white"/>
</svg>
