<svg width="200" height="70" viewBox="0 0 200 70" fill="none" xmlns="http://www.w3.org/2000/svg">
<rect width="200" height="70" fill="#61C7F1" fill-opacity="0.8"/>
<path d="M29.4738 43.0781H17.6838V27.2831H21.6213V39.6806H29.4738V43.0781Z" fill="white"/>
<path d="M48.4862 35.203C48.4553 34.3203 48.1654 33.4663 47.6525 32.7473C47.1396 32.0283 46.4265 31.476 45.602 31.1595C44.7775 30.8429 43.8781 30.776 43.0158 30.967C42.1535 31.158 41.3665 31.5985 40.7528 32.2337C40.1392 32.8688 39.7259 33.6705 39.5647 34.5389C39.4034 35.4072 39.5012 36.3038 39.846 37.1169C40.1907 37.9301 40.7671 38.6238 41.5033 39.1117C42.2396 39.5995 43.1031 39.86 43.9862 39.8605C44.5907 39.8609 45.189 39.7395 45.7455 39.5035C46.302 39.2676 46.8053 38.922 47.2253 38.4873C47.6453 38.0526 47.9734 37.5377 48.19 36.9734C48.4067 36.4092 48.5074 35.8071 48.4862 35.203ZM52.4013 35.203C52.4461 36.8949 51.985 38.5618 51.0771 39.9902C50.1692 41.4186 48.8557 42.5436 47.3047 43.2214C45.7538 43.8991 44.036 44.0986 42.371 43.7945C40.706 43.4904 39.1696 42.6964 37.9584 41.5141C36.7472 40.3318 35.9163 38.8151 35.572 37.1579C35.2277 35.5008 35.3858 33.7785 36.0258 32.2117C36.6659 30.6448 37.7589 29.3046 39.165 28.3624C40.571 27.4203 42.2262 26.9191 43.9187 26.923C45.023 26.896 46.1216 27.0902 47.1496 27.4942C48.1777 27.8982 49.1145 28.5038 49.905 29.2754C50.6954 30.047 51.3235 30.9689 51.7522 31.9869C52.1809 33.0049 52.4016 34.0984 52.4013 35.203Z" fill="white"/>
<path d="M75.5763 33.7631C75.6051 34.2427 75.6051 34.7236 75.5763 35.2031C75.6141 36.2937 75.4269 37.3804 75.0261 38.3954C74.6254 39.4104 74.0198 40.332 73.2471 41.1026C72.4744 41.8732 71.5512 42.4762 70.5351 42.8742C69.519 43.2722 68.4318 43.4565 67.3413 43.4156C65.1572 43.4156 63.0626 42.548 61.5182 41.0036C59.9739 39.4593 59.1063 37.3647 59.1063 35.1806C59.1063 32.9965 59.9739 30.9019 61.5182 29.3576C63.0626 27.8132 65.1572 26.9456 67.3413 26.9456C68.9701 26.8197 70.5975 27.2079 71.994 28.0556C73.3906 28.9032 74.4862 30.1675 75.1263 31.6706L71.3463 32.7506C70.9778 32.0201 70.4 31.416 69.6867 31.0152C68.9734 30.6145 68.1568 30.4353 67.3413 30.5006C66.7349 30.5001 66.1346 30.6222 65.5766 30.8595C65.0186 31.0969 64.5142 31.4445 64.0939 31.8816C63.6736 32.3187 63.346 32.8363 63.1308 33.4032C62.9155 33.9701 62.817 34.5747 62.8413 35.1806C62.8127 35.8038 62.914 36.4262 63.1388 37.0082C63.3636 37.5902 63.7068 38.119 64.1469 38.5612C64.587 39.0034 65.1143 39.3493 65.6952 39.5769C66.2761 39.8044 66.898 39.9087 67.5213 39.8831C68.4365 39.9393 69.345 39.6949 70.1086 39.1873C70.8722 38.6796 71.449 37.9363 71.7513 37.0706H66.8688V33.7631H75.5763Z" fill="white"/>
<path d="M86.5787 27.2831H82.6412V43.0556H86.5787V27.2831Z" fill="white"/>
<path d="M106.964 31.4005L103.094 32.1881C102.984 31.5367 102.64 30.9479 102.126 30.5333C101.612 30.1187 100.963 29.9069 100.304 29.9381C98.9987 29.9381 98.1663 30.6355 98.1663 31.5355C98.1663 32.4355 98.4588 32.638 99.4488 32.863L102.756 33.583C105.501 34.1905 107.121 35.6755 107.121 38.083C107.121 41.458 104.106 43.1905 100.551 43.1905C96.9962 43.1905 94.0038 41.503 93.5988 38.4205L97.6263 37.633C97.7825 38.3299 98.1902 38.9447 98.7714 39.3599C99.3526 39.775 100.066 39.9612 100.776 39.883C102.239 39.883 103.026 39.2081 103.026 38.2406C103.026 37.2731 102.711 37.0931 101.564 36.8456L98.2337 36.148C95.9837 35.6305 93.9362 34.438 93.9362 31.648C93.9362 28.858 96.5012 26.6755 100.236 26.6755C101.744 26.4874 103.268 26.8669 104.511 27.7402C105.755 28.6136 106.629 29.9183 106.964 31.4005Z" fill="white"/>
<path d="M122.016 30.6806V43.0781H118.124V30.6806H112.949V27.2831H127.191V30.6806H122.016Z" fill="white"/>
<path d="M137.744 27.2831H133.806V43.0556H137.744V27.2831Z" fill="white"/>
<path d="M161.234 37.1606C160.891 39.009 159.881 40.667 158.396 41.8201C156.911 42.9731 155.055 43.5409 153.179 43.4156C150.995 43.4156 148.9 42.548 147.356 41.0036C145.811 39.4592 144.944 37.3646 144.944 35.1806C144.944 32.9965 145.811 30.9019 147.356 29.3575C148.9 27.8132 150.995 26.9456 153.179 26.9456C155.017 26.8415 156.833 27.3925 158.304 28.5006C159.774 29.6087 160.804 31.2022 161.211 32.9981L157.341 33.8756C157.187 32.8982 156.676 32.0125 155.908 31.3893C155.139 30.7661 154.167 30.4496 153.179 30.5006C151.991 30.5829 150.878 31.113 150.066 31.9837C149.253 32.8544 148.801 34.0009 148.801 35.1918C148.801 36.3827 149.253 37.5293 150.066 38.4C150.878 39.2708 151.991 39.8007 153.179 39.8831C154.185 39.9168 155.169 39.5806 155.944 38.938C156.72 38.2953 157.233 37.3908 157.386 36.3956L161.234 37.1606Z" fill="white"/>
<path d="M181.056 31.4005L177.186 32.1881C177.077 31.5367 176.733 30.9479 176.218 30.5333C175.704 30.1187 175.056 29.9069 174.396 29.9381C173.091 29.9381 172.146 30.6355 172.146 31.5355C172.146 32.4355 172.439 32.638 173.429 32.863L176.736 33.583C179.504 34.1905 181.101 35.6755 181.101 38.083C181.101 41.458 178.086 43.1905 174.554 43.1905C171.021 43.1905 168.006 41.503 167.579 38.4205L171.606 37.633C171.762 38.3299 172.17 38.9447 172.751 39.3599C173.333 39.775 174.046 39.9612 174.756 39.883C176.241 39.883 177.119 39.2081 177.119 38.2406C177.119 37.2731 176.781 37.0931 175.634 36.8456L172.304 36.148C170.054 35.6305 168.029 34.438 168.029 31.648C168.029 28.858 170.594 26.6755 174.329 26.6755C175.837 26.4874 177.36 26.8669 178.604 27.7402C179.847 28.6136 180.722 29.9183 181.056 31.4005Z" fill="white"/>
</svg>
