<svg width="178" height="70" viewBox="0 0 178 70" fill="none" xmlns="http://www.w3.org/2000/svg">
<rect width="178" height="70" fill="#61C7F1" fill-opacity="0.8"/>
<path d="M18.4738 43.0781H6.68378V27.2831H10.6213V39.6806H18.4738V43.0781Z" fill="white"/>
<path d="M37.4862 35.203C37.4553 34.3203 37.1654 33.4663 36.6525 32.7473C36.1396 32.0283 35.4265 31.476 34.602 31.1595C33.7775 30.8429 32.8781 30.776 32.0158 30.967C31.1535 31.158 30.3665 31.5985 29.7528 32.2337C29.1392 32.8688 28.7259 33.6705 28.5647 34.5389C28.4034 35.4072 28.5012 36.3038 28.846 37.1169C29.1907 37.9301 29.7671 38.6238 30.5033 39.1117C31.2396 39.5995 32.1031 39.86 32.9862 39.8605C33.5907 39.8609 34.189 39.7395 34.7455 39.5035C35.302 39.2676 35.8053 38.922 36.2253 38.4873C36.6453 38.0526 36.9734 37.5377 37.19 36.9734C37.4067 36.4092 37.5074 35.8071 37.4862 35.203ZM41.4013 35.203C41.4461 36.8949 40.985 38.5618 40.0771 39.9902C39.1692 41.4186 37.8557 42.5436 36.3047 43.2214C34.7538 43.8991 33.036 44.0986 31.371 43.7945C29.706 43.4904 28.1696 42.6964 26.9584 41.5141C25.7472 40.3318 24.9163 38.8151 24.572 37.1579C24.2277 35.5008 24.3858 33.7785 25.0258 32.2117C25.6659 30.6448 26.7589 29.3046 28.165 28.3624C29.571 27.4203 31.2262 26.9191 32.9187 26.923C34.023 26.896 35.1216 27.0902 36.1496 27.4942C37.1777 27.8982 38.1145 28.5038 38.905 29.2754C39.6954 30.047 40.3235 30.9689 40.7522 31.9869C41.1809 33.0049 41.4016 34.0984 41.4013 35.203Z" fill="white"/>
<path d="M64.5763 33.7631C64.6051 34.2427 64.6051 34.7236 64.5763 35.2031C64.6141 36.2937 64.4269 37.3804 64.0261 38.3954C63.6254 39.4104 63.0198 40.332 62.2471 41.1026C61.4744 41.8732 60.5512 42.4762 59.5351 42.8742C58.519 43.2722 57.4318 43.4565 56.3413 43.4156C54.1572 43.4156 52.0626 42.548 50.5182 41.0036C48.9739 39.4593 48.1063 37.3647 48.1063 35.1806C48.1063 32.9965 48.9739 30.9019 50.5182 29.3576C52.0626 27.8132 54.1572 26.9456 56.3413 26.9456C57.9701 26.8197 59.5975 27.2079 60.994 28.0556C62.3906 28.9032 63.4862 30.1675 64.1263 31.6706L60.3463 32.7506C59.9778 32.0201 59.4 31.416 58.6867 31.0152C57.9734 30.6145 57.1568 30.4353 56.3413 30.5006C55.7349 30.5001 55.1346 30.6222 54.5766 30.8595C54.0186 31.0969 53.5142 31.4445 53.0939 31.8816C52.6736 32.3187 52.346 32.8363 52.1308 33.4032C51.9155 33.9701 51.817 34.5747 51.8413 35.1806C51.8127 35.8038 51.914 36.4262 52.1388 37.0082C52.3636 37.5902 52.7068 38.119 53.1469 38.5612C53.587 39.0034 54.1143 39.3493 54.6952 39.5769C55.2761 39.8044 55.898 39.9087 56.5213 39.8831C57.4365 39.9393 58.345 39.6949 59.1086 39.1873C59.8722 38.6796 60.449 37.9363 60.7513 37.0706H55.8688V33.7631H64.5763Z" fill="white"/>
<path d="M75.5787 27.2831H71.6412V43.0556H75.5787V27.2831Z" fill="white"/>
<path d="M95.9638 31.4005L92.0938 32.1881C91.9844 31.5367 91.6401 30.9479 91.1259 30.5333C90.6118 30.1187 89.9635 29.9069 89.3037 29.9381C87.9987 29.9381 87.1663 30.6355 87.1663 31.5355C87.1663 32.4355 87.4588 32.638 88.4488 32.863L91.7563 33.583C94.5013 34.1905 96.1213 35.6755 96.1213 38.083C96.1213 41.458 93.1062 43.1905 89.5512 43.1905C85.9962 43.1905 83.0038 41.503 82.5988 38.4205L86.6263 37.633C86.7825 38.3299 87.1902 38.9447 87.7714 39.3599C88.3526 39.775 89.0664 39.9612 89.7763 39.883C91.2388 39.883 92.0263 39.2081 92.0263 38.2406C92.0263 37.2731 91.7113 37.0931 90.5638 36.8456L87.2337 36.148C84.9837 35.6305 82.9362 34.438 82.9362 31.648C82.9362 28.858 85.5012 26.6755 89.2362 26.6755C90.7441 26.4874 92.268 26.8669 93.5115 27.7402C94.755 28.6136 95.6291 29.9183 95.9638 31.4005Z" fill="white"/>
<path d="M111.016 30.6806V43.0781H107.124V30.6806H101.949V27.2831H116.191V30.6806H111.016Z" fill="white"/>
<path d="M126.744 27.2831H122.806V43.0556H126.744V27.2831Z" fill="white"/>
<path d="M150.234 37.1606C149.891 39.009 148.881 40.667 147.396 41.8201C145.911 42.9731 144.055 43.5409 142.179 43.4156C139.995 43.4156 137.9 42.548 136.356 41.0036C134.811 39.4592 133.944 37.3646 133.944 35.1806C133.944 32.9965 134.811 30.9019 136.356 29.3575C137.9 27.8132 139.995 26.9456 142.179 26.9456C144.017 26.8415 145.833 27.3925 147.304 28.5006C148.774 29.6087 149.804 31.2022 150.211 32.9981L146.341 33.8756C146.187 32.8982 145.676 32.0125 144.908 31.3893C144.139 30.7661 143.167 30.4496 142.179 30.5006C140.991 30.5829 139.878 31.113 139.066 31.9837C138.253 32.8544 137.801 34.0009 137.801 35.1918C137.801 36.3827 138.253 37.5293 139.066 38.4C139.878 39.2708 140.991 39.8007 142.179 39.8831C143.185 39.9168 144.169 39.5806 144.944 38.938C145.72 38.2953 146.233 37.3908 146.386 36.3956L150.234 37.1606Z" fill="white"/>
<path d="M170.056 31.4005L166.186 32.1881C166.077 31.5367 165.733 30.9479 165.218 30.5333C164.704 30.1187 164.056 29.9069 163.396 29.9381C162.091 29.9381 161.146 30.6355 161.146 31.5355C161.146 32.4355 161.439 32.638 162.429 32.863L165.736 33.583C168.504 34.1905 170.101 35.6755 170.101 38.083C170.101 41.458 167.086 43.1905 163.554 43.1905C160.021 43.1905 157.006 41.503 156.579 38.4205L160.606 37.633C160.762 38.3299 161.17 38.9447 161.751 39.3599C162.333 39.775 163.046 39.9612 163.756 39.883C165.241 39.883 166.119 39.2081 166.119 38.2406C166.119 37.2731 165.781 37.0931 164.634 36.8456L161.304 36.148C159.054 35.6305 157.029 34.438 157.029 31.648C157.029 28.858 159.594 26.6755 163.329 26.6755C164.837 26.4874 166.36 26.8669 167.604 27.7402C168.847 28.6136 169.722 29.9183 170.056 31.4005Z" fill="white"/>
</svg>
