<svg width="177" height="31" viewBox="0 0 177 31" fill="none" xmlns="http://www.w3.org/2000/svg">
<path d="M56.1095 0.5H46.5039V10.032H56.1095V0.5Z" fill="#F15D22"/>
<path d="M46.5039 10.032V30.5H56.1131V14.2935L46.5039 10.032Z" fill="white"/>
<path d="M124.004 11.0833C124 11.9641 123.645 12.8074 123.018 13.4292C122.392 14.0511 121.543 14.4011 120.658 14.4029H115.171V7.74603H120.658C121.098 7.74603 121.534 7.8324 121.94 8.0002C122.347 8.168 122.716 8.41393 123.027 8.72391C123.338 9.0339 123.584 9.40185 123.752 9.8067C123.919 10.2116 124.005 10.6454 124.004 11.0833ZM133.61 11.0833C133.61 9.69139 133.334 8.31316 132.798 7.02753C132.262 5.7419 131.477 4.57411 130.487 3.59104C129.497 2.60798 128.321 1.82893 127.028 1.29853C125.735 0.768128 124.35 0.496781 122.952 0.500029H105.566V30.486H115.171V14.4029L124.153 30.486H133.61L127.974 20.3966C129.674 19.4989 131.096 18.1579 132.089 16.5174C133.082 14.8768 133.607 12.9984 133.61 11.0833Z" fill="white"/>
<path d="M95.9613 0.5H65.7266V10.032H75.6831V30.5H85.9977V10.032H95.9613V0.5Z" fill="white"/>
<path d="M28.7002 0.5L19.8991 19.2218L11.1017 0.5H0.5L14.6001 30.5H25.2017L39.2983 0.5H28.7002Z" fill="white"/>
<path d="M176.9 30.5L162.8 0.5H152.514L138.414 30.5H148.707L157.66 11.4431L161.297 19.183H154.024L157.572 26.7288H164.841L166.614 30.5H176.9Z" fill="white"/>
</svg>
