<svg width="66" height="40" viewBox="0 0 66 40" fill="none" xmlns="http://www.w3.org/2000/svg">
<path d="M65.7012 20C65.7012 30.7 57.0012 39.5 46.2012 39.5C35.5012 39.5 26.7012 30.7 26.7012 20C26.7012 9.3 35.4012 0.5 46.1012 0.5C57.0012 0.5 65.7012 9.3 65.7012 20Z" fill="#F9B50B"/>
<path d="M39.6012 20.1C39.6012 18.7 39.4012 17.3 39.2012 16H27.2012C27.3012 15.3 27.5012 14.7 27.7012 13.9H38.4012C38.2012 13.2 37.9012 12.5 37.6012 11.8H28.5012C28.8012 11.1 29.2012 10.5 29.6012 9.7H36.5012C36.1012 9 35.6012 8.3 35.0012 7.6H31.2012C31.8012 6.9 32.4012 6.3 33.2012 5.6C29.8012 2.4 25.2012 0.5 20.1012 0.5C9.50117 0.8 0.701172 9.3 0.701172 20C0.701172 30.7 9.40117 39.5 20.2012 39.5C25.3012 39.5 29.8012 37.5 33.3012 34.4C34.0012 33.8 34.6012 33.1 35.3012 32.3H31.3012C30.8012 31.7 30.3012 31 29.9012 30.3H36.7012C37.1012 29.7 37.5012 29 37.8012 28.2H28.7012C28.4012 27.6 28.1012 26.9 27.9012 26.1H38.6012C39.2012 24.3 39.6012 22.3 39.6012 20.1Z" fill="#C8191C"/>
<path d="M27.1016 24.9999L27.4016 23.1999C27.3016 23.1999 27.1016 23.2999 26.9016 23.2999C26.2016 23.2999 26.1016 22.8999 26.2016 22.6999L26.8016 19.0999H27.9016L28.2016 17.0999H27.2016L27.4016 15.8999H25.3016C25.3016 15.8999 24.1016 22.6999 24.1016 23.4999C24.1016 24.6999 24.8016 25.2999 25.8016 25.2999C26.4016 25.2999 26.9016 25.0999 27.1016 24.9999Z" fill="white"/>
<path d="M27.8008 21.7001C27.8008 24.6001 29.8008 25.3001 31.4008 25.3001C32.9008 25.3001 33.6008 25.0001 33.6008 25.0001L34.0008 23.0001C34.0008 23.0001 32.9008 23.5001 31.8008 23.5001C29.5008 23.5001 29.9008 21.8001 29.9008 21.8001H34.1008C34.1008 21.8001 34.4008 20.5001 34.4008 19.9001C34.4008 18.6001 33.7008 16.9001 31.4008 16.9001C29.4008 16.8001 27.8008 19.1001 27.8008 21.7001ZM31.4008 18.7001C32.5008 18.7001 32.3008 20.0001 32.3008 20.1001H30.0008C30.1008 20.0001 30.3008 18.7001 31.4008 18.7001Z" fill="white"/>
<path d="M44.5008 24.9999L44.9008 22.6999C44.9008 22.6999 43.9008 23.1999 43.1008 23.1999C41.7008 23.1999 41.0008 22.0999 41.0008 20.7999C41.0008 18.2999 42.2008 16.9999 43.7008 16.9999C44.7008 16.9999 45.6008 17.5999 45.6008 17.5999L45.9008 15.3999C45.9008 15.3999 44.7008 14.8999 43.5008 14.8999C41.1008 14.8999 38.8008 16.9999 38.8008 20.8999C38.8008 23.4999 40.0008 25.1999 42.5008 25.1999C43.4008 25.2999 44.5008 24.9999 44.5008 24.9999Z" fill="white"/>
<path d="M15.8004 16.8C14.4004 16.8 13.3004 17.2001 13.3004 17.2001L13.0004 19C13.0004 19 13.9004 18.6 15.3004 18.6C16.0004 18.6 16.6004 18.7 16.6004 19.3C16.6004 19.7 16.5004 19.8 16.5004 19.8H15.6004C13.8004 19.8 11.9004 20.5 11.9004 22.9C11.9004 24.8 13.1004 25.2001 13.9004 25.2001C15.3004 25.2001 16.0004 24.3 16.1004 24.3L16.0004 25.1H17.7004L18.5004 19.4C18.5004 16.9 16.5004 16.8 15.8004 16.8ZM16.2004 21.4C16.2004 21.7 16.0004 23.4 14.8004 23.4C14.2004 23.4 14.0004 22.9 14.0004 22.6C14.0004 22.1 14.3004 21.4 15.9004 21.4C16.1004 21.4 16.2004 21.4 16.2004 21.4Z" fill="white"/>
<path d="M20.502 25.2C21.002 25.2 23.602 25.3 23.602 22.5C23.602 19.9 21.102 20.4 21.102 19.4C21.102 18.9 21.502 18.7 22.202 18.7C22.502 18.7 23.602 18.7999 23.602 18.7999L23.902 16.9C23.902 16.9 23.202 16.7 21.902 16.7C20.402 16.7 18.802 17.3 18.802 19.4C18.802 21.8 21.402 21.6 21.402 22.5C21.402 23.1 20.702 23.2 20.202 23.2C19.302 23.2 18.302 22.9 18.302 22.9L18.002 24.7999C18.202 24.9999 18.802 25.2 20.502 25.2Z" fill="white"/>
<path d="M61.7008 15.2L61.3008 18C61.3008 18 60.5008 17 59.3008 17C57.4008 17 55.8008 19.3 55.8008 22C55.8008 23.7 56.6008 25.4 58.4008 25.4C59.6008 25.4 60.4008 24.6 60.4008 24.6L60.3008 25.3H62.4008L63.9008 15.4L61.7008 15.2ZM60.7008 20.6C60.7008 21.7 60.2008 23.2 59.0008 23.2C58.3008 23.2 57.9008 22.6 57.9008 21.5C57.9008 19.8 58.6008 18.8 59.6008 18.8C60.3008 18.9 60.7008 19.4 60.7008 20.6Z" fill="white"/>
<path d="M4.50195 25.1L5.70195 17.7L5.90195 25.1H7.30195L10.002 17.7L8.90195 25.1H11.102L12.802 15.2H9.40195L7.30195 21.3L7.20195 15.2H4.20195L2.50195 25.1H4.50195Z" fill="white"/>
<path d="M36.5012 25.1C37.1012 21.7 37.2012 18.9 38.7012 19.4C38.9012 18.1 39.2012 17.5 39.4012 17H39.0012C38.1012 17 37.3012 18.2 37.3012 18.2L37.5012 17.1H35.5012L34.2012 25.1H36.5012V25.1Z" fill="white"/>
<path d="M49.3004 16.8C47.9004 16.8 46.8004 17.2001 46.8004 17.2001L46.5004 19C46.5004 19 47.4004 18.6 48.8004 18.6C49.5004 18.6 50.1004 18.7 50.1004 19.3C50.1004 19.7 50.0004 19.8 50.0004 19.8H49.1004C47.3004 19.8 45.4004 20.5 45.4004 22.9C45.4004 24.8 46.6004 25.2001 47.4004 25.2001C48.8004 25.2001 49.5004 24.3 49.6004 24.3L49.5004 25.1H51.4004L52.2004 19.4C52.2004 16.9 50.0004 16.8 49.3004 16.8ZM49.8004 21.4C49.8004 21.7 49.6004 23.4 48.4004 23.4C47.8004 23.4 47.6004 22.9 47.6004 22.6C47.6004 22.1 47.9004 21.4 49.5004 21.4C49.7004 21.4 49.7004 21.4 49.8004 21.4Z" fill="white"/>
<path d="M53.802 25.1C54.402 21.7 54.502 18.9 56.002 19.4C56.202 18.1 56.502 17.5 56.702 17H56.302C55.402 17 54.602 18.2 54.602 18.2L54.802 17.1H52.802L51.502 25.1H53.802V25.1Z" fill="white"/>
</svg>
