<svg width="178" height="70" viewBox="0 0 178 70" fill="none" xmlns="http://www.w3.org/2000/svg">
<rect width="178" height="70" fill="#EE2924" fill-opacity="0.8"/>
<path d="M43.145 34.9222C44.585 34.9222 45.395 34.1572 45.395 32.9872C45.395 31.8172 44.4725 31.0973 43.145 31.0973H39.365V34.9222H43.145ZM45.395 43.6072L40.49 38.1623H39.32V43.6072H35.36V27.8572H43.595C44.3277 27.7682 45.071 27.8355 45.7758 28.0548C46.4805 28.274 47.1308 28.6403 47.6836 29.1293C48.2365 29.6184 48.6793 30.2191 48.9829 30.8919C49.2865 31.5646 49.444 32.2942 49.445 33.0323C49.4686 34.2489 49.0473 35.4323 48.2602 36.3603C47.473 37.2883 46.3742 37.8971 45.17 38.0723L50.2775 43.7198H45.44L45.395 43.6072Z" fill="white"/>
<path d="M69.3575 43.6297H56.6675V27.7672H69.2675V31.1422H60.6725V34.1122H68.57V37.3072H60.6725V40.2772H69.335V43.6297H69.3575Z" fill="white"/>
<path d="M85.0175 31.1872V43.6297H81.0575V31.1872H75.7925V27.7672H90.305V31.1872H85.0175Z" fill="white"/>
<path d="M102.793 32.1547L100.745 37.3747H104.885L102.793 32.1547ZM107.293 43.6072L106.145 40.7272H99.395L98.27 43.6072H93.95L100.7 27.8572H104.795L111.545 43.6072H107.293Z" fill="white"/>
<path d="M121.895 27.7672H117.89V43.6297H121.895V27.7672Z" fill="white"/>
<path d="M141.56 43.6297H129.545V27.7672H133.572V40.2097H141.56V43.6297Z" fill="white"/>
</svg>
