<svg width="200" height="78" viewBox="0 0 200 78" fill="none" xmlns="http://www.w3.org/2000/svg">
<rect width="200" height="78" fill="#EE2924" fill-opacity="0.8"/>
<path d="M54.145 38.9222C55.585 38.9222 56.395 38.1572 56.395 36.9872C56.395 35.8172 55.4725 35.0973 54.145 35.0973H50.365V38.9222H54.145ZM56.395 47.6072L51.49 42.1623H50.32V47.6072H46.36V31.8572H54.595C55.3277 31.7682 56.071 31.8355 56.7758 32.0548C57.4805 32.274 58.1308 32.6403 58.6836 33.1293C59.2365 33.6184 59.6793 34.2191 59.9829 34.8919C60.2865 35.5646 60.444 36.2942 60.445 37.0323C60.4686 38.2489 60.0473 39.4323 59.2602 40.3603C58.473 41.2883 57.3742 41.8971 56.17 42.0723L61.2775 47.7198H56.44L56.395 47.6072Z" fill="white"/>
<path d="M80.3575 47.6297H67.6675V31.7672H80.2675V35.1422H71.6725V38.1122H79.57V41.3072H71.6725V44.2772H80.335V47.6297H80.3575Z" fill="white"/>
<path d="M96.0175 35.1872V47.6297H92.0575V35.1872H86.7925V31.7672H101.305V35.1872H96.0175Z" fill="white"/>
<path d="M113.793 36.1547L111.745 41.3747H115.885L113.793 36.1547ZM118.293 47.6072L117.145 44.7272H110.395L109.27 47.6072H104.95L111.7 31.8572H115.795L122.545 47.6072H118.293Z" fill="white"/>
<path d="M132.895 31.7672H128.89V47.6297H132.895V31.7672Z" fill="white"/>
<path d="M152.56 47.6297H140.545V31.7672H144.572V44.2097H152.56V47.6297Z" fill="white"/>
</svg>
