<svg width="72" height="12" viewBox="0 0 72 12" fill="none" xmlns="http://www.w3.org/2000/svg">
<path d="M5.42999 5.94816C6.38999 5.94816 6.92999 5.43816 6.92999 4.65816C6.92999 3.87816 6.31499 3.39816 5.42999 3.39816H2.90999V5.94816H5.42999ZM6.92999 11.7382L3.65999 8.10816H2.87998V11.7382H0.23999V1.23816H5.72998C6.21846 1.17877 6.71398 1.22365 7.18383 1.36984C7.65368 1.51602 8.08719 1.76018 8.45575 2.08621C8.82431 2.41225 9.11953 2.81274 9.32194 3.26125C9.52435 3.70976 9.62934 4.1961 9.62998 4.68817C9.64574 5.49926 9.36487 6.28821 8.84011 6.90688C8.31535 7.52555 7.58279 7.93138 6.77999 8.04816L10.185 11.8132H6.95998L6.92999 11.7382Z" fill="#EE2624"/>
<path d="M22.9051 11.7532H14.4451V1.17816H22.8451V3.42816H17.1151V5.40816H22.3801V7.53816H17.1151V9.51816H22.8901V11.7532H22.9051Z" fill="#EE2624"/>
<path d="M33.3451 3.45816V11.7532H30.7051V3.45816H27.1951V1.17816H36.8701V3.45816H33.3451Z" fill="#EE2624"/>
<path d="M45.195 4.10316L43.83 7.58316H46.59L45.195 4.10316ZM48.195 11.7382L47.43 9.81816H42.93L42.18 11.7382H39.3L43.8 1.23816H46.53L51.03 11.7382H48.195Z" fill="#EE2624"/>
<path d="M57.93 1.17816H55.26V11.7532H57.93V1.17816Z" fill="#EE2624"/>
<path d="M71.04 11.7532H63.03V1.17816H65.715V9.47316H71.04V11.7532Z" fill="#EE2624"/>
</svg>
