<svg width="200" height="70" viewBox="0 0 200 70" fill="none" xmlns="http://www.w3.org/2000/svg">
<rect width="200" height="70" fill="#EE2924" fill-opacity="0.8"/>
<path d="M54.145 34.9222C55.585 34.9222 56.395 34.1572 56.395 32.9872C56.395 31.8172 55.4725 31.0973 54.145 31.0973H50.365V34.9222H54.145ZM56.395 43.6072L51.49 38.1623H50.32V43.6072H46.36V27.8572H54.595C55.3277 27.7682 56.071 27.8355 56.7758 28.0548C57.4805 28.274 58.1308 28.6403 58.6836 29.1293C59.2365 29.6184 59.6793 30.2191 59.9829 30.8919C60.2865 31.5646 60.444 32.2942 60.445 33.0323C60.4686 34.2489 60.0473 35.4323 59.2602 36.3603C58.473 37.2883 57.3742 37.8971 56.17 38.0723L61.2775 43.7198H56.44L56.395 43.6072Z" fill="white"/>
<path d="M80.3575 43.6297H67.6675V27.7672H80.2675V31.1422H71.6725V34.1122H79.57V37.3072H71.6725V40.2772H80.335V43.6297H80.3575Z" fill="white"/>
<path d="M96.0175 31.1872V43.6297H92.0575V31.1872H86.7925V27.7672H101.305V31.1872H96.0175Z" fill="white"/>
<path d="M113.793 32.1547L111.745 37.3747H115.885L113.793 32.1547ZM118.293 43.6072L117.145 40.7272H110.395L109.27 43.6072H104.95L111.7 27.8572H115.795L122.545 43.6072H118.293Z" fill="white"/>
<path d="M132.895 27.7672H128.89V43.6297H132.895V27.7672Z" fill="white"/>
<path d="M152.56 43.6297H140.545V27.7672H144.572V40.2097H152.56V43.6297Z" fill="white"/>
</svg>
