<svg width="220" height="80" viewBox="0 0 220 80" fill="none" xmlns="http://www.w3.org/2000/svg">
<rect width="220" height="80" rx="4" fill="#EE2924" fill-opacity="0.8"/>
<path d="M64.145 39.9222C65.585 39.9222 66.395 39.1572 66.395 37.9872C66.395 36.8172 65.4725 36.0973 64.145 36.0973H60.365V39.9222H64.145ZM66.395 48.6072L61.49 43.1623H60.32V48.6072H56.36V32.8572H64.595C65.3277 32.7682 66.071 32.8355 66.7758 33.0548C67.4805 33.274 68.1308 33.6403 68.6836 34.1293C69.2365 34.6184 69.6793 35.2191 69.9829 35.8919C70.2865 36.5646 70.444 37.2942 70.445 38.0323C70.4686 39.2489 70.0473 40.4323 69.2602 41.3603C68.473 42.2883 67.3742 42.8971 66.17 43.0723L71.2775 48.7198H66.44L66.395 48.6072Z" fill="white"/>
<path d="M90.3575 48.6297H77.6675V32.7672H90.2675V36.1422H81.6725V39.1122H89.57V42.3072H81.6725V45.2772H90.335V48.6297H90.3575Z" fill="white"/>
<path d="M106.017 36.1872V48.6297H102.058V36.1872H96.7925V32.7672H111.305V36.1872H106.017Z" fill="white"/>
<path d="M123.793 37.1547L121.745 42.3747H125.885L123.793 37.1547ZM128.293 48.6072L127.145 45.7272H120.395L119.27 48.6072H114.95L121.7 32.8572H125.795L132.545 48.6072H128.293Z" fill="white"/>
<path d="M142.895 32.7672H138.89V48.6297H142.895V32.7672Z" fill="white"/>
<path d="M162.56 48.6297H150.545V32.7672H154.572V45.2097H162.56V48.6297Z" fill="white"/>
</svg>
