<svg width="32" height="32" viewBox="0 0 32 32" fill="none" xmlns="http://www.w3.org/2000/svg">
<path d="M23.6254 0.339355C23.4496 0.162109 23.2099 0.0625 22.9601 0.0625C22.7104 0.0625 22.4709 0.162354 22.2949 0.3396L19.5253 3.13062C19.342 3.31519 19.0986 3.41699 18.8403 3.41699C18.6435 3.41699 13.9362 3.41699 13.1113 3.41699C12.8527 3.41699 12.6096 3.31519 12.4245 3.12915L9.70355 0.400635C9.52777 0.224121 9.28876 0.125 9.03973 0.125C9.03949 0.125 9.039 0.125 9.03876 0.125C8.78924 0.125244 8.55023 0.225098 8.37445 0.4021L0.272156 8.56421C-0.0913689 8.93042 -0.0906364 9.52148 0.273865 9.88696L2.5976 12.2151C3.03778 12.6587 3.28021 13.2488 3.28021 13.877C3.28021 14.6897 3.50824 15.467 3.93207 16.1367C3.0097 17.2583 3.06927 18.9287 4.11175 19.9788C4.61639 20.4873 5.27728 20.7812 5.98602 20.8159C6.01849 21.5015 6.29388 22.1772 6.81244 22.6995C7.31708 23.208 7.97796 23.502 8.68695 23.5366C8.71918 24.2222 8.99481 24.8979 9.51312 25.4202C10.3293 26.2424 11.5004 26.4497 12.4894 26.0945C12.6257 26.488 12.8493 26.8572 13.1608 27.1709C14.2739 28.2925 16.0788 28.2927 17.1921 27.1709L17.5878 26.7725C17.8351 26.5232 18.0268 26.2388 18.1635 25.9353C19.2707 26.9136 20.9772 26.8918 22.0561 25.8049C22.5746 25.2827 22.85 24.6069 22.8823 23.9214C23.591 23.887 24.2521 23.5928 24.7568 23.0842C25.2753 22.562 25.5507 21.8862 25.5832 21.2007C26.2917 21.1663 26.9528 20.8721 27.4575 20.3638C28.4941 19.3196 28.5593 17.6616 27.653 16.54C28.3134 15.6096 28.6711 14.499 28.6711 13.3328C28.6711 13.0596 28.7807 12.7925 28.9719 12.5999L31.7277 9.82251C32.0905 9.45703 32.0905 8.86719 31.7277 8.50171L23.6254 0.339355ZM5.44257 17.2581L6.79291 15.8977C7.17206 15.5156 7.78338 15.5154 8.16278 15.8977C8.54608 16.2837 8.54608 16.9116 8.16278 17.2974L6.81244 18.658C6.43304 19.04 5.82196 19.04 5.44257 18.658C5.05951 18.272 5.05951 17.644 5.44257 17.2581ZM8.14325 19.9788L10.8439 17.2581C11.2233 16.876 11.8347 16.8757 12.214 17.2581C12.5971 17.644 12.5971 18.272 12.214 18.658C11.2514 19.6277 11.2001 19.6792 9.51312 21.3787C9.13373 21.7605 8.52264 21.7607 8.14325 21.3784C7.76019 20.9927 7.76019 20.3647 8.14325 19.9788ZM10.8439 24.0991C10.4609 23.7134 10.4609 23.0854 10.8439 22.6995L12.1943 21.3391C12.5737 20.957 13.185 20.957 13.5644 21.3391C13.9181 21.6956 13.9445 22.2578 13.6447 22.646C13.5622 22.7222 13.685 22.5996 12.214 24.0991C11.8347 24.4814 11.2236 24.4817 10.8439 24.0991ZM16.2573 25.4514L15.8615 25.8499C15.4821 26.2322 14.871 26.2322 14.4916 25.8499C14.1425 25.4983 14.1125 24.9463 14.3996 24.5591C14.9142 24.0388 14.8891 24.0696 14.9787 23.9714C15.3615 23.6704 15.9081 23.7002 16.2573 24.0518C16.6403 24.4377 16.6401 25.0657 16.2573 25.4514ZM26.1269 19.0427C25.7475 19.4248 25.1362 19.4248 24.7568 19.0427L23.0109 17.2839C22.6462 16.9165 22.0524 16.9143 21.685 17.2791C21.3176 17.6438 21.3154 18.2373 21.6801 18.6047L23.4262 20.3635C23.8093 20.7495 23.8093 21.3774 23.4262 21.7632C23.0468 22.1455 22.4355 22.1455 22.0561 21.7632L20.3102 20.0044C19.9452 19.637 19.3517 19.6348 18.9843 19.9995C18.6169 20.3643 18.6147 20.958 18.9794 21.3254L20.7253 23.0842C21.1086 23.4702 21.1086 24.0981 20.7253 24.4839C20.3461 24.8662 19.7348 24.8662 19.3552 24.4839C17.5173 22.6475 17.6054 22.6877 17.4203 22.5759C16.9428 22.1648 16.3513 21.9265 15.7209 21.8943C15.6869 21.2114 15.4116 20.5386 14.8952 20.0181C14.6303 19.7515 14.3222 19.5439 13.987 19.4019C14.6227 18.3074 14.4755 16.8748 13.5446 15.9373C12.5905 14.9761 11.1633 14.8596 10.0991 15.4829C9.96112 15.1536 9.7597 14.8447 9.49359 14.5769C8.38031 13.4553 6.57562 13.4553 5.4621 14.5769L5.31268 14.7275C5.20966 14.46 5.15521 14.1726 5.15521 13.877C5.15521 12.7505 4.71942 11.6914 3.92645 10.8923L2.26019 9.2229L9.0412 2.3916L11.0954 4.45142C11.5544 4.91382 12.143 5.19824 12.779 5.27197L8.58954 10.2991C8.25824 10.697 8.31195 11.2881 8.70965 11.6194C9.67132 12.4209 10.8876 12.8 12.1345 12.6868C13.381 12.5735 14.5092 11.9814 15.3117 11.0183C15.6474 10.6155 16.2121 10.4941 16.6855 10.7227C17.6515 11.1895 18.7133 11.3599 19.7577 11.2266L26.1269 17.6428C26.5099 18.0288 26.5099 18.6567 26.1269 19.0427ZM27.6413 11.2788C27.0961 11.8279 26.7961 12.5574 26.7961 13.3328C26.7961 13.9871 26.6264 14.6145 26.3095 15.1653L21.7497 10.572C22.6818 10.0535 23.4462 9.27393 23.9533 8.30762C24.1938 7.84912 24.017 7.28247 23.5585 7.04199C23.1 6.80127 22.5334 6.97803 22.2929 7.43652C21.7841 8.40625 20.9108 9.05347 19.9326 9.29321C19.8896 9.2998 19.8469 9.30908 19.8051 9.32178C19.0534 9.47729 18.2475 9.39502 17.5012 9.03442C16.2514 8.43066 14.759 8.75293 13.8703 9.81934C13.3893 10.3962 12.7126 10.7515 11.9648 10.8196C11.5397 10.8582 11.1208 10.8013 10.7321 10.657L15.0722 5.44824C15.4123 5.34448 15.7648 5.28394 16.1203 5.28394H18.8403C19.602 5.28394 20.3178 4.99341 20.8561 4.45142L22.9604 2.33081L29.7416 9.16211L27.6413 11.2788Z" fill="#3C3C3C"/>
</svg>
