<svg width="32" height="32" viewBox="0 0 32 32" fill="none" xmlns="http://www.w3.org/2000/svg">
<g clip-path="url(#clip0_2031_11352)">
<path d="M3.75 14.125C3.75 13.6069 3.33057 13.1875 2.8125 13.1875H0.9375C0.419434 13.1875 0 13.6069 0 14.125C0 14.6433 0.419434 15.0625 0.9375 15.0625H2.8125C3.33057 15.0625 3.75 14.6433 3.75 14.125Z" fill="#3C3C3C"/>
<path d="M31.0625 13.1875H29.1875C28.6694 13.1875 28.25 13.6069 28.25 14.125C28.25 14.6433 28.6694 15.0625 29.1875 15.0625H31.0625C31.5806 15.0625 32 14.6433 32 14.125C32 13.6069 31.5806 13.1875 31.0625 13.1875Z" fill="#3C3C3C"/>
<path d="M5.10311 6.75049L3.47884 5.81299C3.03036 5.55371 2.45711 5.70752 2.19808 6.15625C1.93905 6.60498 2.09286 7.17798 2.54134 7.43701L4.16561 8.37452C4.61117 8.63184 5.18514 8.48194 5.44637 8.03125C5.7054 7.58252 5.5516 7.00952 5.10311 6.75049Z" fill="#3C3C3C"/>
<path d="M29.4586 20.813L27.8343 19.8755C27.3848 19.6172 26.8119 19.7701 26.5535 20.2188C26.2945 20.6675 26.4483 21.2405 26.8968 21.4996L28.5211 22.4371C28.9666 22.6944 29.5406 22.5445 29.8018 22.0938C30.0609 21.6451 29.9071 21.0721 29.4586 20.813Z" fill="#3C3C3C"/>
<path d="M8.62597 3.03031C8.88696 3.48099 9.46118 3.63089 9.90673 3.37357C10.3555 3.11429 10.5093 2.54129 10.25 2.09281L9.3125 0.468538C9.05346 0.0210283 8.47754 -0.133024 8.03174 0.125276C7.58301 0.38431 7.4292 0.957552 7.68848 1.40604L8.62597 3.03031Z" fill="#3C3C3C"/>
<path d="M4.16561 19.8755L2.54134 20.813C2.09286 21.0721 1.93905 21.6451 2.19808 22.0938C2.45931 22.5447 3.03329 22.6946 3.47884 22.4371L5.10311 21.4996C5.5516 21.2405 5.7054 20.6675 5.44637 20.2188C5.18636 19.7701 4.61043 19.6172 4.16561 19.8755Z" fill="#3C3C3C"/>
<path d="M27.8343 8.37451L29.4586 7.43701C29.9071 7.17798 30.0609 6.60498 29.8018 6.15625C29.5418 5.70752 28.9659 5.55371 28.5211 5.81299L26.8968 6.75049C26.4483 7.00952 26.2945 7.58252 26.5535 8.03125C26.8148 8.48218 27.3888 8.63208 27.8343 8.37451Z" fill="#3C3C3C"/>
<path d="M22.0942 3.37358C22.5398 3.63091 23.114 3.481 23.375 3.03032L24.3125 1.40605C24.5718 0.957565 24.418 0.384323 23.9692 0.12529C23.5215 -0.132767 22.9475 0.0210419 22.6885 0.468552L21.751 2.09282C21.4917 2.54131 21.6455 3.11455 22.0942 3.37358Z" fill="#3C3C3C"/>
<path d="M22.5015 6.1197C20.0799 4.15046 16.9068 3.39338 13.7911 4.04328C9.74372 4.88654 6.55036 8.20515 5.84528 12.2996C5.2547 15.7291 6.38556 19.1961 8.8692 21.5757C10.1905 22.8399 10.9937 24.5316 11.2154 26.3126H15.0628V21.909L11.5215 16.597L9.71247 14.7879C9.34625 14.4217 9.34625 13.8284 9.71247 13.4622C10.0787 13.096 10.6719 13.096 11.0381 13.4622L12.2503 14.6744L13.4625 13.4622C13.8287 13.096 14.4219 13.096 14.7881 13.4622L16.0003 14.6744L17.2125 13.4622C17.5787 13.096 18.1719 13.096 18.5381 13.4622L19.7503 14.6744L20.9625 13.4622C21.3287 13.096 21.9219 13.096 22.2881 13.4622C22.6544 13.8284 22.6544 14.4217 22.2881 14.7879L20.4791 16.597L16.9378 21.909V26.3126H20.7315C20.8409 24.6282 21.6404 22.9786 23.0682 21.6351C25.1299 19.6934 26.3128 16.9559 26.3128 14.1251C26.3128 11.0067 24.9239 8.08894 22.5015 6.1197Z" fill="#3C3C3C"/>
<path d="M17.8757 15.4507L16.6636 16.6628C16.2974 17.0291 15.7041 17.0291 15.3379 16.6628L14.1257 15.4507L13.457 16.1194L16.0007 19.9351L18.5444 16.1194L17.8757 15.4507Z" fill="#3C3C3C"/>
<path d="M11.3125 29.1875C11.3125 30.7383 12.5742 32 14.125 32H17.875C19.4258 32 20.6875 30.7383 20.6875 29.1875V28.1875H11.3125V29.1875Z" fill="#3C3C3C"/>
</g>
<defs>
<clipPath id="clip0_2031_11352">
<rect width="32" height="32" fill="white"/>
</clipPath>
</defs>
</svg>
