<svg width="84" height="12" viewBox="0 0 84 12" fill="none" xmlns="http://www.w3.org/2000/svg">
<path d="M9.96745 11.363H7.37246V7.19302H2.88745V11.363H0.277466V0.848022H2.88745V4.92802H7.37246V0.848022H9.96745V11.363Z" fill="#353B97"/>
<path d="M23.3324 6.12802C23.3118 5.53958 23.1185 4.97022 22.7766 4.49088C22.4347 4.01154 21.9593 3.64341 21.4096 3.43236C20.8599 3.22131 20.2603 3.17668 19.6854 3.30403C19.1106 3.43137 18.5859 3.72506 18.1768 4.1485C17.7677 4.57194 17.4922 5.10639 17.3847 5.68529C17.2772 6.26419 17.3424 6.86192 17.5722 7.40401C17.8021 7.9461 18.1863 8.40858 18.6772 8.73381C19.168 9.05905 19.7436 9.23266 20.3324 9.23302C20.7354 9.23326 21.1343 9.15234 21.5053 8.99505C21.8763 8.83776 22.2118 8.60734 22.4917 8.31755C22.7717 8.02775 22.9905 7.68452 23.1349 7.30834C23.2793 6.93215 23.3465 6.53073 23.3324 6.12802ZM25.9724 6.12802C26.0023 7.25535 25.6953 8.36597 25.0907 9.31792C24.486 10.2699 23.6113 11.0199 22.5782 11.4721C21.5451 11.9244 20.4007 12.0583 19.2911 11.8567C18.1815 11.6552 17.1572 11.1274 16.3492 10.3407C15.5412 9.55403 14.9861 8.54428 14.7549 7.44052C14.5236 6.33675 14.6268 5.1891 15.0512 4.14427C15.4756 3.09945 16.2019 2.20491 17.1373 1.575C18.0727 0.945082 19.1747 0.608411 20.3024 0.608016C21.0393 0.590036 21.7723 0.71942 22.4586 0.988578C23.1448 1.25774 23.7703 1.66125 24.2985 2.17543C24.8266 2.68961 25.2468 3.3041 25.5342 3.98284C25.8217 4.66159 25.9707 5.39091 25.9724 6.12802V6.12802Z" fill="#353B97"/>
<path d="M35.7074 5.58801C36.6524 5.58801 37.2074 5.09302 37.2074 4.31302C37.2074 3.53302 36.6224 3.06801 35.7074 3.06801H33.2174V5.58801H35.7074ZM37.2074 11.363L33.9974 7.74802H33.2174V11.363H30.6074V0.788019H36.0374C36.521 0.735138 37.0102 0.785102 37.4731 0.934641C37.936 1.08418 38.362 1.32992 38.7232 1.65571C39.0844 1.9815 39.3726 2.37999 39.569 2.82503C39.7653 3.27007 39.8653 3.75161 39.8624 4.23802C39.8797 5.0385 39.6067 5.81821 39.0939 6.43307C38.5811 7.04793 37.863 7.4564 37.0724 7.58302L40.4024 11.318L37.2074 11.363Z" fill="#353B97"/>
<path d="M52.8375 11.363H44.5425V0.848022H52.7775V3.06802H47.1675V5.04802H52.3125V7.16302H47.1675V9.14302H52.8375V11.363Z" fill="#353B97"/>
<path d="M68.1525 7.41802C67.9268 8.65178 67.2543 9.75912 66.2637 10.5284C65.2731 11.2976 64.0337 11.6749 62.7825 11.588C62.0364 11.627 61.2902 11.5137 60.5893 11.255C59.8884 10.9964 59.2474 10.5977 58.7055 10.0834C58.1636 9.56909 57.7321 8.94985 57.4372 8.26339C57.1423 7.57694 56.9902 6.83764 56.9902 6.09052C56.9902 5.34341 57.1423 4.6041 57.4372 3.91765C57.7321 3.23119 58.1636 2.61195 58.7055 2.09762C59.2474 1.5833 59.8884 1.18467 60.5893 0.926C61.2902 0.667329 62.0364 0.554037 62.7825 0.593023C64.0074 0.526688 65.2165 0.895154 66.1962 1.63341C67.176 2.37166 67.8635 3.43223 68.1375 4.62801L65.5575 5.21301C65.4548 4.56013 65.1149 3.96806 64.6029 3.55014C64.0909 3.13223 63.4427 2.91784 62.7825 2.94802C61.951 2.94802 61.1536 3.27831 60.5657 3.86624C59.9778 4.45417 59.6475 5.25156 59.6475 6.08302C59.6475 6.91447 59.9778 7.71187 60.5657 8.29979C61.1536 8.88772 61.951 9.21802 62.7825 9.21802C63.4509 9.23682 64.1032 9.01097 64.6169 8.58288C65.1307 8.15478 65.4704 7.55389 65.5725 6.89302L68.1525 7.41802Z" fill="#353B97"/>
<path d="M77.2425 3.78802L75.9075 7.22303H78.6225L77.2425 3.78802ZM80.2425 11.378L79.4925 9.45802H74.9925L74.2425 11.378H71.4375L75.9375 0.878021H78.6075L83.1075 11.378H80.2425Z" fill="#353B97"/>
</svg>
