<svg width="111" height="12" viewBox="0 0 111 12" fill="none" xmlns="http://www.w3.org/2000/svg">
<path d="M8.48257 11.3854H0.622559V0.855377H3.24756V9.12037H8.48257V11.3854Z" fill="#62C7F1"/>
<path d="M21.1576 6.13539C21.137 5.54695 20.9437 4.97758 20.6018 4.49824C20.2598 4.0189 19.7844 3.65076 19.2347 3.43971C18.6851 3.22866 18.0855 3.18406 17.5106 3.3114C16.9358 3.43874 16.4111 3.7324 16.002 4.15583C15.5929 4.57927 15.3174 5.11374 15.2099 5.69264C15.1024 6.27154 15.1676 6.86927 15.3974 7.41136C15.6272 7.95345 16.0115 8.41593 16.5023 8.74116C16.9931 9.0664 17.5688 9.24004 18.1576 9.2404C18.5605 9.24065 18.9594 9.1597 19.3304 9.00241C19.7014 8.84512 20.0369 8.61471 20.3169 8.32492C20.5969 8.03512 20.8157 7.69187 20.9601 7.31569C21.1045 6.9395 21.1717 6.5381 21.1576 6.13539ZM23.7676 6.13539C23.7975 7.26336 23.4901 8.37459 22.8848 9.32687C22.2795 10.2792 21.4039 11.0292 20.3699 11.481C19.3359 11.9328 18.1907 12.0658 17.0807 11.8631C15.9707 11.6603 14.9465 11.131 14.139 10.3428C13.3316 9.55461 12.7776 8.54346 12.5481 7.43869C12.3186 6.33391 12.4239 5.18576 12.8506 4.14119C13.2773 3.09661 14.006 2.20311 14.9434 1.57501C15.8808 0.946906 16.9842 0.612808 18.1126 0.615398C18.8488 0.597388 19.5811 0.726835 20.2665 0.996166C20.9519 1.2655 21.5764 1.66927 22.1034 2.18365C22.6304 2.69803 23.0491 3.31264 23.3349 3.99131C23.6207 4.66999 23.7678 5.39899 23.7676 6.13539Z" fill="#62C7F1"/>
<path d="M39.2176 5.17538C39.2368 5.49509 39.2368 5.81569 39.2176 6.1354C39.2428 6.86247 39.118 7.58692 38.8508 8.26359C38.5836 8.94026 38.1799 9.55465 37.6648 10.0684C37.1497 10.5821 36.5342 10.9841 35.8568 11.2494C35.1793 11.5148 34.4545 11.6376 33.7276 11.6104C32.2715 11.6104 30.8751 11.032 29.8455 10.0024C28.816 8.97283 28.2375 7.57642 28.2375 6.12039C28.2375 4.66435 28.816 3.26794 29.8455 2.23837C30.8751 1.20879 32.2715 0.63038 33.7276 0.63038C34.8134 0.546426 35.8983 0.805259 36.8294 1.37036C37.7605 1.93545 38.4908 2.77835 38.9176 3.78039L36.3976 4.50041C36.1519 4.0134 35.7667 3.61062 35.2912 3.34345C34.8156 3.07629 34.2713 2.95686 33.7276 3.00041C33.3233 3.00008 32.9231 3.08147 32.5511 3.23968C32.1791 3.39789 31.8429 3.62965 31.5627 3.92106C31.2824 4.21247 31.0641 4.55752 30.9205 4.93546C30.777 5.31341 30.7114 5.71644 30.7276 6.12039C30.7085 6.53587 30.7761 6.95078 30.9259 7.33877C31.0758 7.72676 31.3046 8.07934 31.598 8.37414C31.8914 8.66894 32.2429 8.89951 32.6302 9.05122C33.0174 9.20292 33.432 9.27245 33.8476 9.25538C34.4577 9.29282 35.0634 9.12994 35.5724 8.79148C36.0815 8.45302 36.4661 7.9575 36.6676 7.38038H33.4126V5.17538H39.2176Z" fill="#62C7F1"/>
<path d="M46.5525 0.855377H43.9275V11.3704H46.5525V0.855377Z" fill="#62C7F1"/>
<path d="M60.1425 3.60039L57.5625 4.12539C57.4896 3.69114 57.2601 3.29865 56.9173 3.02223C56.5746 2.74581 56.1424 2.60464 55.7025 2.62539C54.8325 2.62539 54.2775 3.09038 54.2775 3.69038C54.2775 4.29038 54.4726 4.42538 55.1326 4.57538L57.3376 5.05539C59.1676 5.46039 60.2476 6.45039 60.2476 8.05539C60.2476 10.3054 58.2375 11.4604 55.8675 11.4604C53.4975 11.4604 51.5025 10.3354 51.2325 8.28038L53.9176 7.75537C54.0217 8.21996 54.2935 8.62986 54.681 8.9066C55.0684 9.18334 55.5443 9.30751 56.0175 9.25537C56.9925 9.25537 57.5175 8.8054 57.5175 8.1604C57.5175 7.5154 57.3076 7.39541 56.5426 7.23041L54.3225 6.76536C52.8225 6.42036 51.4575 5.62536 51.4575 3.76536C51.4575 1.90536 53.1675 0.450376 55.6575 0.450376C56.6627 0.324944 57.6787 0.577953 58.5077 1.16018C59.3367 1.74242 59.9194 2.61224 60.1425 3.60039V3.60039Z" fill="#62C7F1"/>
<path d="M70.1776 3.12037V11.3854H67.5826V3.12037H64.1326V0.855377H73.6276V3.12037H70.1776Z" fill="#62C7F1"/>
<path d="M80.6626 0.855377H78.0376V11.3704H80.6626V0.855377Z" fill="#62C7F1"/>
<path d="M96.3225 7.44039C96.0937 8.67265 95.4205 9.77803 94.4306 10.5467C93.4407 11.3154 92.203 11.6939 90.9525 11.6104C89.4964 11.6104 88.1001 11.032 87.0705 10.0024C86.0409 8.97282 85.4625 7.57642 85.4625 6.12038C85.4625 4.66434 86.0409 3.26794 87.0705 2.23836C88.1001 1.20879 89.4964 0.630375 90.9525 0.630375C92.1781 0.56101 93.3886 0.928333 94.369 1.66707C95.3495 2.40581 96.0363 3.46814 96.3075 4.66538L93.7275 5.2504C93.6246 4.59881 93.2842 4.00834 92.7718 3.59288C92.2594 3.17742 91.6113 2.96638 90.9525 3.0004C90.1604 3.05529 89.4188 3.40864 88.8771 3.98912C88.3355 4.5696 88.0342 5.33395 88.0342 6.12789C88.0342 6.92183 88.3355 7.68622 88.8771 8.2667C89.4188 8.84718 90.1604 9.20049 90.9525 9.25537C91.6235 9.2779 92.2794 9.05374 92.7963 8.62531C93.3132 8.19688 93.6552 7.5939 93.7575 6.93039L96.3225 7.44039Z" fill="#62C7F1"/>
<path d="M109.537 3.60039L106.957 4.12539C106.885 3.69114 106.655 3.29865 106.312 3.02223C105.969 2.74581 105.537 2.60464 105.097 2.62539C104.227 2.62539 103.597 3.09038 103.597 3.69038C103.597 4.29038 103.792 4.42538 104.452 4.57538L106.657 5.05539C108.502 5.46039 109.567 6.45039 109.567 8.05539C109.567 10.3054 107.557 11.4604 105.202 11.4604C102.847 11.4604 100.837 10.3354 100.552 8.28038L103.237 7.75537C103.342 8.21996 103.613 8.62986 104.001 8.9066C104.388 9.18334 104.864 9.30751 105.337 9.25537C106.327 9.25537 106.912 8.8054 106.912 8.1604C106.912 7.5154 106.687 7.39541 105.922 7.23041L103.702 6.76536C102.202 6.42036 100.852 5.62536 100.852 3.76536C100.852 1.90536 102.562 0.450376 105.052 0.450376C106.058 0.324944 107.074 0.577953 107.903 1.16018C108.732 1.74242 109.314 2.61224 109.537 3.60039Z" fill="#62C7F1"/>
</svg>
