<svg width="16" height="16" viewBox="0 0 16 16" fill="none" xmlns="http://www.w3.org/2000/svg">
<path d="M15.3332 5.33333C15.3332 6.06667 14.7332 6.66667 13.9998 6.66667C13.8798 6.66667 13.7665 6.65333 13.6598 6.62L11.2865 8.98667C11.3198 9.09333 11.3332 9.21333 11.3332 9.33333C11.3332 10.0667 10.7332 10.6667 9.99984 10.6667C9.2665 10.6667 8.6665 10.0667 8.6665 9.33333C8.6665 9.21333 8.67984 9.09333 8.71317 8.98667L7.01317 7.28667C6.9065 7.32 6.7865 7.33333 6.6665 7.33333C6.5465 7.33333 6.4265 7.32 6.31984 7.28667L3.2865 10.3267C3.31984 10.4333 3.33317 10.5467 3.33317 10.6667C3.33317 11.4 2.73317 12 1.99984 12C1.2665 12 0.666504 11.4 0.666504 10.6667C0.666504 9.93333 1.2665 9.33333 1.99984 9.33333C2.11984 9.33333 2.23317 9.34667 2.33984 9.38L5.37984 6.34667C5.3465 6.24 5.33317 6.12 5.33317 6C5.33317 5.26667 5.93317 4.66667 6.6665 4.66667C7.39984 4.66667 7.99984 5.26667 7.99984 6C7.99984 6.12 7.9865 6.24 7.95317 6.34667L9.65317 8.04667C9.75984 8.01333 9.87984 8 9.99984 8C10.1198 8 10.2398 8.01333 10.3465 8.04667L12.7132 5.67333C12.6798 5.56667 12.6665 5.45333 12.6665 5.33333C12.6665 4.6 13.2665 4 13.9998 4C14.7332 4 15.3332 4.6 15.3332 5.33333ZM15.3332 5.33333C15.3332 6.06667 14.7332 6.66667 13.9998 6.66667C13.8798 6.66667 13.7665 6.65333 13.6598 6.62L11.2865 8.98667C11.3198 9.09333 11.3332 9.21333 11.3332 9.33333C11.3332 10.0667 10.7332 10.6667 9.99984 10.6667C9.2665 10.6667 8.6665 10.0667 8.6665 9.33333C8.6665 9.21333 8.67984 9.09333 8.71317 8.98667L7.01317 7.28667C6.9065 7.32 6.7865 7.33333 6.6665 7.33333C6.5465 7.33333 6.4265 7.32 6.31984 7.28667L3.2865 10.3267C3.31984 10.4333 3.33317 10.5467 3.33317 10.6667C3.33317 11.4 2.73317 12 1.99984 12C1.2665 12 0.666504 11.4 0.666504 10.6667C0.666504 9.93333 1.2665 9.33333 1.99984 9.33333C2.11984 9.33333 2.23317 9.34667 2.33984 9.38L5.37984 6.34667C5.3465 6.24 5.33317 6.12 5.33317 6C5.33317 5.26667 5.93317 4.66667 6.6665 4.66667C7.39984 4.66667 7.99984 5.26667 7.99984 6C7.99984 6.12 7.9865 6.24 7.95317 6.34667L9.65317 8.04667C9.75984 8.01333 9.87984 8 9.99984 8C10.1198 8 10.2398 8.01333 10.3465 8.04667L12.7132 5.67333C12.6798 5.56667 12.6665 5.45333 12.6665 5.33333C12.6665 4.6 13.2665 4 13.9998 4C14.7332 4 15.3332 4.6 15.3332 5.33333Z" fill="#BDBDBD"/>
</svg>
