<svg width="16" height="16" viewBox="0 0 16 16" fill="none" xmlns="http://www.w3.org/2000/svg">
<path d="M9.33325 3.99992V2.66659H6.66659V3.99992H9.33325ZM2.66659 5.33325V12.6666H13.3333V5.33325H2.66659ZM13.3333 3.99992C14.0733 3.99992 14.6666 4.59325 14.6666 5.33325V12.6666C14.6666 13.4066 14.0733 13.9999 13.3333 13.9999H2.66659C1.92659 13.9999 1.33325 13.4066 1.33325 12.6666L1.33992 5.33325C1.33992 4.59325 1.92659 3.99992 2.66659 3.99992H5.33325V2.66659C5.33325 1.92659 5.92659 1.33325 6.66659 1.33325H9.33325C10.0733 1.33325 10.6666 1.92659 10.6666 2.66659V3.99992H13.3333Z" fill="#BDBDBD"/>
</svg>
