<svg width="28" height="29" viewBox="0 0 28 29" fill="none" xmlns="http://www.w3.org/2000/svg">
<path d="M14 2.83331L7.58333 13.3333H20.4167L14 2.83331ZM14 7.31331L16.2517 11H11.7367L14 7.31331ZM20.4167 15.6666C17.5117 15.6666 15.1667 18.0116 15.1667 20.9166C15.1667 23.8216 17.5117 26.1666 20.4167 26.1666C23.3217 26.1666 25.6667 23.8216 25.6667 20.9166C25.6667 18.0116 23.3217 15.6666 20.4167 15.6666ZM20.4167 23.8333C18.8067 23.8333 17.5 22.5266 17.5 20.9166C17.5 19.3066 18.8067 18 20.4167 18C22.0267 18 23.3333 19.3066 23.3333 20.9166C23.3333 22.5266 22.0267 23.8333 20.4167 23.8333ZM3.5 25.5833H12.8333V16.25H3.5V25.5833ZM5.83333 18.5833H10.5V23.25H5.83333V18.5833Z" fill="#3C3C3C"/>
</svg>
