<svg width="20" height="20" viewBox="0 0 20 20" fill="none" xmlns="http://www.w3.org/2000/svg">
<path fill-rule="evenodd" clip-rule="evenodd" d="M9.99994 7.7666C8.76415 7.7666 7.7666 8.76415 7.7666 9.99993C7.7666 11.2357 8.76415 12.2333 9.99994 12.2333C11.2357 12.2333 12.2333 11.2357 12.2333 9.99993C12.2333 8.76415 11.2357 7.7666 9.99994 7.7666ZM6.2666 9.99993C6.2666 7.93572 7.93572 6.2666 9.99994 6.2666C12.0641 6.2666 13.7333 7.93572 13.7333 9.99993C13.7333 12.0641 12.0641 13.7333 9.99994 13.7333C7.93572 13.7333 6.2666 12.0641 6.2666 9.99993Z" fill="#BDBDBD"/>
<path fill-rule="evenodd" clip-rule="evenodd" d="M1.7757 7.4304C3.78495 4.27203 6.74023 2.3501 9.99987 2.3501C13.2597 2.3501 16.2151 4.27223 18.2244 7.43089C18.6943 8.16772 18.904 9.10458 18.904 9.99593C18.904 10.8875 18.6942 11.8246 18.224 12.5615C16.2148 15.7198 13.2595 17.6418 9.99987 17.6418C6.74006 17.6418 3.78464 15.7196 1.77538 12.561C1.30541 11.8241 1.0957 10.8873 1.0957 9.99593C1.0957 9.10438 1.3055 8.1673 1.7757 7.4304ZM9.99987 3.8501C7.37635 3.8501 4.84843 5.39463 3.04102 8.23597L3.04039 8.23696C2.76081 8.67497 2.5957 9.31268 2.5957 9.99593C2.5957 10.6792 2.76081 11.3169 3.04039 11.7549L3.04102 11.7559C4.84843 14.5972 7.37635 16.1418 9.99987 16.1418C12.6234 16.1418 15.1513 14.5972 16.9587 11.7559L16.9593 11.7549C17.2389 11.3169 17.404 10.6792 17.404 9.99593C17.404 9.31268 17.2389 8.67497 16.9593 8.23696L16.9587 8.23597C15.1513 5.39463 12.6234 3.8501 9.99987 3.8501Z" fill="#BDBDBD"/>
</svg>
