<svg width="40" height="40" viewBox="0 0 40 40" fill="none" xmlns="http://www.w3.org/2000/svg">
<path d="M25 16.6667C25 19.4281 22.7614 21.6667 20 21.6667C17.2386 21.6667 15 19.4281 15 16.6667C15 13.9052 17.2386 11.6667 20 11.6667C22.7614 11.6667 25 13.9052 25 16.6667Z" fill="red"/>
<path fill-rule="evenodd" clip-rule="evenodd" d="M8.33331 16.6667C8.33331 25.4167 20 35 20 35C20 35 31.6666 25.4167 31.6666 16.6667C31.6666 10.2167 26.45 5 20 5C13.55 5 8.33331 10.2167 8.33331 16.6667ZM11.6666 16.6667C11.6666 12.0576 15.3909 8.33333 20 8.33333C24.609 8.33333 28.3333 12.0576 28.3333 16.6667C28.3333 19.7678 26.1405 23.5494 23.2757 26.9769C22.119 28.3608 20.9554 29.567 20 30.4957C19.0446 29.567 17.881 28.3608 16.7243 26.9769C13.8595 23.5494 11.6666 19.7678 11.6666 16.6667Z" fill="red"/>
</svg>
