<svg width="120" height="120" viewBox="0 0 120 120" fill="none" xmlns="http://www.w3.org/2000/svg">
<path d="M60 120C93.0823 120 120 93.0847 120 60C120 54.2896 119.203 48.6621 117.625 43.2727C116.847 40.6226 114.08 39.1003 111.422 39.8779C108.77 40.6531 107.252 43.4302 108.027 46.0803C109.335 50.5579 110 55.2429 110 60C110 87.5696 87.5696 110 60 110C32.4304 110 10 87.5696 10 60C10 32.4304 32.4304 10 60 10C70.0195 10 79.6594 12.9297 87.8772 18.4705C90.1648 20.0146 93.2751 19.408 94.8169 17.1204C96.3599 14.8303 95.7581 11.7224 93.468 10.1794C83.5925 3.52051 72.0203 0 60 0C26.9177 0 0 26.9153 0 60C0 93.0847 26.9177 120 60 120V120Z" fill="#6AB974"/>
<path d="M111.464 11.4648L59.9991 62.9272L43.5342 46.4648C41.5811 44.5129 38.4171 44.5129 36.4639 46.4648C34.512 48.4179 34.512 51.582 36.4639 53.5351L56.4639 73.5351C57.4417 74.5129 58.7186 74.9999 59.9991 74.9999C61.2796 74.9999 62.5565 74.5129 63.5342 73.5351L118.534 18.5351C120.486 16.582 120.486 13.4179 118.534 11.4648C116.581 9.51288 113.417 9.51288 111.464 11.4648Z" fill="#6AB974"/>
</svg>
