<svg width="200" height="78" viewBox="0 0 200 78" fill="none" xmlns="http://www.w3.org/2000/svg">
<rect width="200" height="78" fill="#343B97" fill-opacity="0.8"/>
<path d="M51.9513 47.0445H48.0588V40.7895H41.3313V47.0445H37.4163V31.272H41.3313V37.392H48.0588V31.272H51.9513V47.0445Z" fill="white"/>
<path d="M71.9988 39.192C71.9679 38.3094 71.6779 37.4553 71.1651 36.7363C70.6522 36.0173 69.939 35.4651 69.1145 35.1485C68.29 34.832 67.3906 34.765 66.5283 34.956C65.666 35.147 64.879 35.5876 64.2653 36.2227C63.6516 36.8579 63.2384 37.6596 63.0772 38.5279C62.916 39.3963 63.0138 40.2929 63.3585 41.106C63.7033 41.9191 64.2797 42.6129 65.0159 43.1007C65.7521 43.5886 66.6156 43.849 67.4988 43.8495C68.1032 43.8499 68.7015 43.7285 69.258 43.4926C69.8145 43.2566 70.3178 42.911 70.7378 42.4763C71.1578 42.0416 71.4858 41.5268 71.7025 40.9625C71.9192 40.3982 72.0199 39.7961 71.9988 39.192ZM75.9588 39.192C76.0036 40.883 75.543 42.549 74.6361 43.9769C73.7292 45.4048 72.4171 46.5298 70.8675 47.2082C69.3179 47.8866 67.6012 48.0874 65.9368 47.7851C64.2725 47.4828 62.736 46.691 61.5239 45.511C60.3119 44.331 59.4792 42.8164 59.1324 41.1608C58.7856 39.5051 58.9404 37.7836 59.577 36.2164C60.2135 34.6492 61.303 33.3074 62.7061 32.3625C64.1092 31.4176 65.7622 30.9126 67.4538 30.912C68.5591 30.885 69.6587 31.0791 70.688 31.4829C71.7173 31.8866 72.6557 32.4919 73.4479 33.2631C74.2401 34.0344 74.8703 34.9561 75.3015 35.9743C75.7327 36.9924 75.9561 38.0864 75.9588 39.192Z" fill="white"/>
<path d="M90.5613 38.3819C91.9788 38.3819 92.8113 37.6394 92.8113 36.4694C92.8113 35.2994 91.9338 34.6019 90.5613 34.6019H86.8263V38.3819H90.5613ZM92.8113 47.0444L87.9963 41.6219H86.8263V47.0444H82.9113V31.1819H91.0563C91.7816 31.1026 92.5155 31.1775 93.2098 31.4019C93.9041 31.6262 94.5431 31.9948 95.0849 32.4835C95.6267 32.9721 96.0591 33.5699 96.3536 34.2374C96.6481 34.905 96.7981 35.6273 96.7937 36.3569C96.8197 37.5576 96.4103 38.7272 95.641 39.6495C94.8717 40.5718 93.7947 41.1845 92.6088 41.3744L97.6038 46.9769L92.8113 47.0444Z" fill="white"/>
<path d="M116.256 47.0445H103.814V31.272H116.166V34.602H107.751V37.572H115.469V40.7445H107.751V43.7145H116.256V47.0445Z" fill="white"/>
<path d="M139.229 41.127C138.89 42.9776 137.882 44.6386 136.396 45.7925C134.91 46.9464 133.051 47.5123 131.174 47.382C130.055 47.4404 128.935 47.2705 127.884 46.8825C126.833 46.4945 125.871 45.8966 125.058 45.1251C124.245 44.3536 123.598 43.4247 123.156 42.395C122.713 41.3654 122.485 40.2564 122.485 39.1357C122.485 38.0151 122.713 36.9061 123.156 35.8764C123.598 34.8467 124.245 33.9179 125.058 33.1464C125.871 32.3749 126.833 31.777 127.884 31.3889C128.935 31.0009 130.055 30.831 131.174 30.8895C133.011 30.79 134.825 31.3427 136.294 32.4501C137.764 33.5574 138.795 35.1483 139.206 36.942L135.336 37.8195C135.182 36.8401 134.672 35.952 133.904 35.3252C133.136 34.6983 132.164 34.3767 131.174 34.422C129.927 34.422 128.73 34.9174 127.849 35.7993C126.967 36.6812 126.471 37.8773 126.471 39.1245C126.471 40.3717 126.967 41.5677 127.849 42.4496C128.73 43.3315 129.927 43.827 131.174 43.827C132.176 43.8552 133.155 43.5164 133.925 42.8743C134.696 42.2321 135.206 41.3308 135.359 40.3395L139.229 41.127Z" fill="white"/>
<path d="M152.864 35.682L150.861 40.8345H154.934L152.864 35.682ZM157.364 47.067L156.239 44.187H149.489L148.364 47.067H144.156L150.906 31.317H154.911L161.661 47.067H157.364Z" fill="white"/>
</svg>
