<svg width="116" height="34" viewBox="0 0 116 34" fill="none" xmlns="http://www.w3.org/2000/svg">
<path d="M36.7151 0.0202637H30.4351V6.24026H36.7151V0.0202637Z" fill="#353B97"/>
<path d="M30.4351 6.24023V19.5702H36.7051V9.00023L30.4351 6.24023Z" fill="#231F20"/>
<path d="M81.0749 6.91024C81.0696 7.48759 80.8366 8.03949 80.4265 8.44588C80.0163 8.85227 79.4623 9.08026 78.8849 9.08024H75.2649V4.74023H78.8449C79.1345 4.73358 79.4226 4.78473 79.6922 4.89068C79.9619 4.99663 80.2077 5.15525 80.4153 5.35729C80.6229 5.55933 80.7882 5.80072 80.9014 6.06736C81.0147 6.334 81.0737 6.62054 81.0749 6.91024ZM87.3549 6.91024C87.351 5.99725 87.1665 5.09405 86.812 4.25269C86.4575 3.41133 85.94 2.64845 85.2893 2.00799C84.6386 1.36754 83.8676 0.862178 83.0207 0.521024C82.1739 0.179871 81.2679 0.00967539 80.3549 0.0202386H69.0349V19.5402H75.3149V9.08024L81.1849 19.5402H87.3649L83.6849 12.9502C84.7858 12.3696 85.7085 11.5012 86.3548 10.4375C87.0011 9.37386 87.3467 8.15482 87.3549 6.91024Z" fill="#231F20"/>
<path d="M62.745 0.0202637H42.985V6.24026H49.505V19.5703H56.235V6.24026H62.745V0.0202637Z" fill="#231F20"/>
<path d="M18.795 0.0202637L13.045 12.2303L7.285 0.0202637H0.36499L9.58499 19.5703H16.505L25.715 0.0202637H18.795Z" fill="#231F20"/>
<path d="M115.635 19.5703L106.435 0.0202637H99.695L90.495 19.5703H97.215L103.075 7.15026L105.445 12.2003H100.685L103.005 17.1103H107.765L108.915 19.5703H115.635Z" fill="#231F20"/>
<path d="M36.885 33.5902H35.155V30.8102H32.165V33.5902H30.425V26.5802H32.165V29.3002H35.155V26.5802H36.885V33.5902Z" fill="#353B97"/>
<path d="M45.795 30.1002C45.7813 29.7079 45.6524 29.3284 45.4245 29.0088C45.1965 28.6892 44.8796 28.4438 44.5131 28.3031C44.1467 28.1624 43.7469 28.1327 43.3637 28.2176C42.9804 28.3025 42.6307 28.4983 42.3579 28.7805C42.0852 29.0628 41.9015 29.4191 41.8299 29.8051C41.7582 30.191 41.8017 30.5895 41.9549 30.9509C42.1081 31.3123 42.3643 31.6206 42.6915 31.8374C43.0187 32.0542 43.4025 32.17 43.795 32.1702C44.0637 32.1704 44.3296 32.1164 44.5769 32.0116C44.8242 31.9067 45.0479 31.7531 45.2346 31.5599C45.4212 31.3667 45.567 31.1379 45.6633 30.8871C45.7596 30.6363 45.8044 30.3687 45.795 30.1002ZM47.555 30.1002C47.5749 30.8518 47.3702 31.5922 46.9672 32.2268C46.5641 32.8615 45.9809 33.3615 45.2922 33.663C44.6035 33.9645 43.8405 34.0537 43.1008 33.9194C42.3611 33.785 41.6782 33.4331 41.1395 32.9087C40.6008 32.3842 40.2308 31.7111 40.0766 30.9752C39.9225 30.2394 39.9913 29.4743 40.2742 28.7777C40.5571 28.0812 41.0414 27.4848 41.665 27.0649C42.2886 26.6449 43.0232 26.4205 43.775 26.4202C44.2663 26.4082 44.755 26.4945 45.2124 26.6739C45.6699 26.8534 46.087 27.1224 46.4391 27.4652C46.7912 27.808 47.0713 28.2176 47.2629 28.6701C47.4545 29.1226 47.5538 29.6088 47.555 30.1002Z" fill="#353B97"/>
<path d="M54.045 29.7402C54.675 29.7402 55.045 29.4102 55.045 28.8902C55.045 28.3702 54.655 28.0602 54.045 28.0602H52.385V29.7402H54.045ZM55.045 33.5902L52.905 31.1802H52.385V33.5902H50.645V26.5402H54.265C54.5874 26.505 54.9136 26.5383 55.2221 26.638C55.5307 26.7377 55.8147 26.9015 56.0555 27.1187C56.2963 27.3359 56.4885 27.6016 56.6194 27.8983C56.7503 28.1949 56.8169 28.516 56.815 28.8402C56.8265 29.3739 56.6446 29.8937 56.3027 30.3036C55.9608 30.7135 55.4821 30.9858 54.955 31.0702L57.175 33.5602L55.045 33.5902Z" fill="#353B97"/>
<path d="M65.4651 33.5902H59.9351V26.5802H65.425V28.0602H61.6851V29.3802H65.1151V30.7902H61.6851V32.1102H65.4651V33.5902Z" fill="#353B97"/>
<path d="M75.675 30.9602C75.5245 31.7827 75.0763 32.521 74.4158 33.0338C73.7554 33.5466 72.9292 33.7981 72.095 33.7402C71.5976 33.7662 71.1001 33.6907 70.6329 33.5182C70.1656 33.3458 69.7383 33.08 69.377 32.7372C69.0158 32.3943 68.7281 31.9814 68.5315 31.5238C68.3349 31.0662 68.2335 30.5733 68.2335 30.0752C68.2335 29.5772 68.3349 29.0843 68.5315 28.6266C68.7281 28.169 69.0158 27.7562 69.377 27.4133C69.7383 27.0704 70.1656 26.8047 70.6329 26.6322C71.1001 26.4598 71.5976 26.3842 72.095 26.4102C72.9116 26.366 73.7177 26.6117 74.3708 27.1038C75.024 27.596 75.4824 28.303 75.665 29.1002L73.945 29.4902C73.8765 29.055 73.65 28.6603 73.3086 28.3816C72.9673 28.103 72.5352 27.9601 72.095 27.9802C71.5407 27.9802 71.0091 28.2004 70.6172 28.5924C70.2252 28.9843 70.005 29.5159 70.005 30.0702C70.005 30.6245 70.2252 31.1561 70.6172 31.5481C71.0091 31.94 71.5407 32.1602 72.095 32.1602C72.5406 32.1728 72.9755 32.0222 73.318 31.7368C73.6605 31.4514 73.887 31.0508 73.955 30.6102L75.675 30.9602Z" fill="#353B97"/>
<path d="M81.735 28.5402L80.845 30.8302H82.655L81.735 28.5402ZM83.735 33.6002L83.235 32.3202H80.235L79.735 33.6002H77.865L80.865 26.6002H82.645L85.645 33.6002H83.735Z" fill="#353B97"/>
</svg>
