<svg width="200" height="70" viewBox="0 0 200 70" fill="none" xmlns="http://www.w3.org/2000/svg">
<rect width="200" height="70" fill="#343B97" fill-opacity="0.8"/>
<path d="M51.9513 43.0445H48.0588V36.7895H41.3313V43.0445H37.4163V27.272H41.3313V33.392H48.0588V27.272H51.9513V43.0445Z" fill="white"/>
<path d="M71.9988 35.192C71.9679 34.3094 71.6779 33.4553 71.1651 32.7363C70.6522 32.0173 69.939 31.4651 69.1145 31.1485C68.29 30.832 67.3906 30.765 66.5283 30.956C65.666 31.147 64.879 31.5876 64.2653 32.2227C63.6516 32.8579 63.2384 33.6596 63.0772 34.5279C62.916 35.3963 63.0138 36.2929 63.3585 37.106C63.7033 37.9191 64.2797 38.6129 65.0159 39.1007C65.7521 39.5886 66.6156 39.849 67.4988 39.8495C68.1032 39.8499 68.7015 39.7285 69.258 39.4926C69.8145 39.2566 70.3178 38.911 70.7378 38.4763C71.1578 38.0416 71.4858 37.5268 71.7025 36.9625C71.9192 36.3982 72.0199 35.7961 71.9988 35.192ZM75.9588 35.192C76.0036 36.883 75.543 38.549 74.6361 39.9769C73.7292 41.4048 72.4171 42.5298 70.8675 43.2082C69.3179 43.8866 67.6012 44.0874 65.9368 43.7851C64.2725 43.4828 62.736 42.691 61.5239 41.511C60.3119 40.331 59.4792 38.8164 59.1324 37.1608C58.7856 35.5051 58.9404 33.7836 59.577 32.2164C60.2135 30.6492 61.303 29.3074 62.7061 28.3625C64.1092 27.4176 65.7622 26.9126 67.4538 26.912C68.5591 26.885 69.6587 27.0791 70.688 27.4829C71.7173 27.8866 72.6557 28.4919 73.4479 29.2631C74.2401 30.0344 74.8703 30.9561 75.3015 31.9743C75.7327 32.9924 75.9561 34.0864 75.9588 35.192Z" fill="white"/>
<path d="M90.5613 34.3819C91.9788 34.3819 92.8113 33.6394 92.8113 32.4694C92.8113 31.2994 91.9338 30.6019 90.5613 30.6019H86.8263V34.3819H90.5613ZM92.8113 43.0444L87.9963 37.6219H86.8263V43.0444H82.9113V27.1819H91.0563C91.7816 27.1026 92.5155 27.1775 93.2098 27.4019C93.9041 27.6262 94.5431 27.9948 95.0849 28.4835C95.6267 28.9721 96.0591 29.5699 96.3536 30.2374C96.6481 30.905 96.7981 31.6273 96.7937 32.3569C96.8197 33.5576 96.4103 34.7272 95.641 35.6495C94.8717 36.5718 93.7947 37.1845 92.6088 37.3744L97.6038 42.9769L92.8113 43.0444Z" fill="white"/>
<path d="M116.256 43.0445H103.814V27.272H116.166V30.602H107.751V33.572H115.469V36.7445H107.751V39.7145H116.256V43.0445Z" fill="white"/>
<path d="M139.229 37.127C138.89 38.9776 137.882 40.6386 136.396 41.7925C134.91 42.9464 133.051 43.5123 131.174 43.382C130.055 43.4404 128.935 43.2705 127.884 42.8825C126.833 42.4945 125.871 41.8966 125.058 41.1251C124.245 40.3536 123.598 39.4247 123.156 38.395C122.713 37.3654 122.485 36.2564 122.485 35.1357C122.485 34.0151 122.713 32.9061 123.156 31.8764C123.598 30.8467 124.245 29.9179 125.058 29.1464C125.871 28.3749 126.833 27.777 127.884 27.3889C128.935 27.0009 130.055 26.831 131.174 26.8895C133.011 26.79 134.825 27.3427 136.294 28.4501C137.764 29.5574 138.795 31.1483 139.206 32.942L135.336 33.8195C135.182 32.8401 134.672 31.952 133.904 31.3252C133.136 30.6983 132.164 30.3767 131.174 30.422C129.927 30.422 128.73 30.9174 127.849 31.7993C126.967 32.6812 126.471 33.8773 126.471 35.1245C126.471 36.3717 126.967 37.5677 127.849 38.4496C128.73 39.3315 129.927 39.827 131.174 39.827C132.176 39.8552 133.155 39.5164 133.925 38.8743C134.696 38.2321 135.206 37.3308 135.359 36.3395L139.229 37.127Z" fill="white"/>
<path d="M152.864 31.682L150.861 36.8345H154.934L152.864 31.682ZM157.364 43.067L156.239 40.187H149.489L148.364 43.067H144.156L150.906 27.317H154.911L161.661 43.067H157.364Z" fill="white"/>
</svg>
