<svg width="220" height="80" viewBox="0 0 220 80" fill="none" xmlns="http://www.w3.org/2000/svg">
<rect width="220" height="80" rx="4" fill="#343B97" fill-opacity="0.8"/>
<path d="M61.9513 48.0445H58.0588V41.7895H51.3313V48.0445H47.4163V32.272H51.3313V38.392H58.0588V32.272H61.9513V48.0445Z" fill="white"/>
<path d="M81.9988 40.192C81.9679 39.3094 81.6779 38.4553 81.1651 37.7363C80.6522 37.0173 79.939 36.4651 79.1145 36.1485C78.29 35.832 77.3906 35.765 76.5283 35.956C75.666 36.147 74.879 36.5876 74.2653 37.2227C73.6516 37.8579 73.2384 38.6596 73.0772 39.5279C72.916 40.3963 73.0138 41.2929 73.3585 42.106C73.7033 42.9191 74.2797 43.6129 75.0159 44.1007C75.7521 44.5886 76.6156 44.849 77.4988 44.8495C78.1032 44.8499 78.7015 44.7285 79.258 44.4926C79.8145 44.2566 80.3178 43.911 80.7378 43.4763C81.1578 43.0416 81.4858 42.5268 81.7025 41.9625C81.9192 41.3982 82.0199 40.7961 81.9988 40.192ZM85.9588 40.192C86.0036 41.883 85.543 43.549 84.6361 44.9769C83.7292 46.4048 82.4171 47.5298 80.8675 48.2082C79.3179 48.8866 77.6012 49.0874 75.9368 48.7851C74.2725 48.4828 72.736 47.691 71.5239 46.511C70.3119 45.331 69.4792 43.8164 69.1324 42.1608C68.7856 40.5051 68.9404 38.7836 69.577 37.2164C70.2135 35.6492 71.303 34.3074 72.7061 33.3625C74.1092 32.4176 75.7622 31.9126 77.4538 31.912C78.5591 31.885 79.6587 32.0791 80.688 32.4829C81.7173 32.8866 82.6557 33.4919 83.4479 34.2631C84.2401 35.0344 84.8703 35.9561 85.3015 36.9743C85.7327 37.9924 85.9561 39.0864 85.9588 40.192Z" fill="white"/>
<path d="M100.561 39.3819C101.979 39.3819 102.811 38.6394 102.811 37.4694C102.811 36.2994 101.934 35.6019 100.561 35.6019H96.8263V39.3819H100.561ZM102.811 48.0444L97.9963 42.6219H96.8263V48.0444H92.9113V32.1819H101.056C101.782 32.1026 102.515 32.1775 103.21 32.4019C103.904 32.6262 104.543 32.9948 105.085 33.4835C105.627 33.9721 106.059 34.5699 106.354 35.2374C106.648 35.905 106.798 36.6273 106.794 37.3569C106.82 38.5576 106.41 39.7272 105.641 40.6495C104.872 41.5718 103.795 42.1845 102.609 42.3744L107.604 47.9769L102.811 48.0444Z" fill="white"/>
<path d="M126.256 48.0445H113.814V32.272H126.166V35.602H117.751V38.572H125.469V41.7445H117.751V44.7145H126.256V48.0445Z" fill="white"/>
<path d="M149.229 42.127C148.89 43.9776 147.882 45.6386 146.396 46.7925C144.91 47.9464 143.051 48.5123 141.174 48.382C140.055 48.4404 138.935 48.2705 137.884 47.8825C136.833 47.4945 135.871 46.8966 135.058 46.1251C134.245 45.3536 133.598 44.4247 133.156 43.395C132.713 42.3654 132.485 41.2564 132.485 40.1357C132.485 39.0151 132.713 37.9061 133.156 36.8764C133.598 35.8467 134.245 34.9179 135.058 34.1464C135.871 33.3749 136.833 32.777 137.884 32.3889C138.935 32.0009 140.055 31.831 141.174 31.8895C143.011 31.79 144.825 32.3427 146.294 33.4501C147.764 34.5574 148.795 36.1483 149.206 37.942L145.336 38.8195C145.182 37.8401 144.672 36.952 143.904 36.3252C143.136 35.6983 142.164 35.3767 141.174 35.422C139.927 35.422 138.73 35.9174 137.849 36.7993C136.967 37.6812 136.471 38.8773 136.471 40.1245C136.471 41.3717 136.967 42.5677 137.849 43.4496C138.73 44.3315 139.927 44.827 141.174 44.827C142.176 44.8552 143.155 44.5164 143.925 43.8743C144.696 43.2321 145.206 42.3308 145.359 41.3395L149.229 42.127Z" fill="white"/>
<path d="M162.864 36.682L160.861 41.8345H164.934L162.864 36.682ZM167.364 48.067L166.239 45.187H159.489L158.364 48.067H154.156L160.906 32.317H164.911L171.661 48.067H167.364Z" fill="white"/>
</svg>
