<svg width="118" height="34" viewBox="0 0 118 34" fill="none" xmlns="http://www.w3.org/2000/svg">
<path d="M117.48 19.7851L108.14 0.135132H101.31L91.97 19.7851H98.79L104.72 7.30513L107.14 12.3551H102.31L104.67 17.2951H109.49L110.67 19.7851H117.48Z" fill="#231F20"/>
<path d="M37.41 0.135132H31.03V6.38513H37.41V0.135132Z" fill="#07AD4B"/>
<path d="M31.03 6.38513V19.7851H37.39V9.16513L31.03 6.38513Z" fill="#231F20"/>
<path d="M82.4101 7.04517C82.4088 7.33578 82.3499 7.62325 82.2369 7.89098C82.1239 8.15871 81.9589 8.40139 81.7516 8.60501C81.5442 8.80864 81.2986 8.96918 81.0289 9.07734C80.7591 9.18549 80.4707 9.23914 80.1801 9.23517H76.5501V4.86516H80.1801C80.7645 4.85982 81.3272 5.0862 81.7452 5.49476C82.1631 5.90331 82.4022 6.46078 82.4101 7.04517ZM88.7901 7.04517C88.769 5.19037 88.0125 3.41978 86.6869 2.12229C85.3613 0.824797 83.5749 0.106503 81.7201 0.125172H70.1901V19.7752H76.5601V9.23517L82.5601 19.7752H88.8401L85.1001 13.1652C86.2145 12.5782 87.1473 11.6979 87.7977 10.6192C88.448 9.54058 88.7912 8.30471 88.7901 7.04517Z" fill="#231F20"/>
<path d="M63.81 0.135132H43.77V6.38513H50.37V19.7851H57.21V6.38513H63.81V0.135132Z" fill="#231F20"/>
<path d="M19.22 0.135132L13.38 12.3951L7.55002 0.135132H0.52002L9.86002 19.7851H16.89L26.25 0.135132H19.22Z" fill="#231F20"/>
<path d="M50.42 33.8752H45.11V26.8352H46.87V32.3552H50.42V33.8752Z" fill="#07AD4B"/>
<path d="M55.3299 26.8352H53.5599V33.8752H55.3299V26.8352Z" fill="#07AD4B"/>
<path d="M60.5 29.8252H63.88V31.3352H60.5V33.8552H58.73V26.8152H64.29V28.3452H60.5V29.8252Z" fill="#07AD4B"/>
<path d="M72.89 33.8752H67.29V26.8352H72.86V28.3252H69.05V29.6552H72.53V31.0652H69.05V32.3952H72.89V33.8752Z" fill="#07AD4B"/>
</svg>
