<svg width="116" height="34" viewBox="0 0 116 34" fill="none" xmlns="http://www.w3.org/2000/svg">
<path d="M36.705 0.0251465H30.425V6.23514H36.705V0.0251465Z" fill="#62C7F1"/>
<path d="M30.425 6.23511V19.5751H36.705V9.01511L30.425 6.23511Z" fill="#231F20"/>
<path d="M81.075 6.91515C81.0737 7.20096 81.016 7.4837 80.9051 7.74713C80.7942 8.01056 80.6323 8.24951 80.4288 8.45021C80.2253 8.65092 79.9842 8.80944 79.7193 8.91669C79.4543 9.02393 79.1708 9.07779 78.885 9.07515H75.265V4.74515H78.845C79.1346 4.7385 79.4227 4.78965 79.6923 4.8956C79.962 5.00155 80.2078 5.16016 80.4154 5.3622C80.623 5.56423 80.7883 5.80563 80.9015 6.07227C81.0148 6.33891 81.0738 6.62545 81.075 6.91515ZM87.355 6.91515C87.3498 6.00207 87.1644 5.099 86.8096 4.25769C86.4547 3.41638 85.9373 2.65338 85.287 2.01239C84.6367 1.3714 83.8664 0.865034 83.0201 0.522309C82.1737 0.179585 81.2681 0.00724386 80.355 0.015153H69.025V19.5752H75.265V9.07515L81.135 19.5752H87.315L83.635 12.9852C84.7504 12.4097 85.6868 11.5397 86.3426 10.4696C86.9984 9.39951 87.3486 8.1702 87.355 6.91515Z" fill="#231F20"/>
<path d="M62.745 0.0251465H42.985V6.23514H49.495V19.5751H56.235V6.23514H62.745V0.0251465Z" fill="#231F20"/>
<path d="M18.795 0.0251465L13.045 12.2251L7.295 0.0251465H0.36499L9.58499 19.5751H16.505L25.715 0.0251465H18.795Z" fill="#231F20"/>
<path d="M115.635 19.5751L106.425 0.0251465H99.705L90.485 19.5751H97.215L103.065 7.15514L105.435 12.1951H100.685L103.005 17.1151H107.755L108.915 19.5751H115.635Z" fill="#231F20"/>
<path d="M26.895 33.6051H21.655V26.5851H23.405V32.0951H26.895V33.6051Z" fill="#62C7F1"/>
<path d="M35.345 30.1052C35.3313 29.7129 35.2024 29.3333 34.9745 29.0137C34.7466 28.6942 34.4296 28.4487 34.0632 28.308C33.6967 28.1673 33.297 28.1376 32.9137 28.2225C32.5305 28.3074 32.1807 28.5032 31.908 28.7855C31.6352 29.0678 31.4516 29.4241 31.3799 29.81C31.3082 30.1959 31.3517 30.5944 31.5049 30.9558C31.6581 31.3172 31.9143 31.6255 32.2415 31.8423C32.5687 32.0592 32.9525 32.1749 33.345 32.1752C33.6137 32.1753 33.8796 32.1214 34.1269 32.0165C34.3743 31.9117 34.598 31.758 34.7846 31.5649C34.9713 31.3717 35.1171 31.1428 35.2134 30.892C35.3097 30.6412 35.3544 30.3736 35.345 30.1052ZM37.0851 30.1052C37.105 30.8571 36.9 31.598 36.4965 32.2328C36.093 32.8677 35.5092 33.3677 34.8199 33.6689C34.1306 33.9701 33.3671 34.0588 32.6271 33.9236C31.8871 33.7884 31.2043 33.4355 30.666 32.9101C30.1277 32.3846 29.7584 31.7105 29.6054 30.974C29.4524 30.2375 29.5226 29.4721 29.8071 28.7757C30.0915 28.0793 30.5773 27.4836 31.2023 27.0649C31.8272 26.6462 32.5628 26.4234 33.315 26.4252C33.8058 26.4132 34.2941 26.4995 34.751 26.679C35.2079 26.8586 35.6243 27.1278 35.9756 27.4707C36.3269 27.8136 36.606 28.2233 36.7966 28.6758C36.9871 29.1282 37.0852 29.6142 37.0851 30.1052Z" fill="#62C7F1"/>
<path d="M47.3851 29.4651C47.3979 29.6783 47.3979 29.892 47.3851 30.1051C47.4019 30.5899 47.3187 31.0728 47.1406 31.5239C46.9625 31.9751 46.6933 32.3846 46.3499 32.7271C46.0065 33.0696 45.5961 33.3376 45.1445 33.5145C44.6929 33.6914 44.2097 33.7733 43.7251 33.7551C42.7544 33.7551 41.8234 33.3695 41.1371 32.6831C40.4507 31.9968 40.0651 31.0658 40.0651 30.0951C40.0651 29.1244 40.4507 28.1935 41.1371 27.5071C41.8234 26.8207 42.7544 26.4351 43.7251 26.4351C44.449 26.3792 45.1723 26.5517 45.793 26.9284C46.4137 27.3052 46.9006 27.8671 47.1851 28.5351L45.5051 29.0151C45.3413 28.6905 45.0845 28.422 44.7675 28.2438C44.4505 28.0657 44.0875 27.9861 43.7251 28.0151C43.4556 28.0149 43.1888 28.0692 42.9408 28.1747C42.6927 28.2801 42.4686 28.4346 42.2818 28.6289C42.095 28.8232 41.9494 29.0532 41.8537 29.3052C41.7581 29.5571 41.7143 29.8258 41.7251 30.0951C41.7124 30.3721 41.7574 30.6487 41.8573 30.9074C41.9572 31.166 42.1098 31.4011 42.3054 31.5976C42.501 31.7942 42.7353 31.9479 42.9935 32.049C43.2516 32.1502 43.528 32.1965 43.8051 32.1851C44.2119 32.2101 44.6156 32.1015 44.955 31.8759C45.2944 31.6502 45.5507 31.3199 45.6851 30.9351H43.5151V29.4651H47.3851Z" fill="#62C7F1"/>
<path d="M52.275 26.5851H50.525V33.5951H52.275V26.5851Z" fill="#62C7F1"/>
<path d="M61.335 28.4151L59.615 28.7651C59.5664 28.4756 59.4134 28.214 59.1849 28.0297C58.9564 27.8454 58.6682 27.7513 58.375 27.7651C57.795 27.7651 57.425 28.0751 57.425 28.4751C57.425 28.8751 57.555 28.9651 57.995 29.0651L59.465 29.3851C60.685 29.6551 61.405 30.3151 61.405 31.3851C61.405 32.8851 60.065 33.6551 58.485 33.6551C56.905 33.6551 55.575 32.9051 55.395 31.5351L57.185 31.1851C57.2545 31.4949 57.4357 31.7681 57.694 31.9526C57.9523 32.1371 58.2695 32.2199 58.585 32.1851C59.235 32.1851 59.585 31.8851 59.585 31.4551C59.585 31.0251 59.445 30.9451 58.935 30.8351L57.455 30.5251C56.455 30.2951 55.545 29.7651 55.545 28.5251C55.545 27.2851 56.685 26.3151 58.345 26.3151C59.0152 26.2315 59.6925 26.4002 60.2451 26.7883C60.7978 27.1765 61.1863 27.7564 61.335 28.4151Z" fill="#62C7F1"/>
<path d="M68.025 28.0951V33.6051H66.295V28.0951H63.995V26.5851H70.325V28.0951H68.025Z" fill="#62C7F1"/>
<path d="M75.015 26.5851H73.265V33.5951H75.015V26.5851Z" fill="#62C7F1"/>
<path d="M85.4551 30.9751C85.3026 31.7966 84.8538 32.5335 84.1938 33.046C83.5339 33.5585 82.7087 33.8108 81.8751 33.7551C80.9044 33.7551 79.9735 33.3695 79.2871 32.6831C78.6007 31.9967 78.2151 31.0658 78.2151 30.0951C78.2151 29.1244 78.6007 28.1935 79.2871 27.5071C79.9735 26.8207 80.9044 26.4351 81.8751 26.4351C82.6921 26.3889 83.4992 26.6337 84.1528 27.1262C84.8064 27.6187 85.2643 28.3269 85.4451 29.1251L83.7251 29.5151C83.6565 29.0807 83.4295 28.6871 83.0879 28.4101C82.7463 28.1331 82.3143 27.9924 81.8751 28.0151C81.347 28.0517 80.8526 28.2873 80.4915 28.6743C80.1304 29.0612 79.9296 29.5708 79.9296 30.1001C79.9296 30.6294 80.1304 31.139 80.4915 31.526C80.8526 31.913 81.347 32.1485 81.8751 32.1851C82.3224 32.2001 82.7597 32.0507 83.1043 31.7651C83.4489 31.4794 83.6769 31.0774 83.7451 30.6351L85.4551 30.9751Z" fill="#62C7F1"/>
<path d="M94.265 28.4151L92.545 28.7651C92.4964 28.4756 92.3434 28.214 92.1149 28.0297C91.8864 27.8454 91.5983 27.7513 91.305 27.7651C90.725 27.7651 90.305 28.0751 90.305 28.4751C90.305 28.8751 90.435 28.9651 90.875 29.0651L92.345 29.3851C93.575 29.6551 94.285 30.3151 94.285 31.3851C94.285 32.8851 92.945 33.6551 91.375 33.6551C89.805 33.6551 88.465 32.9051 88.275 31.5351L90.065 31.1851C90.1345 31.4949 90.3157 31.7681 90.574 31.9526C90.8323 32.1371 91.1495 32.2199 91.465 32.1851C92.125 32.1851 92.515 31.8851 92.515 31.4551C92.515 31.0251 92.365 30.9451 91.855 30.8351L90.375 30.5251C89.375 30.2951 88.475 29.7651 88.475 28.5251C88.475 27.2851 89.615 26.3151 91.275 26.3151C91.9452 26.2315 92.6225 26.4002 93.1751 26.7883C93.7278 27.1765 94.1163 27.7564 94.265 28.4151Z" fill="#62C7F1"/>
</svg>
