<svg width="220" height="80" viewBox="0 0 220 80" fill="none" xmlns="http://www.w3.org/2000/svg">
<rect width="220" height="80" rx="4" fill="#61C7F1" fill-opacity="0.8"/>
<path d="M39.4738 48.0781H27.6838V32.2831H31.6213V44.6806H39.4738V48.0781Z" fill="white"/>
<path d="M58.4862 40.203C58.4553 39.3203 58.1654 38.4663 57.6525 37.7473C57.1396 37.0283 56.4265 36.476 55.602 36.1595C54.7775 35.8429 53.8781 35.776 53.0158 35.967C52.1535 36.158 51.3665 36.5985 50.7528 37.2337C50.1392 37.8688 49.7259 38.6705 49.5647 39.5389C49.4034 40.4072 49.5012 41.3038 49.846 42.1169C50.1907 42.9301 50.7671 43.6238 51.5033 44.1117C52.2396 44.5995 53.1031 44.86 53.9862 44.8605C54.5907 44.8609 55.189 44.7395 55.7455 44.5035C56.302 44.2676 56.8053 43.922 57.2253 43.4873C57.6453 43.0526 57.9734 42.5377 58.19 41.9734C58.4067 41.4092 58.5074 40.8071 58.4862 40.203ZM62.4013 40.203C62.4461 41.8949 61.985 43.5618 61.0771 44.9902C60.1692 46.4186 58.8557 47.5436 57.3047 48.2214C55.7538 48.8991 54.036 49.0986 52.371 48.7945C50.706 48.4904 49.1696 47.6964 47.9584 46.5141C46.7472 45.3318 45.9163 43.8151 45.572 42.1579C45.2277 40.5008 45.3858 38.7785 46.0258 37.2117C46.6659 35.6448 47.7589 34.3046 49.165 33.3624C50.571 32.4203 52.2262 31.9191 53.9187 31.923C55.023 31.896 56.1216 32.0902 57.1496 32.4942C58.1777 32.8982 59.1145 33.5038 59.905 34.2754C60.6954 35.047 61.3235 35.9689 61.7522 36.9869C62.1809 38.0049 62.4016 39.0984 62.4013 40.203Z" fill="white"/>
<path d="M85.5763 38.7631C85.6051 39.2427 85.6051 39.7236 85.5763 40.2031C85.6141 41.2937 85.4269 42.3804 85.0261 43.3954C84.6254 44.4104 84.0198 45.332 83.2471 46.1026C82.4744 46.8732 81.5512 47.4762 80.5351 47.8742C79.519 48.2722 78.4318 48.4565 77.3413 48.4156C75.1572 48.4156 73.0626 47.548 71.5182 46.0036C69.9739 44.4593 69.1063 42.3647 69.1063 40.1806C69.1063 37.9965 69.9739 35.9019 71.5182 34.3576C73.0626 32.8132 75.1572 31.9456 77.3413 31.9456C78.9701 31.8197 80.5975 32.2079 81.994 33.0556C83.3906 33.9032 84.4862 35.1675 85.1263 36.6706L81.3463 37.7506C80.9778 37.0201 80.4 36.416 79.6867 36.0152C78.9734 35.6145 78.1568 35.4353 77.3413 35.5006C76.7349 35.5001 76.1346 35.6222 75.5766 35.8595C75.0186 36.0969 74.5142 36.4445 74.0939 36.8816C73.6736 37.3187 73.346 37.8363 73.1308 38.4032C72.9155 38.9701 72.817 39.5747 72.8413 40.1806C72.8127 40.8038 72.914 41.4262 73.1388 42.0082C73.3636 42.5902 73.7068 43.119 74.1469 43.5612C74.587 44.0034 75.1143 44.3493 75.6952 44.5769C76.2761 44.8044 76.898 44.9087 77.5213 44.8831C78.4365 44.9393 79.345 44.6949 80.1086 44.1873C80.8722 43.6796 81.449 42.9363 81.7513 42.0706H76.8688V38.7631H85.5763Z" fill="white"/>
<path d="M96.5787 32.2831H92.6412V48.0556H96.5787V32.2831Z" fill="white"/>
<path d="M116.964 36.4005L113.094 37.1881C112.984 36.5367 112.64 35.9479 112.126 35.5333C111.612 35.1187 110.963 34.9069 110.304 34.9381C108.999 34.9381 108.166 35.6355 108.166 36.5355C108.166 37.4355 108.459 37.638 109.449 37.863L112.756 38.583C115.501 39.1905 117.121 40.6755 117.121 43.083C117.121 46.458 114.106 48.1905 110.551 48.1905C106.996 48.1905 104.004 46.503 103.599 43.4205L107.626 42.633C107.783 43.3299 108.19 43.9447 108.771 44.3599C109.353 44.775 110.066 44.9612 110.776 44.883C112.239 44.883 113.026 44.2081 113.026 43.2406C113.026 42.2731 112.711 42.0931 111.564 41.8456L108.234 41.148C105.984 40.6305 103.936 39.438 103.936 36.648C103.936 33.858 106.501 31.6755 110.236 31.6755C111.744 31.4874 113.268 31.8669 114.511 32.7402C115.755 33.6136 116.629 34.9183 116.964 36.4005Z" fill="white"/>
<path d="M132.016 35.6806V48.0781H128.124V35.6806H122.949V32.2831H137.191V35.6806H132.016Z" fill="white"/>
<path d="M147.744 32.2831H143.806V48.0556H147.744V32.2831Z" fill="white"/>
<path d="M171.234 42.1606C170.891 44.009 169.881 45.667 168.396 46.8201C166.911 47.9731 165.055 48.5409 163.179 48.4156C160.995 48.4156 158.9 47.548 157.356 46.0036C155.811 44.4592 154.944 42.3646 154.944 40.1806C154.944 37.9965 155.811 35.9019 157.356 34.3575C158.9 32.8132 160.995 31.9456 163.179 31.9456C165.017 31.8415 166.833 32.3925 168.304 33.5006C169.774 34.6087 170.804 36.2022 171.211 37.9981L167.341 38.8756C167.187 37.8982 166.676 37.0125 165.908 36.3893C165.139 35.7661 164.167 35.4496 163.179 35.5006C161.991 35.5829 160.878 36.113 160.066 36.9837C159.253 37.8544 158.801 39.0009 158.801 40.1918C158.801 41.3827 159.253 42.5293 160.066 43.4C160.878 44.2708 161.991 44.8007 163.179 44.8831C164.185 44.9168 165.169 44.5806 165.944 43.938C166.72 43.2953 167.233 42.3908 167.386 41.3956L171.234 42.1606Z" fill="white"/>
<path d="M191.056 36.4005L187.186 37.1881C187.077 36.5367 186.733 35.9479 186.218 35.5333C185.704 35.1187 185.056 34.9069 184.396 34.9381C183.091 34.9381 182.146 35.6355 182.146 36.5355C182.146 37.4355 182.439 37.638 183.429 37.863L186.736 38.583C189.504 39.1905 191.101 40.6755 191.101 43.083C191.101 46.458 188.086 48.1905 184.554 48.1905C181.021 48.1905 178.006 46.503 177.579 43.4205L181.606 42.633C181.762 43.3299 182.17 43.9447 182.751 44.3599C183.333 44.775 184.046 44.9612 184.756 44.883C186.241 44.883 187.119 44.2081 187.119 43.2406C187.119 42.2731 186.781 42.0931 185.634 41.8456L182.304 41.148C180.054 40.6305 178.029 39.438 178.029 36.648C178.029 33.858 180.594 31.6755 184.329 31.6755C185.837 31.4874 187.36 31.8669 188.604 32.7402C189.847 33.6136 190.722 34.9183 191.056 36.4005Z" fill="white"/>
</svg>
