<svg width="200" height="78" viewBox="0 0 200 78" fill="none" xmlns="http://www.w3.org/2000/svg">
<rect width="200" height="78" fill="#61C7F1" fill-opacity="0.8"/>
<path d="M29.4738 47.0781H17.6838V31.2831H21.6213V43.6806H29.4738V47.0781Z" fill="white"/>
<path d="M48.4862 39.203C48.4553 38.3203 48.1654 37.4663 47.6525 36.7473C47.1396 36.0283 46.4265 35.476 45.602 35.1595C44.7775 34.8429 43.8781 34.776 43.0158 34.967C42.1535 35.158 41.3665 35.5985 40.7528 36.2337C40.1392 36.8688 39.7259 37.6705 39.5647 38.5389C39.4034 39.4072 39.5012 40.3038 39.846 41.1169C40.1907 41.9301 40.7671 42.6238 41.5033 43.1117C42.2396 43.5995 43.1031 43.86 43.9862 43.8605C44.5907 43.8609 45.189 43.7395 45.7455 43.5035C46.302 43.2676 46.8053 42.922 47.2253 42.4873C47.6453 42.0526 47.9734 41.5377 48.19 40.9734C48.4067 40.4092 48.5074 39.8071 48.4862 39.203ZM52.4013 39.203C52.4461 40.8949 51.985 42.5618 51.0771 43.9902C50.1692 45.4186 48.8557 46.5436 47.3047 47.2214C45.7538 47.8991 44.036 48.0986 42.371 47.7945C40.706 47.4904 39.1696 46.6964 37.9584 45.5141C36.7472 44.3318 35.9163 42.8151 35.572 41.1579C35.2277 39.5008 35.3858 37.7785 36.0258 36.2117C36.6659 34.6448 37.7589 33.3046 39.165 32.3624C40.571 31.4203 42.2262 30.9191 43.9187 30.923C45.023 30.896 46.1216 31.0902 47.1496 31.4942C48.1777 31.8982 49.1145 32.5038 49.905 33.2754C50.6954 34.047 51.3235 34.9689 51.7522 35.9869C52.1809 37.0049 52.4016 38.0984 52.4013 39.203Z" fill="white"/>
<path d="M75.5763 37.7631C75.6051 38.2427 75.6051 38.7236 75.5763 39.2031C75.6141 40.2937 75.4269 41.3804 75.0261 42.3954C74.6254 43.4104 74.0198 44.332 73.2471 45.1026C72.4744 45.8732 71.5512 46.4762 70.5351 46.8742C69.519 47.2722 68.4318 47.4565 67.3413 47.4156C65.1572 47.4156 63.0626 46.548 61.5182 45.0036C59.9739 43.4593 59.1063 41.3647 59.1063 39.1806C59.1063 36.9965 59.9739 34.9019 61.5182 33.3576C63.0626 31.8132 65.1572 30.9456 67.3413 30.9456C68.9701 30.8197 70.5975 31.2079 71.994 32.0556C73.3906 32.9032 74.4862 34.1675 75.1263 35.6706L71.3463 36.7506C70.9778 36.0201 70.4 35.416 69.6867 35.0152C68.9734 34.6145 68.1568 34.4353 67.3413 34.5006C66.7349 34.5001 66.1346 34.6222 65.5766 34.8595C65.0186 35.0969 64.5142 35.4445 64.0939 35.8816C63.6736 36.3187 63.346 36.8363 63.1308 37.4032C62.9155 37.9701 62.817 38.5747 62.8413 39.1806C62.8127 39.8038 62.914 40.4262 63.1388 41.0082C63.3636 41.5902 63.7068 42.119 64.1469 42.5612C64.587 43.0034 65.1143 43.3493 65.6952 43.5769C66.2761 43.8044 66.898 43.9087 67.5213 43.8831C68.4365 43.9393 69.345 43.6949 70.1086 43.1873C70.8722 42.6796 71.449 41.9363 71.7513 41.0706H66.8688V37.7631H75.5763Z" fill="white"/>
<path d="M86.5787 31.2831H82.6412V47.0556H86.5787V31.2831Z" fill="white"/>
<path d="M106.964 35.4005L103.094 36.1881C102.984 35.5367 102.64 34.9479 102.126 34.5333C101.612 34.1187 100.963 33.9069 100.304 33.9381C98.9987 33.9381 98.1663 34.6355 98.1663 35.5355C98.1663 36.4355 98.4588 36.638 99.4488 36.863L102.756 37.583C105.501 38.1905 107.121 39.6755 107.121 42.083C107.121 45.458 104.106 47.1905 100.551 47.1905C96.9962 47.1905 94.0038 45.503 93.5988 42.4205L97.6263 41.633C97.7825 42.3299 98.1902 42.9447 98.7714 43.3599C99.3526 43.775 100.066 43.9612 100.776 43.883C102.239 43.883 103.026 43.2081 103.026 42.2406C103.026 41.2731 102.711 41.0931 101.564 40.8456L98.2337 40.148C95.9837 39.6305 93.9362 38.438 93.9362 35.648C93.9362 32.858 96.5012 30.6755 100.236 30.6755C101.744 30.4874 103.268 30.8669 104.511 31.7402C105.755 32.6136 106.629 33.9183 106.964 35.4005Z" fill="white"/>
<path d="M122.016 34.6806V47.0781H118.124V34.6806H112.949V31.2831H127.191V34.6806H122.016Z" fill="white"/>
<path d="M137.744 31.2831H133.806V47.0556H137.744V31.2831Z" fill="white"/>
<path d="M161.234 41.1606C160.891 43.009 159.881 44.667 158.396 45.8201C156.911 46.9731 155.055 47.5409 153.179 47.4156C150.995 47.4156 148.9 46.548 147.356 45.0036C145.811 43.4592 144.944 41.3646 144.944 39.1806C144.944 36.9965 145.811 34.9019 147.356 33.3575C148.9 31.8132 150.995 30.9456 153.179 30.9456C155.017 30.8415 156.833 31.3925 158.304 32.5006C159.774 33.6087 160.804 35.2022 161.211 36.9981L157.341 37.8756C157.187 36.8982 156.676 36.0125 155.908 35.3893C155.139 34.7661 154.167 34.4496 153.179 34.5006C151.991 34.5829 150.878 35.113 150.066 35.9837C149.253 36.8544 148.801 38.0009 148.801 39.1918C148.801 40.3827 149.253 41.5293 150.066 42.4C150.878 43.2708 151.991 43.8007 153.179 43.8831C154.185 43.9168 155.169 43.5806 155.944 42.938C156.72 42.2953 157.233 41.3908 157.386 40.3956L161.234 41.1606Z" fill="white"/>
<path d="M181.056 35.4005L177.186 36.1881C177.077 35.5367 176.733 34.9479 176.218 34.5333C175.704 34.1187 175.056 33.9069 174.396 33.9381C173.091 33.9381 172.146 34.6355 172.146 35.5355C172.146 36.4355 172.439 36.638 173.429 36.863L176.736 37.583C179.504 38.1905 181.101 39.6755 181.101 42.083C181.101 45.458 178.086 47.1905 174.554 47.1905C171.021 47.1905 168.006 45.503 167.579 42.4205L171.606 41.633C171.762 42.3299 172.17 42.9447 172.751 43.3599C173.333 43.775 174.046 43.9612 174.756 43.883C176.241 43.883 177.119 43.2081 177.119 42.2406C177.119 41.2731 176.781 41.0931 175.634 40.8456L172.304 40.148C170.054 39.6305 168.029 38.438 168.029 35.648C168.029 32.858 170.594 30.6755 174.329 30.6755C175.837 30.4874 177.36 30.8669 178.604 31.7402C179.847 32.6136 180.722 33.9183 181.056 35.4005Z" fill="white"/>
</svg>
