<svg width="118" height="34" viewBox="0 0 118 34" fill="none" xmlns="http://www.w3.org/2000/svg">
<path d="M37.2899 0.110352H30.8899V6.35035H37.2899V0.110352Z" fill="#EE2624"/>
<path d="M30.8899 6.35034V19.7603H37.2899V9.14034L30.8899 6.35034Z" fill="#231F20"/>
<path d="M19.03 0.110352L13.16 12.3704L7.29999 0.110352H0.23999L9.62999 19.7604H16.7L26.09 0.110352H19.03Z" fill="#231F20"/>
<path d="M117.76 19.7604L108.37 0.110352H101.51L92.1199 19.7604H98.9799L104.94 7.28035L107.36 12.3404H102.52L104.88 17.2904H109.73L110.91 19.7604H117.76Z" fill="#231F20"/>
<path d="M82.57 7.03034C82.5674 7.3201 82.5076 7.60649 82.394 7.87307C82.2803 8.13964 82.1152 8.38115 81.908 8.58371C81.7008 8.78628 81.4556 8.94591 81.1865 9.05345C80.9174 9.16098 80.6297 9.2143 80.34 9.21034H76.69V4.85034H80.34C80.6297 4.84637 80.9174 4.89969 81.1865 5.00723C81.4556 5.11476 81.7008 5.2744 81.908 5.47696C82.1152 5.67953 82.2803 5.92103 82.394 6.1876C82.5076 6.45418 82.5674 6.74058 82.57 7.03034ZM88.97 7.03034C88.9596 6.10936 88.7675 5.1995 88.4048 4.35289C88.042 3.50629 87.5158 2.73958 86.8562 2.09673C86.1967 1.45387 85.4167 0.947505 84.5611 0.60664C83.7054 0.265775 82.7909 0.0971233 81.87 0.11034H70.24V19.7503H76.64V9.21034L82.64 19.7503H88.94L85.19 13.1403C86.3097 12.5587 87.249 11.682 87.9064 10.6051C88.5639 9.52822 88.9144 8.29205 88.92 7.03034H88.97Z" fill="#231F20"/>
<path d="M63.8399 0.110352H43.6899V6.35035H50.3299V19.7604H57.1999V6.35035H63.8399V0.110352Z" fill="#231F20"/>
<path d="M38.8599 29.9803C39.4999 29.9803 39.8599 29.6403 39.8599 29.1203C39.8599 28.6003 39.4499 28.2803 38.8599 28.2803H37.1799V29.9803H38.8599ZM39.8599 33.8403L37.6799 31.4203H37.1599V33.8403H35.3999V26.8403H39.0599C39.3855 26.8007 39.7159 26.8307 40.0291 26.9281C40.3424 27.0256 40.6314 27.1883 40.8771 27.4057C41.1228 27.623 41.3196 27.89 41.4545 28.189C41.5895 28.4881 41.6595 28.8123 41.6599 29.1403C41.6704 29.6811 41.4832 30.207 41.1333 30.6195C40.7835 31.0319 40.2951 31.3025 39.7599 31.3803L42.0299 33.8903H39.8799L39.8599 33.8403Z" fill="#EE2624"/>
<path d="M50.5099 33.8504H44.8699V26.8004H50.4699V28.3004H46.6499V29.6204H50.1599V31.0404H46.6499V32.3604H50.4999V33.8504H50.5099Z" fill="#EE2624"/>
<path d="M57.4699 28.3204V33.8504H55.7099V28.3204H53.3699V26.8004H59.8199V28.3204H57.4699Z" fill="#EE2624"/>
<path d="M65.3699 28.7503L64.4599 31.0703H66.2999L65.3699 28.7503ZM67.3699 33.8403L66.8599 32.5603H63.8599L63.3599 33.8403H61.4399L64.4399 26.8403H66.2599L69.2599 33.8403H67.3699Z" fill="#EE2624"/>
<path d="M73.8598 26.8004H72.0798V33.8504H73.8598V26.8004Z" fill="#EE2624"/>
<path d="M82.6 33.8504H77.26V26.8004H79.05V32.3304H82.6V33.8504Z" fill="#EE2624"/>
</svg>
