<svg width="69" height="22" viewBox="0 0 69 22" fill="none" xmlns="http://www.w3.org/2000/svg">
<path d="M64.1012 0.800049H59.8012C58.5012 0.800049 57.5012 1.20005 56.9012 2.50005L48.7012 21.2H54.5012C54.5012 21.2 55.5012 18.7 55.7012 18.1C56.3012 18.1 62.0012 18.1 62.8012 18.1C63.0012 18.8 63.5012 21.1 63.5012 21.1H68.7012L64.1012 0.800049ZM57.3012 13.9C57.8012 12.7 59.5012 8.20005 59.5012 8.20005C59.5012 8.30005 60.0012 7.00005 60.2012 6.30005L60.6012 8.10005C60.6012 8.10005 61.7012 13 61.9012 14H57.3012V13.9Z" fill="#3362AB"/>
<path d="M49.1012 14.5C49.1012 18.7 45.3012 21.5 39.4012 21.5C36.9012 21.5 34.5012 21 33.2012 20.4L34.0012 15.8L34.7012 16.1C36.5012 16.9 37.7012 17.2 39.9012 17.2C41.5012 17.2 43.2012 16.6 43.2012 15.2C43.2012 14.3 42.5012 13.7 40.3012 12.7C38.2012 11.7 35.4012 10.1 35.4012 7.2C35.4012 3.2 39.3012 0.5 44.8012 0.5C46.9012 0.5 48.7012 0.9 49.8012 1.4L49.0012 5.8L48.6012 5.4C47.6012 5 46.3012 4.6 44.4012 4.6C42.3012 4.7 41.3012 5.6 41.3012 6.4C41.3012 7.3 42.5012 8 44.4012 8.9C47.6012 10.4 49.1012 12.1 49.1012 14.5Z" fill="#3362AB"/>
<path d="M0.300781 1.0001L0.400781 0.600098H9.00078C10.2008 0.600098 11.1008 1.0001 11.4008 2.3001L13.3008 11.3001C11.4008 6.5001 7.00078 2.6001 0.300781 1.0001Z" fill="#F9B50B"/>
<path d="M25.4008 0.799951L16.7008 21.1H10.8008L5.80078 4.09995C9.40078 6.39995 12.4008 9.99995 13.5008 12.5L14.1008 14.6L19.5008 0.699951H25.4008V0.799951Z" fill="#3362AB"/>
<path d="M27.7012 0.699951H33.2012L29.7012 21.1H24.2012L27.7012 0.699951Z" fill="#3362AB"/>
</svg>
