<svg width="32" height="32" viewBox="0 0 32 32" fill="none" xmlns="http://www.w3.org/2000/svg">
<path d="M3.72981 30.066C3.74333 30.1707 3.79523 30.2667 3.87545 30.3353C3.95568 30.404 4.05852 30.4404 4.16406 30.4376H9.78906C9.85651 30.4406 9.92368 30.4273 9.98488 30.3988C10.0461 30.3703 10.0995 30.3274 10.1406 30.2739C10.1817 30.2203 10.2093 30.1576 10.221 30.0912C10.2327 30.0247 10.2282 29.9563 10.2078 29.892L9.48819 27.5348L11.7301 26.1188C12.0181 25.9607 12.3554 25.9177 12.6739 25.9985C12.6829 26.0008 12.692 26.0031 12.7012 26.0047L17.383 26.8672C18.6739 27.0982 20.0049 26.9103 21.1814 26.331C21.2 26.3219 21.2179 26.3115 21.2349 26.2998L29.3323 20.7401C29.4242 20.677 29.4885 20.5812 29.5121 20.4722C29.5358 20.3632 29.5169 20.2494 29.4594 20.1538C29.1532 19.6436 28.6619 19.2713 28.0879 19.1143C27.5139 18.9573 26.9015 19.0278 26.3782 19.3111L26.3028 19.3518C25.7134 18.6863 24.7341 18.4378 23.9827 18.8187L23.9729 18.8238L23.6994 18.9711C23.2972 18.6466 22.8063 18.4513 22.2911 18.4108C21.7759 18.3703 21.2605 18.4866 20.8126 18.7443L19.0789 19.6876H16.7664C16.2742 19.6868 15.7884 19.5753 15.345 19.3613L15.0239 19.2058C14.0949 18.7537 13.059 18.5676 12.0307 18.668C11.0024 18.7684 10.022 19.1513 9.198 19.7745C9.18837 19.7818 9.17925 19.7893 9.17012 19.7972L8.39475 20.4876C8.13361 20.7198 7.82838 20.8971 7.49725 21.0088L7.0825 19.6355C7.05582 19.5443 7.00095 19.464 6.92577 19.406C6.8506 19.348 6.75898 19.3153 6.66406 19.3126H2.91406C2.85129 19.315 2.78973 19.3306 2.73332 19.3582C2.67691 19.3858 2.6269 19.4249 2.5865 19.473C2.54543 19.5194 2.51467 19.5739 2.49628 19.6331C2.47789 19.6922 2.47227 19.7546 2.47981 19.816L3.72981 30.066ZM24.3828 19.5973C24.7378 19.4202 25.1766 19.5393 25.4918 19.7896L22.5341 21.3853L22.4425 21.4337C22.3571 21.2168 22.2444 21.0118 22.1073 20.8234L24.3828 19.5973ZM21.2357 19.5098C21.2392 19.5079 21.2427 19.506 21.2461 19.504C21.484 19.3664 21.7519 19.289 22.0265 19.2786C22.3012 19.2682 22.5742 19.325 22.8219 19.4442L21.4531 20.1817C21.2191 20.0179 20.961 19.8917 20.6881 19.8076L21.2357 19.5098ZM8.97656 21.141L9.73819 20.463C10.4335 19.9411 11.2592 19.6212 12.1246 19.5383C12.99 19.4554 13.8615 19.6128 14.6432 19.9932L14.9643 20.149C15.5264 20.4202 16.1423 20.5615 16.7664 20.5626H19.8807C20.2985 20.563 20.7043 20.7026 21.034 20.9592C21.3637 21.2158 21.5986 21.5749 21.7016 21.9798L19.5594 21.8826C18.7335 21.8452 17.9058 21.8834 17.0868 21.9966C16.9732 22.0142 16.8712 22.0756 16.8026 22.1678C16.734 22.2599 16.7044 22.3753 16.7201 22.489C16.7359 22.6028 16.7958 22.7058 16.8868 22.7758C16.9778 22.8458 17.0928 22.8773 17.2068 22.8633C17.9729 22.7574 18.7472 22.7216 19.5199 22.7564L22.1761 22.8766C22.1824 22.8766 22.1893 22.877 22.1959 22.877C22.3119 22.877 22.4232 22.8309 22.5052 22.7489C22.5873 22.6668 22.6334 22.5556 22.6334 22.4395C22.6334 22.4005 22.6321 22.3618 22.6305 22.3231L22.9454 22.1571L26.7936 20.0811C27.0564 19.9387 27.3571 19.8819 27.6538 19.9185C27.9504 19.9551 28.2283 20.0833 28.4486 20.2853L20.7658 25.5603C19.7647 26.0461 18.6354 26.2023 17.54 26.0065L12.8725 25.147C12.3378 25.0158 11.7732 25.0926 11.2931 25.362C11.2863 25.3659 11.2794 25.3699 11.2729 25.3741L9.22287 26.67L7.75225 21.8463C8.2043 21.6975 8.62101 21.4575 8.97656 21.1411V21.141ZM6.34006 20.1876L9.19831 29.5626H4.55144L3.40812 20.1876H6.34006Z" fill="#3C3C3C"/>
<path d="M6.68164 29.4201C6.91651 29.4201 7.1461 29.3504 7.34138 29.2199C7.53666 29.0894 7.68887 28.904 7.77875 28.687C7.86863 28.47 7.89214 28.2312 7.84632 28.0009C7.8005 27.7705 7.6874 27.5589 7.52133 27.3929C7.35526 27.2268 7.14366 27.1137 6.91331 27.0679C6.68296 27.022 6.44419 27.0456 6.2272 27.1354C6.01022 27.2253 5.82475 27.3775 5.69427 27.5728C5.56379 27.7681 5.49414 27.9977 5.49414 28.2325C5.4945 28.5474 5.61973 28.8492 5.84235 29.0718C6.06497 29.2945 6.36681 29.4197 6.68164 29.4201ZM6.68164 27.92C6.74345 27.92 6.80387 27.9384 6.85526 27.9727C6.90665 28.0071 6.9467 28.0559 6.97035 28.113C6.99401 28.1701 7.00019 28.2329 6.98814 28.2935C6.97608 28.3541 6.94632 28.4098 6.90261 28.4535C6.85891 28.4972 6.80323 28.527 6.74261 28.539C6.68199 28.5511 6.61915 28.5449 6.56205 28.5213C6.50495 28.4976 6.45614 28.4576 6.42181 28.4062C6.38747 28.3548 6.36914 28.2944 6.36914 28.2325C6.36924 28.1497 6.4022 28.0703 6.46078 28.0117C6.51936 27.9531 6.59879 27.9201 6.68164 27.92Z" fill="#3C3C3C"/>
<path d="M9.083 10.3027L10.2701 10.4172C10.4049 10.906 10.6024 11.3753 10.8576 11.8135L10.1037 12.7239C10.0341 12.8078 9.99838 12.9147 10.0035 13.0235C10.0086 13.1324 10.0541 13.2355 10.1313 13.3125L11.5549 14.7362C11.6319 14.8132 11.7349 14.8588 11.8437 14.8639C11.9526 14.869 12.0594 14.8333 12.1433 14.7638L13.0558 14.0079C13.4936 14.2624 13.9619 14.4604 14.4496 14.597L14.564 15.7883C14.5744 15.897 14.6247 15.998 14.7052 16.0718C14.7858 16.1455 14.8908 16.1868 15 16.1875H17.0184C17.1275 16.1867 17.2325 16.1453 17.3129 16.0715C17.3934 15.9977 17.4436 15.8967 17.4539 15.788L17.5683 14.599C18.0571 14.4639 18.5265 14.2661 18.9646 14.0106L19.875 14.764C19.9589 14.8335 20.0658 14.8691 20.1746 14.864C20.2834 14.8588 20.3864 14.8132 20.4634 14.7362L21.8868 13.3125C21.9639 13.2355 22.0094 13.1325 22.0146 13.0237C22.0197 12.9148 21.984 12.808 21.9145 12.724L21.1583 11.8112C21.4129 11.3732 21.6109 10.9048 21.7475 10.417L22.9172 10.3028C23.0254 10.2922 23.1258 10.2418 23.1988 10.1613C23.2718 10.0808 23.3123 9.97603 23.3123 9.86736V7.84892C23.3123 7.74016 23.2717 7.63529 23.1986 7.55477C23.1255 7.47425 23.025 7.42386 22.9167 7.41342L21.7296 7.29904C21.5948 6.81021 21.3974 6.34088 21.1421 5.90273L21.8961 4.99229C21.9652 4.90876 22.0009 4.80252 21.9962 4.69417C21.9914 4.58583 21.9466 4.4831 21.8704 4.40592L20.4651 2.98223C20.3883 2.90443 20.285 2.85825 20.1758 2.85278C20.0666 2.84731 19.9593 2.88294 19.875 2.95267L18.9625 3.70892C18.5247 3.45438 18.0564 3.25643 17.5688 3.11979L17.4543 1.94542C17.4433 1.83834 17.3923 1.73938 17.3114 1.66837C17.2305 1.59736 17.1258 1.55955 17.0182 1.56254H15C14.8926 1.55971 14.788 1.59754 14.7073 1.66847C14.6265 1.7394 14.5755 1.8382 14.5645 1.94511L14.45 3.12567C13.9613 3.25933 13.492 3.45569 13.0538 3.70986L12.1433 2.95429C12.0594 2.8847 11.9527 2.84887 11.8438 2.85383C11.735 2.85879 11.6319 2.90417 11.5548 2.98111L10.1313 4.40429C10.0543 4.48131 10.0088 4.58427 10.0037 4.69304C9.99857 4.80182 10.0342 4.90859 10.1036 4.99248L10.8599 5.90498C10.6053 6.34277 10.4074 6.8111 10.2708 7.29873L9.08325 7.41317C8.9749 7.42356 8.87431 7.47396 8.80113 7.55454C8.72795 7.63511 8.68744 7.74007 8.6875 7.84892V9.86723C8.68749 9.976 8.728 10.0809 8.80112 10.1614C8.87425 10.2419 8.97474 10.2923 9.083 10.3027ZM9.5625 8.24629L10.6625 8.14005C10.7548 8.13113 10.8419 8.0931 10.9112 8.03145C10.9805 7.96979 11.0285 7.88771 11.0481 7.79704C11.1824 7.19412 11.4247 6.62047 11.7633 6.10379C11.8137 6.02567 11.8379 5.93351 11.8324 5.84069C11.8269 5.74788 11.7919 5.65923 11.7326 5.58761L11.0316 4.74098L11.8919 3.88061L12.7384 4.58167C12.8109 4.64171 12.9008 4.67678 12.9948 4.68166C13.0888 4.68655 13.1819 4.661 13.2602 4.60879C13.7738 4.26896 14.3462 4.02773 14.9481 3.89742C15.0379 3.88064 15.1197 3.83528 15.1816 3.76812C15.2434 3.70096 15.2818 3.6156 15.2911 3.52479L15.3974 2.43729H16.6211L16.7274 3.52479C16.7365 3.61637 16.7747 3.70261 16.8364 3.77085C16.8982 3.83909 16.9802 3.88573 17.0704 3.90392C17.6733 4.03694 18.2471 4.27806 18.7641 4.61561C18.8424 4.6658 18.9347 4.68973 19.0275 4.68392C19.1204 4.67811 19.2089 4.64286 19.2804 4.58329L20.1249 3.88329L20.9709 4.73954L20.2674 5.58754C20.2074 5.66003 20.1724 5.74992 20.1675 5.84388C20.1626 5.93785 20.1882 6.03088 20.2404 6.10917C20.5802 6.62278 20.8214 7.19516 20.9517 7.79704C20.9713 7.88771 21.0192 7.96979 21.0885 8.03145C21.1578 8.0931 21.2449 8.13113 21.3372 8.14005L22.4373 8.24629V9.47036L21.3546 9.57605C21.2623 9.58505 21.1753 9.62311 21.1061 9.68474C21.0369 9.74638 20.989 9.8284 20.9694 9.91898C20.8353 10.5221 20.593 11.0959 20.2545 11.6127C20.2041 11.6909 20.1799 11.783 20.1854 11.8759C20.1909 11.9687 20.2258 12.0574 20.2851 12.129L20.9865 12.975L20.1261 13.8354L19.2796 13.1344C19.2071 13.0743 19.1172 13.0393 19.0232 13.0344C18.9292 13.0295 18.8361 13.055 18.7578 13.1072C18.2442 13.4471 17.6718 13.6884 17.0699 13.8188C16.9789 13.8393 16.8968 13.888 16.8352 13.9579C16.7736 14.0279 16.7357 14.1156 16.7269 14.2084L16.6209 15.3125H15.3971L15.2909 14.2084C15.282 14.1158 15.244 14.0285 15.1824 13.9588C15.1208 13.8892 15.0387 13.8409 14.9479 13.8209C14.3449 13.6863 13.7711 13.4437 13.2544 13.105C13.1763 13.0545 13.0842 13.0302 12.9914 13.0356C12.8985 13.0411 12.8099 13.0759 12.7382 13.1352L11.8917 13.836L11.0316 12.975L11.7326 12.1285C11.7927 12.056 11.8277 11.9661 11.8326 11.8721C11.8374 11.778 11.8119 11.685 11.7596 11.6067C11.4199 11.0931 11.1786 10.5207 11.0483 9.9188C11.0287 9.82813 10.9808 9.74605 10.9115 9.6844C10.8422 9.62274 10.7551 9.58471 10.6628 9.5758L9.56275 9.46954L9.5625 8.24629Z" fill="#3C3C3C"/>
<path d="M16.0078 13.2251C16.8716 13.2251 17.7159 12.969 18.4341 12.4891C19.1523 12.0092 19.712 11.3272 20.0426 10.5292C20.3731 9.73115 20.4596 8.85305 20.2911 8.0059C20.1226 7.15874 19.7066 6.38058 19.0959 5.76982C18.4851 5.15906 17.7069 4.74313 16.8598 4.57463C16.0126 4.40613 15.1345 4.49262 14.3365 4.82318C13.5385 5.15373 12.8565 5.71349 12.3766 6.43168C11.8967 7.14987 11.6406 7.99423 11.6406 8.85798C11.6419 10.0158 12.1025 11.1259 12.9212 11.9446C13.7399 12.7633 14.85 13.2238 16.0078 13.2251ZM16.0078 5.36579C16.6985 5.36579 17.3737 5.5706 17.948 5.95433C18.5223 6.33805 18.9699 6.88346 19.2342 7.52157C19.4985 8.15969 19.5676 8.86185 19.4329 9.53927C19.2982 10.2167 18.9656 10.8389 18.4772 11.3273C17.9888 11.8157 17.3665 12.1483 16.6891 12.2831C16.0117 12.4178 15.3095 12.3487 14.6714 12.0843C14.0333 11.82 13.4879 11.3724 13.1042 10.7981C12.7204 10.2238 12.5156 9.54867 12.5156 8.85798C12.5167 7.93215 12.885 7.04456 13.5397 6.38992C14.1944 5.73527 15.082 5.36703 16.0078 5.36598V5.36579Z" fill="#3C3C3C"/>
<path d="M15.2283 10.1934C15.31 10.2732 15.4197 10.3178 15.5339 10.3178C15.6481 10.3178 15.7578 10.2732 15.8395 10.1934L17.9336 8.14883C17.9752 8.10882 18.0085 8.06096 18.0315 8.00803C18.0546 7.95509 18.0669 7.89812 18.0678 7.8404C18.0687 7.78268 18.0582 7.72535 18.0369 7.67172C18.0155 7.61808 17.9838 7.5692 17.9434 7.52789C17.9031 7.48658 17.855 7.45366 17.8019 7.43103C17.7488 7.4084 17.6917 7.39649 17.634 7.39601C17.5763 7.39553 17.519 7.40648 17.4656 7.42822C17.4121 7.44996 17.3635 7.48208 17.3224 7.52271L15.5339 9.26877L14.6771 8.43227C14.6361 8.39164 14.5874 8.35953 14.5339 8.33778C14.4805 8.31604 14.4232 8.30509 14.3655 8.30557C14.3078 8.30606 14.2507 8.31796 14.1976 8.34059C14.1445 8.36323 14.0964 8.39615 14.0561 8.43746C14.0157 8.47877 13.984 8.52765 13.9627 8.58128C13.9413 8.63492 13.9308 8.69225 13.9317 8.74997C13.9326 8.80769 13.9449 8.86465 13.968 8.91759C13.991 8.97052 14.0243 9.01838 14.0659 9.05839L15.2283 10.1934Z" fill="#3C3C3C"/>
</svg>
