<svg width="32" height="32" viewBox="0 0 32 32" fill="none" xmlns="http://www.w3.org/2000/svg">
<path d="M28.25 7.5625V3.75H24.4375C24.4375 1.68225 22.7552 0 20.6875 0C18.6198 0 16.9375 1.68225 16.9375 3.75H14.125C6.35125 3.75 0 10.102 0 17.875C0 25.6488 6.352 32 14.125 32C21.8988 32 28.25 25.648 28.25 17.875V15.0625C30.3177 15.0625 32 13.3802 32 11.3125C32 9.24475 30.3177 7.5625 28.25 7.5625ZM13.1875 5.66056V9.99206C14.3179 9.61462 14.5453 9.4375 15.0625 9.4375C16.0964 9.4375 16.9375 10.2786 16.9375 11.3125C16.9375 12.3464 16.0964 13.1875 15.0625 13.1875C14.5446 13.1875 14.3146 13.0093 13.1875 12.6329V16.9375H11.3125C11.3125 14.8698 9.63025 13.1875 7.5625 13.1875C5.49475 13.1875 3.8125 14.8698 3.8125 16.9375H1.91056C2.36744 10.9286 7.17863 6.11744 13.1875 5.66056ZM1.91056 18.8125H6.24219C5.86425 17.6811 5.6875 17.4547 5.6875 16.9375C5.6875 15.9036 6.52863 15.0625 7.5625 15.0625C8.59637 15.0625 9.4375 15.9036 9.4375 16.9375C9.4375 17.4547 9.2605 17.6817 8.88281 18.8125H13.1875V20.6875C11.1198 20.6875 9.4375 22.3698 9.4375 24.4375C9.4375 26.5052 11.1198 28.1875 13.1875 28.1875V30.0894C7.17863 29.6326 2.36744 24.8214 1.91056 18.8125ZM15.0625 30.0894V25.7579C13.9321 26.1354 13.7047 26.3125 13.1875 26.3125C12.1536 26.3125 11.3125 25.4714 11.3125 24.4375C11.3125 23.4036 12.1536 22.5625 13.1875 22.5625C13.7054 22.5625 13.9354 22.7407 15.0625 23.1171V18.8125H16.9375C16.9375 20.8802 18.6198 22.5625 20.6875 22.5625C22.7552 22.5625 24.4375 20.8796 24.4375 18.8119L26.3394 18.8125C25.8826 24.8214 21.0714 29.6326 15.0625 30.0894ZM28.25 13.1875C27.8249 13.1875 27.5028 12.9941 26.375 12.6072V16.9375H22.0078C22.3857 18.0689 22.5625 18.2953 22.5625 18.8125C22.5625 19.8464 21.7214 20.6875 20.6875 20.6875C19.6536 20.6875 18.8125 19.8464 18.8125 18.8125C18.8125 18.2953 18.9895 18.0683 19.3672 16.9375H15.0625V15.0625C17.1302 15.0625 18.8125 13.3802 18.8125 11.3125C18.8125 9.24475 17.1302 7.5625 15.0625 7.5625V5.625H19.3928C19.0103 4.50988 18.8125 4.17487 18.8125 3.75C18.8125 2.71613 19.6536 1.875 20.6875 1.875C21.7214 1.875 22.5625 2.71613 22.5625 3.75C22.5625 4.17525 22.3689 4.49788 21.9822 5.625H26.375V10.0178C27.4901 9.63519 27.8251 9.4375 28.25 9.4375C29.2839 9.4375 30.125 10.2786 30.125 11.3125C30.125 12.3464 29.2839 13.1875 28.25 13.1875Z" fill="#3C3C3C"/>
</svg>
