<svg width="32" height="32" viewBox="0 0 32 32" fill="none" xmlns="http://www.w3.org/2000/svg">
<g clip-path="url(#clip0_2031_11366)">
<path d="M7.03906 3.96729H9.04125C9.30029 3.96729 9.51 3.75757 9.51 3.49854C9.51 3.23975 9.30029 3.02979 9.04125 3.02979H7.03906C6.78027 3.02979 6.57031 3.23975 6.57031 3.49854C6.57031 3.75757 6.78027 3.96729 7.03906 3.96729Z" fill="#3C3C3C"/>
<path d="M21.5879 3.49854C21.5879 3.75757 21.7979 3.96729 22.0566 3.96729H24.0591C24.3179 3.96729 24.5278 3.75757 24.5278 3.49854C24.5278 3.23975 24.3179 3.02979 24.0591 3.02979H22.0566C21.7979 3.02979 21.5879 3.23975 21.5879 3.49854Z" fill="#3C3C3C"/>
<path d="M9.02587 0.89159L9.92871 1.32421C9.99414 1.3557 10.063 1.37059 10.1311 1.37059C10.3057 1.37059 10.4734 1.27245 10.554 1.10424C10.666 0.870838 10.5674 0.590809 10.334 0.478992L9.43115 0.0461309C9.19775 -0.0656855 8.91772 0.0327032 8.8059 0.266346C8.69409 0.499744 8.79247 0.779529 9.02587 0.89159Z" fill="#3C3C3C"/>
<path d="M21.1676 5.67307C20.9339 5.56101 20.6542 5.65965 20.5423 5.89305C20.4303 6.12644 20.5289 6.40648 20.7623 6.51829L21.6649 6.95116C21.7303 6.98241 21.7994 6.9973 21.8673 6.9973C22.0421 6.9973 22.2098 6.89915 22.2904 6.73118C22.4022 6.49778 22.3038 6.21775 22.0702 6.10594L21.1676 5.67307Z" fill="#3C3C3C"/>
<path d="M20.9653 1.3706C21.0332 1.3706 21.1023 1.35571 21.1677 1.32421L22.0703 0.891595C22.3037 0.779535 22.4023 0.49975 22.2903 0.266107C22.1785 0.0327085 21.8984 -0.0656802 21.665 0.0461362L20.7622 0.478998C20.5288 0.590814 20.4304 0.870843 20.5422 1.10424C20.6228 1.27245 20.7905 1.3706 20.9653 1.3706Z" fill="#3C3C3C"/>
<path d="M9.92871 5.67307L9.02587 6.10569C8.79247 6.21775 8.69409 6.49778 8.8059 6.73118C8.88647 6.89915 9.05419 6.9973 9.229 6.9973C9.29687 6.9973 9.36596 6.98241 9.43115 6.95116L10.334 6.51829C10.5674 6.40648 10.666 6.12644 10.554 5.89305C10.4421 5.65965 10.1621 5.56101 9.92871 5.67307Z" fill="#3C3C3C"/>
<path d="M30.297 24.2107L26.8643 22.8379C26.6612 22.7566 26.5296 22.5625 26.5296 22.3436V20.688C27.4503 19.868 28.0316 18.6748 28.0316 17.3482V13.3191C28.3426 12.9705 28.5321 12.5112 28.5321 12.0086V10.5068C28.5321 10.2478 28.3221 10.0381 28.0633 10.0381H22.0562C21.2095 10.0381 20.4861 10.575 20.2078 11.3259C18.9717 10.2148 17.3379 9.5376 15.5486 9.5376C13.7261 9.5376 12.065 10.2402 10.8211 11.3887C9.7554 10.5159 8.42532 10.0381 7.03884 10.0381C3.74415 10.0381 1.06372 12.7185 1.06372 16.0132V22.0203C1.06372 22.2469 1.22559 22.441 1.44849 22.4815L4.51222 23.0384C4.45924 23.1463 4.37111 23.2356 4.25831 23.2879L1.20728 24.6961C0.51172 25.0169 0.0625 25.7193 0.0625 26.4852V29.0284C0.0625 29.2872 0.272217 29.4971 0.531252 29.4971C0.790041 29.4971 1 29.2872 1 29.0284V26.4852C1 26.0836 1.2356 25.7156 1.6001 25.5472L4.0796 24.4029L6.03542 26.2296C6.31667 26.4925 6.67776 26.6238 7.03884 26.6238C7.39968 26.6238 7.76077 26.4923 8.04226 26.2296L9.27566 25.0774L11.4986 25.7127L8.51931 27.067C7.63918 27.4669 7.07058 28.3499 7.07058 29.3165V31.5313C7.07058 31.7901 7.28054 32.0001 7.53933 32.0001C7.79836 32.0001 8.00808 31.7901 8.00808 31.5313V29.3165C8.00808 28.7166 8.36111 28.1685 8.90701 27.9205L10.8877 27.0201L14.2381 29.116C14.6363 29.3651 15.0926 29.4896 15.5486 29.4896C16.0049 29.4896 16.4612 29.3651 16.8592 29.116L20.2098 27.0201L22.1903 27.9205C22.7364 28.1685 23.0894 28.7166 23.0894 29.3165V31.5313C23.0894 31.7901 23.2991 32.0001 23.5582 32.0001C23.817 32.0001 24.0267 31.7901 24.0267 31.5313V29.3165C24.0267 28.3499 23.4581 27.4669 22.5782 27.067L19.5989 25.7127L21.7315 25.1033C22.2928 25.3572 22.9217 25.4925 23.5579 25.4925C24.9256 25.4925 26.2003 24.8668 26.921 23.8702L29.9486 25.0814C30.3431 25.2391 30.598 25.6155 30.598 26.0403V29.0284C30.598 29.2872 30.808 29.4971 31.0667 29.4971C31.3258 29.4971 31.5355 29.2872 31.5355 29.0284V26.0403C31.5355 25.23 31.0494 24.5118 30.297 24.2107ZM22.0562 10.9756H27.5946V12.0086C27.5946 12.5781 27.1312 13.0415 26.5616 13.0415H23.5582C23.2991 13.0415 23.0894 13.2515 23.0894 13.5103C23.0894 13.7691 23.2991 13.979 23.5582 13.979H26.5616C26.7459 13.979 26.9244 13.9529 27.0941 13.9053V17.3482C27.0941 19.2979 25.5079 20.8841 23.5582 20.8841C23.2042 20.8841 22.8582 20.8321 22.525 20.7303V19.0589C22.8426 19.243 23.1944 19.3394 23.5582 19.3394C24.023 19.3394 24.4693 19.1824 24.8485 18.885C25.0521 18.7251 25.088 18.4307 24.9281 18.2268C24.7684 18.0232 24.4737 17.9873 24.2701 18.1472C24.0575 18.3138 23.8114 18.4019 23.5582 18.4019C23.3048 18.4019 23.0587 18.3138 22.846 18.1472C22.7513 18.0728 22.6365 18.0413 22.525 18.0489V16.5137C22.525 14.8841 21.9632 13.3836 21.0235 12.1948C21.0235 12.093 21.0233 12.0125 21.0233 12.0086C21.0233 11.439 21.4866 10.9756 22.0562 10.9756ZM15.5486 10.4751C18.8785 10.4751 21.5875 13.1841 21.5875 16.5137V24.1695L18.6285 25.0149C18.5591 24.8751 18.5203 24.7191 18.5203 24.5572V23.6121C20.0255 22.6351 21.0233 20.9393 21.0233 19.0144V17.4302C21.0233 16.9734 20.6966 16.5745 20.2466 16.482C19.6072 16.3501 18.3724 16.0337 17.2881 15.3948C17.065 15.2634 16.7776 15.3377 16.6463 15.5606C16.5147 15.7837 16.5892 16.0711 16.8121 16.2024C18.0132 16.9102 19.3609 17.2566 20.0577 17.3999C20.0706 17.4026 20.0858 17.4121 20.0858 17.4302V19.0144C20.0858 21.5174 18.0504 23.5538 15.5486 23.5538C13.0469 23.5538 11.0115 21.5174 11.0115 19.0144V17.4302C11.0115 17.4121 11.0269 17.4029 11.0398 17.3999C12.0813 17.1856 14.6419 16.502 15.9239 14.7927C16.0792 14.5855 16.0372 14.2918 15.8301 14.1365C15.6231 13.9812 15.3292 14.0232 15.1739 14.2302C14.8108 14.7141 13.6629 15.9024 10.8509 16.482C10.4009 16.5745 10.0743 16.9734 10.0743 17.4302V19.0144C10.0743 20.9393 11.0721 22.6351 12.5772 23.6121V24.5572C12.5772 24.7191 12.5384 24.8751 12.469 25.0149L9.51004 24.1695V16.5137C9.5098 13.1841 12.2188 10.4751 15.5486 10.4751ZM2.00123 16.0132C2.00123 13.2356 4.261 10.9756 7.03884 10.9756C8.18484 10.9756 9.28445 11.363 10.1739 12.0713C9.50003 12.885 9.00735 13.8535 8.7576 14.9148C7.83743 14.5694 6.70388 14.0144 5.86843 13.179C5.68556 12.9959 5.38869 12.9959 5.20558 13.179C5.02248 13.3618 5.02248 13.6587 5.20558 13.8418C6.03249 14.6687 7.17483 15.3457 8.60354 15.857C8.58328 16.0733 8.57254 16.2923 8.57254 16.5137V20.7015C8.09671 20.9305 7.57156 21.0508 7.03884 21.0508C5.08913 21.0508 3.50294 19.4646 3.50294 17.5149V16.4278C3.50294 16.2857 3.55836 16.1519 3.65895 16.0515L4.36671 15.3435C4.54982 15.1604 4.54982 14.8635 4.36671 14.6804C4.18385 14.4976 3.88698 14.4976 3.70387 14.6804L2.9961 15.3884C2.71827 15.666 2.56544 16.0352 2.56544 16.4278V17.5149C2.56544 19.0686 3.36207 20.4392 4.56789 21.2415V22.0957L2.00123 21.629V16.0132ZM7.40212 25.5445C7.19827 25.7349 6.87917 25.7349 6.67531 25.5445L4.96193 23.9439C5.29958 23.6685 5.50514 23.2513 5.50514 22.8042V21.7176C5.98391 21.8926 6.50026 21.9883 7.03884 21.9883C7.56399 21.9883 8.08352 21.8956 8.57254 21.7176V24.4515L7.40212 25.5445ZM16.3621 28.3211C15.868 28.6302 15.2295 28.6302 14.7354 28.3211L11.9117 26.5548L12.3594 26.3511C13.0611 26.0323 13.5144 25.3282 13.5144 24.5572V24.0989C14.1436 24.3519 14.8301 24.4913 15.5486 24.4913C16.2671 24.4913 16.9537 24.3519 17.5828 24.0989V24.5572C17.5828 25.3282 18.0362 26.0323 18.7379 26.3511L19.1859 26.5548L16.3621 28.3211ZM23.5582 24.555C23.2044 24.555 22.8548 24.502 22.525 24.4024V21.7012C22.8614 21.7808 23.2069 21.8216 23.5582 21.8216C24.2904 21.8216 24.9815 21.6436 25.5924 21.3301V22.3436C25.5924 22.7693 25.7725 23.1602 26.075 23.4329C25.5157 24.1248 24.5741 24.555 23.5582 24.555Z" fill="#3C3C3C"/>
<path d="M25.5605 16.9824C25.8193 16.9824 26.0293 16.7727 26.0293 16.5137V16.0132C26.0293 15.7544 25.8193 15.5444 25.5605 15.5444C25.3018 15.5444 25.0918 15.7544 25.0918 16.0132V16.5137C25.0918 16.7727 25.3018 16.9824 25.5605 16.9824Z" fill="#3C3C3C"/>
<path d="M5.03711 17.4832C5.29614 17.4832 5.50586 17.2732 5.50586 17.0144V16.5137C5.50586 16.2549 5.29614 16.0449 5.03711 16.0449C4.77832 16.0449 4.56836 16.2549 4.56836 16.5137V17.0144C4.56836 17.2732 4.77832 17.4832 5.03711 17.4832Z" fill="#3C3C3C"/>
<path d="M5.7799 19.4085C6.15245 19.6534 6.58751 19.7828 7.03844 19.7828C7.48912 19.7828 7.92443 19.6534 8.29698 19.4085C8.51329 19.2662 8.57359 18.9757 8.43126 18.7594C8.28917 18.5431 7.9984 18.4828 7.78209 18.6251C7.56285 18.7692 7.30577 18.8453 7.03844 18.8453C6.77111 18.8453 6.51378 18.7692 6.29454 18.6251C6.07824 18.483 5.78771 18.5431 5.64538 18.7594C5.50329 18.9757 5.56334 19.2665 5.7799 19.4085Z" fill="#3C3C3C"/>
<path d="M13.1585 20.256C13.0713 20.3849 13.054 20.5487 13.1118 20.6932C13.5501 21.7841 14.5068 22.4889 15.5491 22.4889C16.5916 22.4889 17.5484 21.7841 17.9866 20.6932C18.0444 20.5487 18.0271 20.3849 17.94 20.256C17.8528 20.1271 17.7073 20.0497 17.5515 20.0497H13.5469C13.3911 20.0499 13.2456 20.1271 13.1585 20.256ZM16.7261 20.9874C16.4099 21.3456 15.9944 21.5516 15.5491 21.5516C15.1038 21.5516 14.6882 21.3456 14.3721 20.9874H16.7261Z" fill="#3C3C3C"/>
<path d="M13.6085 18.1814C13.6793 18.3689 13.8576 18.4844 14.047 18.4844C14.102 18.4844 14.1581 18.4746 14.2128 18.4539C14.455 18.3623 14.5768 18.0916 14.4853 17.8496C14.3031 17.3691 13.8253 17.0461 13.296 17.0461C12.7665 17.0461 12.2887 17.3691 12.1066 17.8496C12.015 18.0916 12.1371 18.3623 12.3791 18.4539C12.6212 18.5457 12.8918 18.4236 12.9835 18.1814C13.0207 18.083 13.1317 17.9836 13.296 17.9836C13.4601 17.9836 13.5712 18.083 13.6085 18.1814Z" fill="#3C3C3C"/>
<path d="M16.885 18.4539C17.1272 18.5457 17.3977 18.4236 17.4893 18.1814C17.5266 18.083 17.6377 17.9836 17.8018 17.9836C17.9658 17.9836 18.0772 18.083 18.1143 18.1814C18.1853 18.3689 18.3635 18.4844 18.5528 18.4844C18.6079 18.4844 18.6641 18.4746 18.7188 18.4539C18.9607 18.3623 19.0828 18.0916 18.991 17.8496C18.8091 17.3691 18.3313 17.0461 17.8018 17.0461C17.2725 17.0461 16.7945 17.3691 16.6126 17.8496C16.5208 18.0916 16.6429 18.3623 16.885 18.4539Z" fill="#3C3C3C"/>
<path d="M10.7114 3.83008L15.2168 8.3352C15.3081 8.42675 15.4282 8.47265 15.5481 8.47265C15.668 8.47265 15.7881 8.42675 15.8797 8.3352L20.3848 3.83008C20.5537 3.66113 20.5686 3.39233 20.4194 3.20581L18.417 0.702881C18.3281 0.591553 18.1934 0.526855 18.051 0.526855H13.0452C12.9029 0.526855 12.7683 0.591553 12.6792 0.702881L10.677 3.20581C10.5276 3.39233 10.5427 3.66113 10.7114 3.83008ZM13.2561 3.96728L14.3377 6.13061L12.1746 3.96728H13.2561ZM18.9219 3.96728L16.7586 6.13061L17.8401 3.96728H18.9219ZM16.792 3.96728L15.5481 6.45508L14.3042 3.96728H16.792ZM14.521 3.02978L15.5481 1.74609L16.5752 3.02978H14.521ZM19.0781 3.02978H17.7759L16.5235 1.46436H17.8259L19.0781 3.02978ZM13.2705 1.4646H14.5728L13.3206 3.03003H12.0181L13.2705 1.4646Z" fill="#3C3C3C"/>
</g>
<defs>
<clipPath id="clip0_2031_11366">
<rect width="32" height="32" fill="white"/>
</clipPath>
</defs>
</svg>
