<svg width="32" height="32" viewBox="0 0 32 32" fill="none" xmlns="http://www.w3.org/2000/svg">
<path d="M13.782 25.466L12.3183 30.1003C12.2746 30.239 12.1463 30.3333 12.0006 30.3333H6.00065C5.89465 30.3333 5.79465 30.2827 5.73165 30.197C5.66865 30.1113 5.65065 30.001 5.68298 29.8997L8.04765 22.4117C8.12798 22.599 8.20132 22.809 8.27365 23.0167C8.51865 23.7213 8.79632 24.5197 9.49898 24.9263C10.192 25.3273 11.0163 25.171 11.7426 25.034C12.2016 24.947 12.676 24.8577 12.9803 24.939C13.2126 25.0007 13.4963 25.223 13.782 25.466ZM23.9536 22.4113C23.8733 22.5987 23.7996 22.809 23.7273 23.017C23.4823 23.7213 23.2046 24.52 22.5023 24.9263C21.8093 25.3273 20.985 25.1717 20.2586 25.034C19.799 24.947 19.3246 24.8583 19.021 24.9387C18.7886 25.001 18.505 25.223 18.2193 25.466L19.6826 30.1003C19.7266 30.239 19.855 30.3333 20.0006 30.3333H26.0006C26.1066 30.3333 26.2066 30.2827 26.2696 30.197C26.3326 30.1113 26.3506 30.001 26.3183 29.8997L23.9536 22.4113ZM23.0006 13.6667C23.0006 17.5263 19.8603 20.6667 16.0006 20.6667C12.141 20.6667 9.00065 17.5263 9.00065 13.6667C9.00065 9.807 12.141 6.66667 16.0006 6.66667C19.8603 6.66667 23.0006 9.807 23.0006 13.6667ZM20.3166 12.2833C20.277 12.165 20.1743 12.0787 20.051 12.0597L17.4626 11.664L16.3023 9.19167C16.2473 9.075 16.13 9 16.0006 9C15.8713 9 15.754 9.075 15.699 9.19167L14.5386 11.664L11.9503 12.0597C11.827 12.0787 11.7243 12.1647 11.6846 12.2833C11.645 12.402 11.675 12.5323 11.762 12.622L13.635 14.5417L13.009 17.2587C12.98 17.385 13.027 17.5167 13.129 17.5967C13.231 17.6763 13.3706 17.6897 13.4856 17.6303L16.0006 16.3413L18.5153 17.6297C18.563 17.6547 18.6156 17.6667 18.6673 17.6667C18.7403 17.6667 18.8126 17.643 18.872 17.5963C18.9743 17.5167 19.021 17.3847 18.992 17.2583L18.366 14.5413L20.239 12.6217C20.3266 12.5323 20.3563 12.4017 20.3166 12.2833ZM25.9843 16.3437C25.8246 16.9403 25.943 17.5667 26.0576 18.1727C26.152 18.671 26.259 19.2363 26.106 19.5007C25.9476 19.774 25.398 19.9657 24.9126 20.134C24.336 20.3347 23.739 20.542 23.3083 20.9727C22.8763 21.405 22.669 22.0017 22.4683 22.5787C22.2993 23.064 22.1083 23.6133 21.8353 23.7717C21.802 23.7907 21.7023 23.8483 21.4433 23.8483C21.1683 23.8483 20.8323 23.785 20.5073 23.7233C20.1346 23.6527 19.713 23.573 19.3076 23.573C19.0783 23.573 18.8726 23.598 18.68 23.649C18.101 23.8043 17.6296 24.2117 17.1736 24.606C16.76 24.964 16.333 25.3333 16.0006 25.3333C15.6676 25.3333 15.2406 24.964 14.8273 24.606C14.3713 24.2117 13.8996 23.804 13.3233 23.6503C13.13 23.5987 12.923 23.5737 12.6916 23.5737C12.2876 23.5737 11.866 23.6533 11.494 23.724C11.1673 23.7857 10.8313 23.849 10.5566 23.849C10.2986 23.849 10.1986 23.791 10.166 23.7723C9.89231 23.6137 9.70065 23.064 9.53231 22.5787C9.33165 22.002 9.12432 21.405 8.69365 20.9743C8.26132 20.5423 7.66465 20.335 7.08765 20.1343C6.60232 19.9653 6.05298 19.7743 5.89465 19.5013C5.74198 19.237 5.84865 18.6723 5.94298 18.1737C6.05798 17.5643 6.17565 16.9397 6.01665 16.344C5.86232 15.7677 5.45465 15.296 5.06065 14.8403C4.70332 14.426 4.33398 13.999 4.33398 13.6667C4.33398 13.3337 4.70332 12.9067 5.06132 12.4933C5.45565 12.0373 5.86332 11.5657 6.01698 10.9893C6.17665 10.3927 6.05832 9.76633 5.94365 9.16033C5.84932 8.662 5.74232 8.09666 5.89532 7.83233C6.05365 7.559 6.60332 7.36733 7.08865 7.199C7.66532 6.99833 8.26232 6.791 8.69298 6.36033C9.12498 5.928 9.33232 5.33133 9.53298 4.75433C9.70198 4.269 9.89298 3.71967 10.166 3.56133C10.1993 3.54233 10.2993 3.48433 10.5583 3.48433C10.834 3.48433 11.1693 3.548 11.4936 3.60967C11.8656 3.68 12.2863 3.75967 12.6936 3.75967C12.9223 3.75967 13.1263 3.73533 13.3183 3.68467C13.9003 3.52867 14.3716 3.12133 14.8273 2.727C15.2413 2.36933 15.6683 2 16.0006 2C16.3336 2 16.7606 2.36933 17.174 2.72733C17.63 3.12167 18.1016 3.52933 18.678 3.683C18.871 3.73433 19.0773 3.75967 19.3086 3.75967C19.711 3.75967 20.1336 3.68 20.5063 3.60967C20.8326 3.54767 21.1693 3.48433 21.444 3.48433C21.702 3.48433 21.8023 3.54233 21.835 3.561C22.1086 3.71967 22.3003 4.26933 22.4686 4.75467C22.6693 5.33133 22.8766 5.92833 23.3073 6.359C23.7396 6.791 24.3363 6.99833 24.9133 7.199C25.3986 7.368 25.948 7.559 26.1063 7.832C26.259 8.09633 26.1523 8.661 26.058 9.15967C25.943 9.769 25.8253 10.3937 25.9843 10.9893C26.1386 11.5657 26.5463 12.0373 26.9403 12.493C27.298 12.9073 27.6673 13.3343 27.6673 13.6667C27.6673 13.9997 27.298 14.4267 26.94 14.84C26.546 15.296 26.138 15.7677 25.9843 16.3437ZM24.334 13.6667C24.334 9.07166 20.5956 5.33333 16.0006 5.33333C11.4056 5.33333 7.66732 9.07166 7.66732 13.6667C7.66732 18.2617 11.4056 22 16.0006 22C20.5956 22 24.334 18.2617 24.334 13.6667Z" fill="#3C3C3C"/>
</svg>
