<svg width="186" height="186" viewBox="0 0 186 186" fill="none" xmlns="http://www.w3.org/2000/svg">
<path d="M7.44 0H0V7.44H7.44V0Z" fill="black"/>
<path d="M14.88 0H7.44V7.44H14.88V0Z" fill="black"/>
<path d="M22.32 0H14.88V7.44H22.32V0Z" fill="black"/>
<path d="M29.76 0H22.32V7.44H29.76V0Z" fill="black"/>
<path d="M37.2 0H29.76V7.44H37.2V0Z" fill="black"/>
<path d="M44.64 0H37.2V7.44H44.64V0Z" fill="black"/>
<path d="M52.08 0H44.64V7.44H52.08V0Z" fill="black"/>
<path d="M66.96 0H59.52V7.44H66.96V0Z" fill="black"/>
<path d="M74.4 0H66.96V7.44H74.4V0Z" fill="black"/>
<path d="M104.16 0H96.72V7.44H104.16V0Z" fill="black"/>
<path d="M126.48 0H119.04V7.44H126.48V0Z" fill="black"/>
<path d="M141.36 0H133.92V7.44H141.36V0Z" fill="black"/>
<path d="M148.8 0H141.36V7.44H148.8V0Z" fill="black"/>
<path d="M156.24 0H148.8V7.44H156.24V0Z" fill="black"/>
<path d="M163.68 0H156.24V7.44H163.68V0Z" fill="black"/>
<path d="M171.12 0H163.68V7.44H171.12V0Z" fill="black"/>
<path d="M178.56 0H171.12V7.44H178.56V0Z" fill="black"/>
<path d="M186 0H178.56V7.44H186V0Z" fill="black"/>
<path d="M7.44 7.44H0V14.88H7.44V7.44Z" fill="black"/>
<path d="M52.08 7.44H44.64L44.64 14.88H52.08V7.44Z" fill="black"/>
<path d="M96.72 7.44H89.28V14.88H96.72V7.44Z" fill="black"/>
<path d="M104.16 7.44H96.72V14.88H104.16V7.44Z" fill="black"/>
<path d="M126.48 7.44H119.04V14.88H126.48V7.44Z" fill="black"/>
<path d="M141.36 7.44H133.92V14.88H141.36V7.44Z" fill="black"/>
<path d="M186 7.44H178.56V14.88H186V7.44Z" fill="black"/>
<path d="M7.44 14.88H0V22.32H7.44V14.88Z" fill="black"/>
<path d="M22.32 14.88H14.88V22.32H22.32V14.88Z" fill="black"/>
<path d="M29.76 14.88H22.32V22.32H29.76V14.88Z" fill="black"/>
<path d="M37.2 14.88H29.76V22.32H37.2V14.88Z" fill="black"/>
<path d="M52.08 14.88H44.64V22.32H52.08V14.88Z" fill="black"/>
<path d="M74.4 14.88H66.96V22.32H74.4V14.88Z" fill="black"/>
<path d="M81.84 14.88H74.4V22.32H81.84V14.88Z" fill="black"/>
<path d="M89.28 14.88H81.84V22.32H89.28V14.88Z" fill="black"/>
<path d="M96.72 14.88H89.28V22.32H96.72V14.88Z" fill="black"/>
<path d="M104.16 14.88H96.72V22.32H104.16V14.88Z" fill="black"/>
<path d="M126.48 14.88H119.04V22.32H126.48V14.88Z" fill="black"/>
<path d="M141.36 14.88H133.92V22.32H141.36V14.88Z" fill="black"/>
<path d="M156.24 14.88H148.8V22.32H156.24V14.88Z" fill="black"/>
<path d="M163.68 14.88H156.24V22.32H163.68V14.88Z" fill="black"/>
<path d="M171.12 14.88H163.68V22.32H171.12V14.88Z" fill="black"/>
<path d="M186 14.88H178.56V22.32H186V14.88Z" fill="black"/>
<path d="M7.44 22.32H0V29.76H7.44V22.32Z" fill="black"/>
<path d="M22.32 22.32H14.88V29.76H22.32V22.32Z" fill="black"/>
<path d="M29.76 22.32H22.32V29.76H29.76V22.32Z" fill="black"/>
<path d="M37.2 22.32H29.76V29.76H37.2V22.32Z" fill="black"/>
<path d="M52.08 22.32H44.64V29.76H52.08V22.32Z" fill="black"/>
<path d="M74.4 22.32H66.96V29.76H74.4V22.32Z" fill="black"/>
<path d="M81.84 22.32H74.4V29.76H81.84V22.32Z" fill="black"/>
<path d="M104.16 22.32H96.72V29.76H104.16V22.32Z" fill="black"/>
<path d="M141.36 22.32H133.92V29.76H141.36V22.32Z" fill="black"/>
<path d="M156.24 22.32H148.8V29.76H156.24V22.32Z" fill="black"/>
<path d="M163.68 22.32H156.24V29.76H163.68V22.32Z" fill="black"/>
<path d="M171.12 22.32H163.68V29.76H171.12V22.32Z" fill="black"/>
<path d="M186 22.32H178.56V29.76H186V22.32Z" fill="black"/>
<path d="M7.44 29.76H0V37.2H7.44V29.76Z" fill="black"/>
<path d="M22.32 29.76H14.88V37.2H22.32V29.76Z" fill="black"/>
<path d="M29.76 29.76H22.32V37.2H29.76V29.76Z" fill="black"/>
<path d="M37.2 29.76H29.76V37.2H37.2V29.76Z" fill="black"/>
<path d="M52.08 29.76H44.64V37.2H52.08V29.76Z" fill="black"/>
<path d="M66.96 29.76H59.52V37.2H66.96V29.76Z" fill="black"/>
<path d="M81.84 29.76H74.4V37.2H81.84V29.76Z" fill="black"/>
<path d="M89.28 29.76H81.84V37.2H89.28V29.76Z" fill="black"/>
<path d="M96.72 29.76H89.28V37.2H96.72V29.76Z" fill="black"/>
<path d="M111.6 29.76H104.16V37.2H111.6V29.76Z" fill="black"/>
<path d="M141.36 29.76H133.92V37.2H141.36V29.76Z" fill="black"/>
<path d="M156.24 29.76H148.8V37.2H156.24V29.76Z" fill="black"/>
<path d="M163.68 29.76H156.24V37.2H163.68V29.76Z" fill="black"/>
<path d="M171.12 29.76H163.68V37.2H171.12V29.76Z" fill="black"/>
<path d="M186 29.76H178.56V37.2H186V29.76Z" fill="black"/>
<path d="M7.44 37.2H0V44.64H7.44V37.2Z" fill="black"/>
<path d="M52.08 37.2H44.64V44.64H52.08V37.2Z" fill="black"/>
<path d="M111.6 37.2H104.16V44.64H111.6V37.2Z" fill="black"/>
<path d="M141.36 37.2H133.92V44.64H141.36V37.2Z" fill="black"/>
<path d="M186 37.2H178.56V44.64H186V37.2Z" fill="black"/>
<path d="M7.44 44.64H0V52.08H7.44V44.64Z" fill="black"/>
<path d="M14.88 44.64L7.44 44.64V52.08H14.88V44.64Z" fill="black"/>
<path d="M22.32 44.64H14.88V52.08H22.32V44.64Z" fill="black"/>
<path d="M29.76 44.64H22.32V52.08H29.76V44.64Z" fill="black"/>
<path d="M37.2 44.64H29.76V52.08H37.2V44.64Z" fill="black"/>
<path d="M44.64 44.64L37.2 44.64V52.08H44.64L44.64 44.64Z" fill="black"/>
<path d="M52.08 44.64H44.64L44.64 52.08H52.08V44.64Z" fill="black"/>
<path d="M66.96 44.64H59.52V52.08H66.96V44.64Z" fill="black"/>
<path d="M81.84 44.64H74.4V52.08H81.84V44.64Z" fill="black"/>
<path d="M96.72 44.64H89.28V52.08H96.72V44.64Z" fill="black"/>
<path d="M111.6 44.64H104.16V52.08H111.6V44.64Z" fill="black"/>
<path d="M126.48 44.64H119.04V52.08H126.48V44.64Z" fill="black"/>
<path d="M141.36 44.64H133.92V52.08H141.36V44.64Z" fill="black"/>
<path d="M148.8 44.64L141.36 44.64V52.08H148.8V44.64Z" fill="black"/>
<path d="M156.24 44.64H148.8V52.08H156.24V44.64Z" fill="black"/>
<path d="M163.68 44.64H156.24V52.08H163.68V44.64Z" fill="black"/>
<path d="M171.12 44.64H163.68V52.08H171.12V44.64Z" fill="black"/>
<path d="M178.56 44.64L171.12 44.64V52.08H178.56V44.64Z" fill="black"/>
<path d="M186 44.64H178.56V52.08H186V44.64Z" fill="black"/>
<path d="M66.96 52.08H59.52V59.52H66.96V52.08Z" fill="black"/>
<path d="M81.84 52.08H74.4V59.52H81.84V52.08Z" fill="black"/>
<path d="M96.72 52.08H89.28V59.52H96.72V52.08Z" fill="black"/>
<path d="M104.16 52.08H96.72V59.52H104.16V52.08Z" fill="black"/>
<path d="M119.04 52.08H111.6L111.6 59.52H119.04V52.08Z" fill="black"/>
<path d="M126.48 52.08H119.04V59.52H126.48V52.08Z" fill="black"/>
<path d="M7.44 59.52H0V66.96H7.44V59.52Z" fill="black"/>
<path d="M29.76 59.52H22.32V66.96H29.76V59.52Z" fill="black"/>
<path d="M37.2 59.52H29.76V66.96H37.2V59.52Z" fill="black"/>
<path d="M44.64 59.52H37.2V66.96H44.64V59.52Z" fill="black"/>
<path d="M52.08 59.52H44.64V66.96H52.08V59.52Z" fill="black"/>
<path d="M59.52 59.52H52.08V66.96H59.52V59.52Z" fill="black"/>
<path d="M66.96 59.52H59.52V66.96H66.96V59.52Z" fill="black"/>
<path d="M74.4 59.52H66.96V66.96H74.4V59.52Z" fill="black"/>
<path d="M104.16 59.52H96.72V66.96H104.16V59.52Z" fill="black"/>
<path d="M126.48 59.52H119.04V66.96H126.48V59.52Z" fill="black"/>
<path d="M133.92 59.52H126.48V66.96H133.92V59.52Z" fill="black"/>
<path d="M141.36 59.52H133.92V66.96H141.36V59.52Z" fill="black"/>
<path d="M156.24 59.52H148.8V66.96H156.24V59.52Z" fill="black"/>
<path d="M186 59.52H178.56V66.96H186V59.52Z" fill="black"/>
<path d="M14.88 66.96H7.44V74.4H14.88V66.96Z" fill="black"/>
<path d="M29.76 66.96H22.32V74.4H29.76V66.96Z" fill="black"/>
<path d="M37.2 66.96H29.76V74.4H37.2V66.96Z" fill="black"/>
<path d="M59.52 66.96H52.08V74.4H59.52V66.96Z" fill="black"/>
<path d="M66.96 66.96H59.52V74.4H66.96V66.96Z" fill="black"/>
<path d="M96.72 66.96H89.28V74.4H96.72V66.96Z" fill="black"/>
<path d="M119.04 66.96H111.6V74.4H119.04V66.96Z" fill="black"/>
<path d="M133.92 66.96H126.48V74.4H133.92V66.96Z" fill="black"/>
<path d="M141.36 66.96H133.92V74.4H141.36V66.96Z" fill="black"/>
<path d="M156.24 66.96H148.8V74.4H156.24V66.96Z" fill="black"/>
<path d="M163.68 66.96H156.24V74.4H163.68V66.96Z" fill="black"/>
<path d="M171.12 66.96H163.68V74.4H171.12V66.96Z" fill="black"/>
<path d="M178.56 66.96H171.12V74.4H178.56V66.96Z" fill="black"/>
<path d="M186 66.96H178.56V74.4H186V66.96Z" fill="black"/>
<path d="M7.44 74.4H0V81.84H7.44V74.4Z" fill="black"/>
<path d="M14.88 74.4H7.44V81.84H14.88V74.4Z" fill="black"/>
<path d="M29.76 74.4H22.32V81.84H29.76V74.4Z" fill="black"/>
<path d="M37.2 74.4H29.76V81.84H37.2V74.4Z" fill="black"/>
<path d="M44.64 74.4H37.2V81.84H44.64V74.4Z" fill="black"/>
<path d="M52.08 74.4H44.64V81.84H52.08V74.4Z" fill="black"/>
<path d="M59.52 74.4H52.08V81.84H59.52V74.4Z" fill="black"/>
<path d="M74.4 74.4H66.96V81.84H74.4V74.4Z" fill="black"/>
<path d="M89.28 74.4H81.84V81.84H89.28V74.4Z" fill="black"/>
<path d="M96.72 74.4H89.28V81.84H96.72V74.4Z" fill="black"/>
<path d="M111.6 74.4H104.16V81.84H111.6L111.6 74.4Z" fill="black"/>
<path d="M126.48 74.4H119.04V81.84H126.48V74.4Z" fill="black"/>
<path d="M133.92 74.4H126.48V81.84H133.92V74.4Z" fill="black"/>
<path d="M141.36 74.4H133.92V81.84H141.36V74.4Z" fill="black"/>
<path d="M148.8 74.4H141.36V81.84H148.8V74.4Z" fill="black"/>
<path d="M156.24 74.4H148.8V81.84H156.24V74.4Z" fill="black"/>
<path d="M163.68 74.4H156.24V81.84H163.68V74.4Z" fill="black"/>
<path d="M171.12 74.4H163.68V81.84H171.12V74.4Z" fill="black"/>
<path d="M178.56 74.4H171.12V81.84H178.56V74.4Z" fill="black"/>
<path d="M7.44 81.84H0V89.28H7.44V81.84Z" fill="black"/>
<path d="M37.2 81.84H29.76V89.28H37.2V81.84Z" fill="black"/>
<path d="M44.64 81.84H37.2V89.28H44.64V81.84Z" fill="black"/>
<path d="M59.52 81.84H52.08V89.28H59.52V81.84Z" fill="black"/>
<path d="M74.4 81.84H66.96V89.28H74.4V81.84Z" fill="black"/>
<path d="M81.84 81.84H74.4V89.28H81.84V81.84Z" fill="black"/>
<path d="M111.6 81.84H104.16V89.28H111.6V81.84Z" fill="black"/>
<path d="M119.04 81.84H111.6V89.28H119.04V81.84Z" fill="black"/>
<path d="M156.24 81.84H148.8V89.28H156.24V81.84Z" fill="black"/>
<path d="M171.12 81.84H163.68V89.28H171.12V81.84Z" fill="black"/>
<path d="M178.56 81.84H171.12V89.28H178.56V81.84Z" fill="black"/>
<path d="M7.44 89.28H0V96.72H7.44V89.28Z" fill="black"/>
<path d="M29.76 89.28H22.32V96.72H29.76V89.28Z" fill="black"/>
<path d="M37.2 89.28H29.76V96.72H37.2V89.28Z" fill="black"/>
<path d="M44.64 89.28H37.2V96.72H44.64V89.28Z" fill="black"/>
<path d="M52.08 89.28H44.64V96.72H52.08V89.28Z" fill="black"/>
<path d="M59.52 89.28H52.08V96.72H59.52V89.28Z" fill="black"/>
<path d="M66.96 89.28H59.52V96.72H66.96V89.28Z" fill="black"/>
<path d="M81.84 89.28H74.4V96.72H81.84V89.28Z" fill="black"/>
<path d="M89.28 89.28H81.84V96.72H89.28V89.28Z" fill="black"/>
<path d="M104.16 89.28H96.72V96.72H104.16V89.28Z" fill="black"/>
<path d="M111.6 89.28H104.16V96.72H111.6V89.28Z" fill="black"/>
<path d="M126.48 89.28H119.04V96.72H126.48V89.28Z" fill="black"/>
<path d="M148.8 89.28H141.36V96.72H148.8V89.28Z" fill="black"/>
<path d="M163.68 89.28H156.24V96.72H163.68V89.28Z" fill="black"/>
<path d="M171.12 89.28H163.68V96.72H171.12V89.28Z" fill="black"/>
<path d="M186 89.28H178.56V96.72H186V89.28Z" fill="black"/>
<path d="M7.44 96.72H0V104.16H7.44V96.72Z" fill="black"/>
<path d="M14.88 96.72H7.44V104.16H14.88V96.72Z" fill="black"/>
<path d="M59.52 96.72H52.08V104.16H59.52V96.72Z" fill="black"/>
<path d="M66.96 96.72H59.52V104.16H66.96V96.72Z" fill="black"/>
<path d="M74.4 96.72H66.96V104.16H74.4V96.72Z" fill="black"/>
<path d="M96.72 96.72H89.28V104.16H96.72V96.72Z" fill="black"/>
<path d="M111.6 96.72H104.16V104.16H111.6V96.72Z" fill="black"/>
<path d="M119.04 96.72H111.6V104.16H119.04V96.72Z" fill="black"/>
<path d="M126.48 96.72H119.04V104.16H126.48V96.72Z" fill="black"/>
<path d="M133.92 96.72H126.48V104.16H133.92V96.72Z" fill="black"/>
<path d="M156.24 96.72H148.8V104.16H156.24V96.72Z" fill="black"/>
<path d="M171.12 96.72H163.68V104.16H171.12V96.72Z" fill="black"/>
<path d="M178.56 96.72H171.12V104.16H178.56V96.72Z" fill="black"/>
<path d="M186 96.72H178.56V104.16H186V96.72Z" fill="black"/>
<path d="M7.44 104.16H0V111.6H7.44V104.16Z" fill="black"/>
<path d="M14.88 104.16H7.44V111.6H14.88V104.16Z" fill="black"/>
<path d="M22.32 104.16H14.88V111.6H22.32V104.16Z" fill="black"/>
<path d="M52.08 104.16H44.64V111.6H52.08V104.16Z" fill="black"/>
<path d="M74.4 104.16H66.96V111.6H74.4V104.16Z" fill="black"/>
<path d="M89.28 104.16H81.84V111.6H89.28V104.16Z" fill="black"/>
<path d="M96.72 104.16H89.28V111.6H96.72V104.16Z" fill="black"/>
<path d="M111.6 104.16H104.16V111.6H111.6V104.16Z" fill="black"/>
<path d="M133.92 104.16H126.48V111.6H133.92V104.16Z" fill="black"/>
<path d="M148.8 104.16H141.36V111.6H148.8V104.16Z" fill="black"/>
<path d="M156.24 104.16H148.8V111.6H156.24V104.16Z" fill="black"/>
<path d="M171.12 104.16H163.68V111.6H171.12V104.16Z" fill="black"/>
<path d="M14.88 111.6H7.44V119.04H14.88V111.6Z" fill="black"/>
<path d="M59.52 111.6L52.08 111.6V119.04H59.52V111.6Z" fill="black"/>
<path d="M96.72 111.6H89.28V119.04H96.72V111.6Z" fill="black"/>
<path d="M111.6 111.6H104.16V119.04H111.6V111.6Z" fill="black"/>
<path d="M119.04 111.6L111.6 111.6V119.04H119.04V111.6Z" fill="black"/>
<path d="M141.36 111.6H133.92V119.04H141.36V111.6Z" fill="black"/>
<path d="M156.24 111.6H148.8V119.04H156.24V111.6Z" fill="black"/>
<path d="M178.56 111.6L171.12 111.6V119.04H178.56V111.6Z" fill="black"/>
<path d="M7.44 119.04H0V126.48H7.44V119.04Z" fill="black"/>
<path d="M44.64 119.04H37.2V126.48H44.64V119.04Z" fill="black"/>
<path d="M52.08 119.04H44.64V126.48H52.08V119.04Z" fill="black"/>
<path d="M59.52 119.04H52.08V126.48H59.52V119.04Z" fill="black"/>
<path d="M74.4 119.04H66.96V126.48H74.4V119.04Z" fill="black"/>
<path d="M81.84 119.04H74.4V126.48H81.84V119.04Z" fill="black"/>
<path d="M96.72 119.04H89.28V126.48H96.72V119.04Z" fill="black"/>
<path d="M119.04 119.04H111.6L111.6 126.48H119.04V119.04Z" fill="black"/>
<path d="M126.48 119.04H119.04V126.48H126.48V119.04Z" fill="black"/>
<path d="M133.92 119.04H126.48V126.48H133.92V119.04Z" fill="black"/>
<path d="M141.36 119.04H133.92V126.48H141.36V119.04Z" fill="black"/>
<path d="M148.8 119.04H141.36V126.48H148.8V119.04Z" fill="black"/>
<path d="M156.24 119.04H148.8V126.48H156.24V119.04Z" fill="black"/>
<path d="M163.68 119.04H156.24V126.48H163.68V119.04Z" fill="black"/>
<path d="M178.56 119.04H171.12V126.48H178.56V119.04Z" fill="black"/>
<path d="M66.96 126.48H59.52V133.92H66.96V126.48Z" fill="black"/>
<path d="M81.84 126.48H74.4V133.92H81.84V126.48Z" fill="black"/>
<path d="M96.72 126.48H89.28V133.92H96.72V126.48Z" fill="black"/>
<path d="M119.04 126.48H111.6V133.92H119.04V126.48Z" fill="black"/>
<path d="M126.48 126.48H119.04V133.92H126.48V126.48Z" fill="black"/>
<path d="M156.24 126.48H148.8V133.92H156.24V126.48Z" fill="black"/>
<path d="M163.68 126.48H156.24V133.92H163.68V126.48Z" fill="black"/>
<path d="M171.12 126.48H163.68V133.92H171.12V126.48Z" fill="black"/>
<path d="M7.44 133.92H0V141.36H7.44V133.92Z" fill="black"/>
<path d="M14.88 133.92H7.44V141.36H14.88V133.92Z" fill="black"/>
<path d="M22.32 133.92H14.88V141.36H22.32V133.92Z" fill="black"/>
<path d="M29.76 133.92H22.32V141.36H29.76V133.92Z" fill="black"/>
<path d="M37.2 133.92H29.76V141.36H37.2V133.92Z" fill="black"/>
<path d="M44.64 133.92H37.2V141.36H44.64V133.92Z" fill="black"/>
<path d="M52.08 133.92H44.64V141.36H52.08V133.92Z" fill="black"/>
<path d="M66.96 133.92H59.52V141.36H66.96V133.92Z" fill="black"/>
<path d="M96.72 133.92H89.28V141.36H96.72V133.92Z" fill="black"/>
<path d="M119.04 133.92H111.6V141.36H119.04V133.92Z" fill="black"/>
<path d="M126.48 133.92H119.04V141.36H126.48V133.92Z" fill="black"/>
<path d="M141.36 133.92H133.92V141.36H141.36V133.92Z" fill="black"/>
<path d="M156.24 133.92H148.8V141.36H156.24V133.92Z" fill="black"/>
<path d="M163.68 133.92H156.24V141.36H163.68V133.92Z" fill="black"/>
<path d="M171.12 133.92H163.68V141.36H171.12V133.92Z" fill="black"/>
<path d="M186 133.92H178.56V141.36H186V133.92Z" fill="black"/>
<path d="M7.44 141.36H0V148.8H7.44V141.36Z" fill="black"/>
<path d="M52.08 141.36H44.64L44.64 148.8H52.08V141.36Z" fill="black"/>
<path d="M66.96 141.36H59.52V148.8H66.96V141.36Z" fill="black"/>
<path d="M81.84 141.36H74.4V148.8H81.84V141.36Z" fill="black"/>
<path d="M111.6 141.36H104.16V148.8H111.6L111.6 141.36Z" fill="black"/>
<path d="M126.48 141.36H119.04V148.8H126.48V141.36Z" fill="black"/>
<path d="M156.24 141.36H148.8V148.8H156.24V141.36Z" fill="black"/>
<path d="M171.12 141.36H163.68V148.8H171.12V141.36Z" fill="black"/>
<path d="M7.44 148.8H0V156.24H7.44V148.8Z" fill="black"/>
<path d="M22.32 148.8H14.88V156.24H22.32V148.8Z" fill="black"/>
<path d="M29.76 148.8H22.32V156.24H29.76V148.8Z" fill="black"/>
<path d="M37.2 148.8H29.76V156.24H37.2V148.8Z" fill="black"/>
<path d="M52.08 148.8H44.64V156.24H52.08V148.8Z" fill="black"/>
<path d="M66.96 148.8H59.52V156.24H66.96V148.8Z" fill="black"/>
<path d="M74.4 148.8H66.96V156.24H74.4V148.8Z" fill="black"/>
<path d="M81.84 148.8H74.4V156.24H81.84V148.8Z" fill="black"/>
<path d="M104.16 148.8H96.72V156.24H104.16V148.8Z" fill="black"/>
<path d="M111.6 148.8H104.16V156.24H111.6V148.8Z" fill="black"/>
<path d="M126.48 148.8H119.04V156.24H126.48V148.8Z" fill="black"/>
<path d="M133.92 148.8H126.48V156.24H133.92V148.8Z" fill="black"/>
<path d="M141.36 148.8H133.92V156.24H141.36V148.8Z" fill="black"/>
<path d="M148.8 148.8H141.36V156.24H148.8V148.8Z" fill="black"/>
<path d="M156.24 148.8H148.8V156.24H156.24V148.8Z" fill="black"/>
<path d="M186 148.8H178.56V156.24H186V148.8Z" fill="black"/>
<path d="M7.44 156.24H0V163.68H7.44V156.24Z" fill="black"/>
<path d="M22.32 156.24H14.88V163.68H22.32V156.24Z" fill="black"/>
<path d="M29.76 156.24H22.32V163.68H29.76V156.24Z" fill="black"/>
<path d="M37.2 156.24H29.76V163.68H37.2V156.24Z" fill="black"/>
<path d="M52.08 156.24H44.64V163.68H52.08V156.24Z" fill="black"/>
<path d="M66.96 156.24H59.52V163.68H66.96V156.24Z" fill="black"/>
<path d="M96.72 156.24H89.28V163.68H96.72V156.24Z" fill="black"/>
<path d="M126.48 156.24H119.04V163.68H126.48V156.24Z" fill="black"/>
<path d="M133.92 156.24H126.48V163.68H133.92V156.24Z" fill="black"/>
<path d="M163.68 156.24H156.24V163.68H163.68V156.24Z" fill="black"/>
<path d="M7.44 163.68H0V171.12H7.44V163.68Z" fill="black"/>
<path d="M22.32 163.68H14.88V171.12H22.32V163.68Z" fill="black"/>
<path d="M29.76 163.68H22.32V171.12H29.76V163.68Z" fill="black"/>
<path d="M37.2 163.68H29.76V171.12H37.2V163.68Z" fill="black"/>
<path d="M52.08 163.68H44.64V171.12H52.08V163.68Z" fill="black"/>
<path d="M89.28 163.68H81.84V171.12H89.28V163.68Z" fill="black"/>
<path d="M96.72 163.68H89.28V171.12H96.72V163.68Z" fill="black"/>
<path d="M111.6 163.68H104.16V171.12H111.6V163.68Z" fill="black"/>
<path d="M119.04 163.68H111.6V171.12H119.04V163.68Z" fill="black"/>
<path d="M126.48 163.68H119.04V171.12H126.48V163.68Z" fill="black"/>
<path d="M148.8 163.68H141.36V171.12H148.8V163.68Z" fill="black"/>
<path d="M156.24 163.68H148.8V171.12H156.24V163.68Z" fill="black"/>
<path d="M171.12 163.68H163.68V171.12H171.12V163.68Z" fill="black"/>
<path d="M178.56 163.68H171.12V171.12H178.56V163.68Z" fill="black"/>
<path d="M186 163.68H178.56V171.12H186V163.68Z" fill="black"/>
<path d="M7.44 171.12H0V178.56H7.44V171.12Z" fill="black"/>
<path d="M52.08 171.12H44.64V178.56H52.08V171.12Z" fill="black"/>
<path d="M74.4 171.12H66.96V178.56H74.4V171.12Z" fill="black"/>
<path d="M81.84 171.12H74.4V178.56H81.84V171.12Z" fill="black"/>
<path d="M89.28 171.12H81.84V178.56H89.28V171.12Z" fill="black"/>
<path d="M104.16 171.12H96.72V178.56H104.16V171.12Z" fill="black"/>
<path d="M111.6 171.12H104.16V178.56H111.6V171.12Z" fill="black"/>
<path d="M133.92 171.12H126.48V178.56H133.92V171.12Z" fill="black"/>
<path d="M141.36 171.12H133.92V178.56H141.36V171.12Z" fill="black"/>
<path d="M148.8 171.12H141.36V178.56H148.8V171.12Z" fill="black"/>
<path d="M156.24 171.12H148.8V178.56H156.24V171.12Z" fill="black"/>
<path d="M171.12 171.12H163.68V178.56H171.12V171.12Z" fill="black"/>
<path d="M178.56 171.12H171.12V178.56H178.56V171.12Z" fill="black"/>
<path d="M186 171.12H178.56V178.56H186V171.12Z" fill="black"/>
<path d="M7.44 178.56H0V186H7.44V178.56Z" fill="black"/>
<path d="M14.88 178.56H7.44V186H14.88V178.56Z" fill="black"/>
<path d="M22.32 178.56H14.88V186H22.32V178.56Z" fill="black"/>
<path d="M29.76 178.56H22.32V186H29.76V178.56Z" fill="black"/>
<path d="M37.2 178.56H29.76V186H37.2V178.56Z" fill="black"/>
<path d="M44.64 178.56H37.2V186H44.64L44.64 178.56Z" fill="black"/>
<path d="M52.08 178.56H44.64L44.64 186H52.08V178.56Z" fill="black"/>
<path d="M66.96 178.56H59.52V186H66.96V178.56Z" fill="black"/>
<path d="M89.28 178.56H81.84V186H89.28V178.56Z" fill="black"/>
<path d="M96.72 178.56H89.28V186H96.72V178.56Z" fill="black"/>
<path d="M126.48 178.56H119.04V186H126.48V178.56Z" fill="black"/>
<path d="M163.68 178.56H156.24V186H163.68V178.56Z" fill="black"/>
<path d="M186 178.56H178.56V186H186V178.56Z" fill="black"/>
<mask id="mask0_378_2672" style="mask-type:alpha" maskUnits="userSpaceOnUse" x="0" y="0" width="186" height="186">
<path d="M7.44 0H0V7.44H7.44V0Z" fill="black"/>
<path d="M14.88 0H7.44V7.44H14.88V0Z" fill="black"/>
<path d="M22.32 0H14.88V7.44H22.32V0Z" fill="black"/>
<path d="M29.76 0H22.32V7.44H29.76V0Z" fill="black"/>
<path d="M37.2 0H29.76V7.44H37.2V0Z" fill="black"/>
<path d="M44.64 0H37.2V7.44H44.64V0Z" fill="black"/>
<path d="M52.08 0H44.64V7.44H52.08V0Z" fill="black"/>
<path d="M66.96 0H59.52V7.44H66.96V0Z" fill="black"/>
<path d="M74.4 0H66.96V7.44H74.4V0Z" fill="black"/>
<path d="M104.16 0H96.72V7.44H104.16V0Z" fill="black"/>
<path d="M126.48 0H119.04V7.44H126.48V0Z" fill="black"/>
<path d="M141.36 0H133.92V7.44H141.36V0Z" fill="black"/>
<path d="M148.8 0H141.36V7.44H148.8V0Z" fill="black"/>
<path d="M156.24 0H148.8V7.44H156.24V0Z" fill="black"/>
<path d="M163.68 0H156.24V7.44H163.68V0Z" fill="black"/>
<path d="M171.12 0H163.68V7.44H171.12V0Z" fill="black"/>
<path d="M178.56 0H171.12V7.44H178.56V0Z" fill="black"/>
<path d="M186 0H178.56V7.44H186V0Z" fill="black"/>
<path d="M7.44 7.44H0V14.88H7.44V7.44Z" fill="black"/>
<path d="M52.08 7.44H44.64L44.64 14.88H52.08V7.44Z" fill="black"/>
<path d="M96.72 7.44H89.28V14.88H96.72V7.44Z" fill="black"/>
<path d="M104.16 7.44H96.72V14.88H104.16V7.44Z" fill="black"/>
<path d="M126.48 7.44H119.04V14.88H126.48V7.44Z" fill="black"/>
<path d="M141.36 7.44H133.92V14.88H141.36V7.44Z" fill="black"/>
<path d="M186 7.44H178.56V14.88H186V7.44Z" fill="black"/>
<path d="M7.44 14.88H0V22.32H7.44V14.88Z" fill="black"/>
<path d="M22.32 14.88H14.88V22.32H22.32V14.88Z" fill="black"/>
<path d="M29.76 14.88H22.32V22.32H29.76V14.88Z" fill="black"/>
<path d="M37.2 14.88H29.76V22.32H37.2V14.88Z" fill="black"/>
<path d="M52.08 14.88H44.64V22.32H52.08V14.88Z" fill="black"/>
<path d="M74.4 14.88H66.96V22.32H74.4V14.88Z" fill="black"/>
<path d="M81.84 14.88H74.4V22.32H81.84V14.88Z" fill="black"/>
<path d="M89.28 14.88H81.84V22.32H89.28V14.88Z" fill="black"/>
<path d="M96.72 14.88H89.28V22.32H96.72V14.88Z" fill="black"/>
<path d="M104.16 14.88H96.72V22.32H104.16V14.88Z" fill="black"/>
<path d="M126.48 14.88H119.04V22.32H126.48V14.88Z" fill="black"/>
<path d="M141.36 14.88H133.92V22.32H141.36V14.88Z" fill="black"/>
<path d="M156.24 14.88H148.8V22.32H156.24V14.88Z" fill="black"/>
<path d="M163.68 14.88H156.24V22.32H163.68V14.88Z" fill="black"/>
<path d="M171.12 14.88H163.68V22.32H171.12V14.88Z" fill="black"/>
<path d="M186 14.88H178.56V22.32H186V14.88Z" fill="black"/>
<path d="M7.44 22.32H0V29.76H7.44V22.32Z" fill="black"/>
<path d="M22.32 22.32H14.88V29.76H22.32V22.32Z" fill="black"/>
<path d="M29.76 22.32H22.32V29.76H29.76V22.32Z" fill="black"/>
<path d="M37.2 22.32H29.76V29.76H37.2V22.32Z" fill="black"/>
<path d="M52.08 22.32H44.64V29.76H52.08V22.32Z" fill="black"/>
<path d="M74.4 22.32H66.96V29.76H74.4V22.32Z" fill="black"/>
<path d="M81.84 22.32H74.4V29.76H81.84V22.32Z" fill="black"/>
<path d="M104.16 22.32H96.72V29.76H104.16V22.32Z" fill="black"/>
<path d="M141.36 22.32H133.92V29.76H141.36V22.32Z" fill="black"/>
<path d="M156.24 22.32H148.8V29.76H156.24V22.32Z" fill="black"/>
<path d="M163.68 22.32H156.24V29.76H163.68V22.32Z" fill="black"/>
<path d="M171.12 22.32H163.68V29.76H171.12V22.32Z" fill="black"/>
<path d="M186 22.32H178.56V29.76H186V22.32Z" fill="black"/>
<path d="M7.44 29.76H0V37.2H7.44V29.76Z" fill="black"/>
<path d="M22.32 29.76H14.88V37.2H22.32V29.76Z" fill="black"/>
<path d="M29.76 29.76H22.32V37.2H29.76V29.76Z" fill="black"/>
<path d="M37.2 29.76H29.76V37.2H37.2V29.76Z" fill="black"/>
<path d="M52.08 29.76H44.64V37.2H52.08V29.76Z" fill="black"/>
<path d="M66.96 29.76H59.52V37.2H66.96V29.76Z" fill="black"/>
<path d="M81.84 29.76H74.4V37.2H81.84V29.76Z" fill="black"/>
<path d="M89.28 29.76H81.84V37.2H89.28V29.76Z" fill="black"/>
<path d="M96.72 29.76H89.28V37.2H96.72V29.76Z" fill="black"/>
<path d="M111.6 29.76H104.16V37.2H111.6V29.76Z" fill="black"/>
<path d="M141.36 29.76H133.92V37.2H141.36V29.76Z" fill="black"/>
<path d="M156.24 29.76H148.8V37.2H156.24V29.76Z" fill="black"/>
<path d="M163.68 29.76H156.24V37.2H163.68V29.76Z" fill="black"/>
<path d="M171.12 29.76H163.68V37.2H171.12V29.76Z" fill="black"/>
<path d="M186 29.76H178.56V37.2H186V29.76Z" fill="black"/>
<path d="M7.44 37.2H0V44.64H7.44V37.2Z" fill="black"/>
<path d="M52.08 37.2H44.64V44.64H52.08V37.2Z" fill="black"/>
<path d="M111.6 37.2H104.16V44.64H111.6V37.2Z" fill="black"/>
<path d="M141.36 37.2H133.92V44.64H141.36V37.2Z" fill="black"/>
<path d="M186 37.2H178.56V44.64H186V37.2Z" fill="black"/>
<path d="M7.44 44.64H0V52.08H7.44V44.64Z" fill="black"/>
<path d="M14.88 44.64L7.44 44.64V52.08H14.88V44.64Z" fill="black"/>
<path d="M22.32 44.64H14.88V52.08H22.32V44.64Z" fill="black"/>
<path d="M29.76 44.64H22.32V52.08H29.76V44.64Z" fill="black"/>
<path d="M37.2 44.64H29.76V52.08H37.2V44.64Z" fill="black"/>
<path d="M44.64 44.64L37.2 44.64V52.08H44.64L44.64 44.64Z" fill="black"/>
<path d="M52.08 44.64H44.64L44.64 52.08H52.08V44.64Z" fill="black"/>
<path d="M66.96 44.64H59.52V52.08H66.96V44.64Z" fill="black"/>
<path d="M81.84 44.64H74.4V52.08H81.84V44.64Z" fill="black"/>
<path d="M96.72 44.64H89.28V52.08H96.72V44.64Z" fill="black"/>
<path d="M111.6 44.64H104.16V52.08H111.6V44.64Z" fill="black"/>
<path d="M126.48 44.64H119.04V52.08H126.48V44.64Z" fill="black"/>
<path d="M141.36 44.64H133.92V52.08H141.36V44.64Z" fill="black"/>
<path d="M148.8 44.64L141.36 44.64V52.08H148.8V44.64Z" fill="black"/>
<path d="M156.24 44.64H148.8V52.08H156.24V44.64Z" fill="black"/>
<path d="M163.68 44.64H156.24V52.08H163.68V44.64Z" fill="black"/>
<path d="M171.12 44.64H163.68V52.08H171.12V44.64Z" fill="black"/>
<path d="M178.56 44.64L171.12 44.64V52.08H178.56V44.64Z" fill="black"/>
<path d="M186 44.64H178.56V52.08H186V44.64Z" fill="black"/>
<path d="M66.96 52.08H59.52V59.52H66.96V52.08Z" fill="black"/>
<path d="M81.84 52.08H74.4V59.52H81.84V52.08Z" fill="black"/>
<path d="M96.72 52.08H89.28V59.52H96.72V52.08Z" fill="black"/>
<path d="M104.16 52.08H96.72V59.52H104.16V52.08Z" fill="black"/>
<path d="M119.04 52.08H111.6L111.6 59.52H119.04V52.08Z" fill="black"/>
<path d="M126.48 52.08H119.04V59.52H126.48V52.08Z" fill="black"/>
<path d="M7.44 59.52H0V66.96H7.44V59.52Z" fill="black"/>
<path d="M29.76 59.52H22.32V66.96H29.76V59.52Z" fill="black"/>
<path d="M37.2 59.52H29.76V66.96H37.2V59.52Z" fill="black"/>
<path d="M44.64 59.52H37.2V66.96H44.64V59.52Z" fill="black"/>
<path d="M52.08 59.52H44.64V66.96H52.08V59.52Z" fill="black"/>
<path d="M59.52 59.52H52.08V66.96H59.52V59.52Z" fill="black"/>
<path d="M66.96 59.52H59.52V66.96H66.96V59.52Z" fill="black"/>
<path d="M74.4 59.52H66.96V66.96H74.4V59.52Z" fill="black"/>
<path d="M104.16 59.52H96.72V66.96H104.16V59.52Z" fill="black"/>
<path d="M126.48 59.52H119.04V66.96H126.48V59.52Z" fill="black"/>
<path d="M133.92 59.52H126.48V66.96H133.92V59.52Z" fill="black"/>
<path d="M141.36 59.52H133.92V66.96H141.36V59.52Z" fill="black"/>
<path d="M156.24 59.52H148.8V66.96H156.24V59.52Z" fill="black"/>
<path d="M186 59.52H178.56V66.96H186V59.52Z" fill="black"/>
<path d="M14.88 66.96H7.44V74.4H14.88V66.96Z" fill="black"/>
<path d="M29.76 66.96H22.32V74.4H29.76V66.96Z" fill="black"/>
<path d="M37.2 66.96H29.76V74.4H37.2V66.96Z" fill="black"/>
<path d="M59.52 66.96H52.08V74.4H59.52V66.96Z" fill="black"/>
<path d="M66.96 66.96H59.52V74.4H66.96V66.96Z" fill="black"/>
<path d="M96.72 66.96H89.28V74.4H96.72V66.96Z" fill="black"/>
<path d="M119.04 66.96H111.6V74.4H119.04V66.96Z" fill="black"/>
<path d="M133.92 66.96H126.48V74.4H133.92V66.96Z" fill="black"/>
<path d="M141.36 66.96H133.92V74.4H141.36V66.96Z" fill="black"/>
<path d="M156.24 66.96H148.8V74.4H156.24V66.96Z" fill="black"/>
<path d="M163.68 66.96H156.24V74.4H163.68V66.96Z" fill="black"/>
<path d="M171.12 66.96H163.68V74.4H171.12V66.96Z" fill="black"/>
<path d="M178.56 66.96H171.12V74.4H178.56V66.96Z" fill="black"/>
<path d="M186 66.96H178.56V74.4H186V66.96Z" fill="black"/>
<path d="M7.44 74.4H0V81.84H7.44V74.4Z" fill="black"/>
<path d="M14.88 74.4H7.44V81.84H14.88V74.4Z" fill="black"/>
<path d="M29.76 74.4H22.32V81.84H29.76V74.4Z" fill="black"/>
<path d="M37.2 74.4H29.76V81.84H37.2V74.4Z" fill="black"/>
<path d="M44.64 74.4H37.2V81.84H44.64V74.4Z" fill="black"/>
<path d="M52.08 74.4H44.64V81.84H52.08V74.4Z" fill="black"/>
<path d="M59.52 74.4H52.08V81.84H59.52V74.4Z" fill="black"/>
<path d="M74.4 74.4H66.96V81.84H74.4V74.4Z" fill="black"/>
<path d="M89.28 74.4H81.84V81.84H89.28V74.4Z" fill="black"/>
<path d="M96.72 74.4H89.28V81.84H96.72V74.4Z" fill="black"/>
<path d="M111.6 74.4H104.16V81.84H111.6L111.6 74.4Z" fill="black"/>
<path d="M126.48 74.4H119.04V81.84H126.48V74.4Z" fill="black"/>
<path d="M133.92 74.4H126.48V81.84H133.92V74.4Z" fill="black"/>
<path d="M141.36 74.4H133.92V81.84H141.36V74.4Z" fill="black"/>
<path d="M148.8 74.4H141.36V81.84H148.8V74.4Z" fill="black"/>
<path d="M156.24 74.4H148.8V81.84H156.24V74.4Z" fill="black"/>
<path d="M163.68 74.4H156.24V81.84H163.68V74.4Z" fill="black"/>
<path d="M171.12 74.4H163.68V81.84H171.12V74.4Z" fill="black"/>
<path d="M178.56 74.4H171.12V81.84H178.56V74.4Z" fill="black"/>
<path d="M7.44 81.84H0V89.28H7.44V81.84Z" fill="black"/>
<path d="M37.2 81.84H29.76V89.28H37.2V81.84Z" fill="black"/>
<path d="M44.64 81.84H37.2V89.28H44.64V81.84Z" fill="black"/>
<path d="M59.52 81.84H52.08V89.28H59.52V81.84Z" fill="black"/>
<path d="M74.4 81.84H66.96V89.28H74.4V81.84Z" fill="black"/>
<path d="M81.84 81.84H74.4V89.28H81.84V81.84Z" fill="black"/>
<path d="M111.6 81.84H104.16V89.28H111.6V81.84Z" fill="black"/>
<path d="M119.04 81.84H111.6V89.28H119.04V81.84Z" fill="black"/>
<path d="M156.24 81.84H148.8V89.28H156.24V81.84Z" fill="black"/>
<path d="M171.12 81.84H163.68V89.28H171.12V81.84Z" fill="black"/>
<path d="M178.56 81.84H171.12V89.28H178.56V81.84Z" fill="black"/>
<path d="M7.44 89.28H0V96.72H7.44V89.28Z" fill="black"/>
<path d="M29.76 89.28H22.32V96.72H29.76V89.28Z" fill="black"/>
<path d="M37.2 89.28H29.76V96.72H37.2V89.28Z" fill="black"/>
<path d="M44.64 89.28H37.2V96.72H44.64V89.28Z" fill="black"/>
<path d="M52.08 89.28H44.64V96.72H52.08V89.28Z" fill="black"/>
<path d="M59.52 89.28H52.08V96.72H59.52V89.28Z" fill="black"/>
<path d="M66.96 89.28H59.52V96.72H66.96V89.28Z" fill="black"/>
<path d="M81.84 89.28H74.4V96.72H81.84V89.28Z" fill="black"/>
<path d="M89.28 89.28H81.84V96.72H89.28V89.28Z" fill="black"/>
<path d="M104.16 89.28H96.72V96.72H104.16V89.28Z" fill="black"/>
<path d="M111.6 89.28H104.16V96.72H111.6V89.28Z" fill="black"/>
<path d="M126.48 89.28H119.04V96.72H126.48V89.28Z" fill="black"/>
<path d="M148.8 89.28H141.36V96.72H148.8V89.28Z" fill="black"/>
<path d="M163.68 89.28H156.24V96.72H163.68V89.28Z" fill="black"/>
<path d="M171.12 89.28H163.68V96.72H171.12V89.28Z" fill="black"/>
<path d="M186 89.28H178.56V96.72H186V89.28Z" fill="black"/>
<path d="M7.44 96.72H0V104.16H7.44V96.72Z" fill="black"/>
<path d="M14.88 96.72H7.44V104.16H14.88V96.72Z" fill="black"/>
<path d="M59.52 96.72H52.08V104.16H59.52V96.72Z" fill="black"/>
<path d="M66.96 96.72H59.52V104.16H66.96V96.72Z" fill="black"/>
<path d="M74.4 96.72H66.96V104.16H74.4V96.72Z" fill="black"/>
<path d="M96.72 96.72H89.28V104.16H96.72V96.72Z" fill="black"/>
<path d="M111.6 96.72H104.16V104.16H111.6V96.72Z" fill="black"/>
<path d="M119.04 96.72H111.6V104.16H119.04V96.72Z" fill="black"/>
<path d="M126.48 96.72H119.04V104.16H126.48V96.72Z" fill="black"/>
<path d="M133.92 96.72H126.48V104.16H133.92V96.72Z" fill="black"/>
<path d="M156.24 96.72H148.8V104.16H156.24V96.72Z" fill="black"/>
<path d="M171.12 96.72H163.68V104.16H171.12V96.72Z" fill="black"/>
<path d="M178.56 96.72H171.12V104.16H178.56V96.72Z" fill="black"/>
<path d="M186 96.72H178.56V104.16H186V96.72Z" fill="black"/>
<path d="M7.44 104.16H0V111.6H7.44V104.16Z" fill="black"/>
<path d="M14.88 104.16H7.44V111.6H14.88V104.16Z" fill="black"/>
<path d="M22.32 104.16H14.88V111.6H22.32V104.16Z" fill="black"/>
<path d="M52.08 104.16H44.64V111.6H52.08V104.16Z" fill="black"/>
<path d="M74.4 104.16H66.96V111.6H74.4V104.16Z" fill="black"/>
<path d="M89.28 104.16H81.84V111.6H89.28V104.16Z" fill="black"/>
<path d="M96.72 104.16H89.28V111.6H96.72V104.16Z" fill="black"/>
<path d="M111.6 104.16H104.16V111.6H111.6V104.16Z" fill="black"/>
<path d="M133.92 104.16H126.48V111.6H133.92V104.16Z" fill="black"/>
<path d="M148.8 104.16H141.36V111.6H148.8V104.16Z" fill="black"/>
<path d="M156.24 104.16H148.8V111.6H156.24V104.16Z" fill="black"/>
<path d="M171.12 104.16H163.68V111.6H171.12V104.16Z" fill="black"/>
<path d="M14.88 111.6H7.44V119.04H14.88V111.6Z" fill="black"/>
<path d="M59.52 111.6L52.08 111.6V119.04H59.52V111.6Z" fill="black"/>
<path d="M96.72 111.6H89.28V119.04H96.72V111.6Z" fill="black"/>
<path d="M111.6 111.6H104.16V119.04H111.6V111.6Z" fill="black"/>
<path d="M119.04 111.6L111.6 111.6V119.04H119.04V111.6Z" fill="black"/>
<path d="M141.36 111.6H133.92V119.04H141.36V111.6Z" fill="black"/>
<path d="M156.24 111.6H148.8V119.04H156.24V111.6Z" fill="black"/>
<path d="M178.56 111.6L171.12 111.6V119.04H178.56V111.6Z" fill="black"/>
<path d="M7.44 119.04H0V126.48H7.44V119.04Z" fill="black"/>
<path d="M44.64 119.04H37.2V126.48H44.64V119.04Z" fill="black"/>
<path d="M52.08 119.04H44.64V126.48H52.08V119.04Z" fill="black"/>
<path d="M59.52 119.04H52.08V126.48H59.52V119.04Z" fill="black"/>
<path d="M74.4 119.04H66.96V126.48H74.4V119.04Z" fill="black"/>
<path d="M81.84 119.04H74.4V126.48H81.84V119.04Z" fill="black"/>
<path d="M96.72 119.04H89.28V126.48H96.72V119.04Z" fill="black"/>
<path d="M119.04 119.04H111.6L111.6 126.48H119.04V119.04Z" fill="black"/>
<path d="M126.48 119.04H119.04V126.48H126.48V119.04Z" fill="black"/>
<path d="M133.92 119.04H126.48V126.48H133.92V119.04Z" fill="black"/>
<path d="M141.36 119.04H133.92V126.48H141.36V119.04Z" fill="black"/>
<path d="M148.8 119.04H141.36V126.48H148.8V119.04Z" fill="black"/>
<path d="M156.24 119.04H148.8V126.48H156.24V119.04Z" fill="black"/>
<path d="M163.68 119.04H156.24V126.48H163.68V119.04Z" fill="black"/>
<path d="M178.56 119.04H171.12V126.48H178.56V119.04Z" fill="black"/>
<path d="M66.96 126.48H59.52V133.92H66.96V126.48Z" fill="black"/>
<path d="M81.84 126.48H74.4V133.92H81.84V126.48Z" fill="black"/>
<path d="M96.72 126.48H89.28V133.92H96.72V126.48Z" fill="black"/>
<path d="M119.04 126.48H111.6V133.92H119.04V126.48Z" fill="black"/>
<path d="M126.48 126.48H119.04V133.92H126.48V126.48Z" fill="black"/>
<path d="M156.24 126.48H148.8V133.92H156.24V126.48Z" fill="black"/>
<path d="M163.68 126.48H156.24V133.92H163.68V126.48Z" fill="black"/>
<path d="M171.12 126.48H163.68V133.92H171.12V126.48Z" fill="black"/>
<path d="M7.44 133.92H0V141.36H7.44V133.92Z" fill="black"/>
<path d="M14.88 133.92H7.44V141.36H14.88V133.92Z" fill="black"/>
<path d="M22.32 133.92H14.88V141.36H22.32V133.92Z" fill="black"/>
<path d="M29.76 133.92H22.32V141.36H29.76V133.92Z" fill="black"/>
<path d="M37.2 133.92H29.76V141.36H37.2V133.92Z" fill="black"/>
<path d="M44.64 133.92H37.2V141.36H44.64V133.92Z" fill="black"/>
<path d="M52.08 133.92H44.64V141.36H52.08V133.92Z" fill="black"/>
<path d="M66.96 133.92H59.52V141.36H66.96V133.92Z" fill="black"/>
<path d="M96.72 133.92H89.28V141.36H96.72V133.92Z" fill="black"/>
<path d="M119.04 133.92H111.6V141.36H119.04V133.92Z" fill="black"/>
<path d="M126.48 133.92H119.04V141.36H126.48V133.92Z" fill="black"/>
<path d="M141.36 133.92H133.92V141.36H141.36V133.92Z" fill="black"/>
<path d="M156.24 133.92H148.8V141.36H156.24V133.92Z" fill="black"/>
<path d="M163.68 133.92H156.24V141.36H163.68V133.92Z" fill="black"/>
<path d="M171.12 133.92H163.68V141.36H171.12V133.92Z" fill="black"/>
<path d="M186 133.92H178.56V141.36H186V133.92Z" fill="black"/>
<path d="M7.44 141.36H0V148.8H7.44V141.36Z" fill="black"/>
<path d="M52.08 141.36H44.64L44.64 148.8H52.08V141.36Z" fill="black"/>
<path d="M66.96 141.36H59.52V148.8H66.96V141.36Z" fill="black"/>
<path d="M81.84 141.36H74.4V148.8H81.84V141.36Z" fill="black"/>
<path d="M111.6 141.36H104.16V148.8H111.6L111.6 141.36Z" fill="black"/>
<path d="M126.48 141.36H119.04V148.8H126.48V141.36Z" fill="black"/>
<path d="M156.24 141.36H148.8V148.8H156.24V141.36Z" fill="black"/>
<path d="M171.12 141.36H163.68V148.8H171.12V141.36Z" fill="black"/>
<path d="M7.44 148.8H0V156.24H7.44V148.8Z" fill="black"/>
<path d="M22.32 148.8H14.88V156.24H22.32V148.8Z" fill="black"/>
<path d="M29.76 148.8H22.32V156.24H29.76V148.8Z" fill="black"/>
<path d="M37.2 148.8H29.76V156.24H37.2V148.8Z" fill="black"/>
<path d="M52.08 148.8H44.64V156.24H52.08V148.8Z" fill="black"/>
<path d="M66.96 148.8H59.52V156.24H66.96V148.8Z" fill="black"/>
<path d="M74.4 148.8H66.96V156.24H74.4V148.8Z" fill="black"/>
<path d="M81.84 148.8H74.4V156.24H81.84V148.8Z" fill="black"/>
<path d="M104.16 148.8H96.72V156.24H104.16V148.8Z" fill="black"/>
<path d="M111.6 148.8H104.16V156.24H111.6V148.8Z" fill="black"/>
<path d="M126.48 148.8H119.04V156.24H126.48V148.8Z" fill="black"/>
<path d="M133.92 148.8H126.48V156.24H133.92V148.8Z" fill="black"/>
<path d="M141.36 148.8H133.92V156.24H141.36V148.8Z" fill="black"/>
<path d="M148.8 148.8H141.36V156.24H148.8V148.8Z" fill="black"/>
<path d="M156.24 148.8H148.8V156.24H156.24V148.8Z" fill="black"/>
<path d="M186 148.8H178.56V156.24H186V148.8Z" fill="black"/>
<path d="M7.44 156.24H0V163.68H7.44V156.24Z" fill="black"/>
<path d="M22.32 156.24H14.88V163.68H22.32V156.24Z" fill="black"/>
<path d="M29.76 156.24H22.32V163.68H29.76V156.24Z" fill="black"/>
<path d="M37.2 156.24H29.76V163.68H37.2V156.24Z" fill="black"/>
<path d="M52.08 156.24H44.64V163.68H52.08V156.24Z" fill="black"/>
<path d="M66.96 156.24H59.52V163.68H66.96V156.24Z" fill="black"/>
<path d="M96.72 156.24H89.28V163.68H96.72V156.24Z" fill="black"/>
<path d="M126.48 156.24H119.04V163.68H126.48V156.24Z" fill="black"/>
<path d="M133.92 156.24H126.48V163.68H133.92V156.24Z" fill="black"/>
<path d="M163.68 156.24H156.24V163.68H163.68V156.24Z" fill="black"/>
<path d="M7.44 163.68H0V171.12H7.44V163.68Z" fill="black"/>
<path d="M22.32 163.68H14.88V171.12H22.32V163.68Z" fill="black"/>
<path d="M29.76 163.68H22.32V171.12H29.76V163.68Z" fill="black"/>
<path d="M37.2 163.68H29.76V171.12H37.2V163.68Z" fill="black"/>
<path d="M52.08 163.68H44.64V171.12H52.08V163.68Z" fill="black"/>
<path d="M89.28 163.68H81.84V171.12H89.28V163.68Z" fill="black"/>
<path d="M96.72 163.68H89.28V171.12H96.72V163.68Z" fill="black"/>
<path d="M111.6 163.68H104.16V171.12H111.6V163.68Z" fill="black"/>
<path d="M119.04 163.68H111.6V171.12H119.04V163.68Z" fill="black"/>
<path d="M126.48 163.68H119.04V171.12H126.48V163.68Z" fill="black"/>
<path d="M148.8 163.68H141.36V171.12H148.8V163.68Z" fill="black"/>
<path d="M156.24 163.68H148.8V171.12H156.24V163.68Z" fill="black"/>
<path d="M171.12 163.68H163.68V171.12H171.12V163.68Z" fill="black"/>
<path d="M178.56 163.68H171.12V171.12H178.56V163.68Z" fill="black"/>
<path d="M186 163.68H178.56V171.12H186V163.68Z" fill="black"/>
<path d="M7.44 171.12H0V178.56H7.44V171.12Z" fill="black"/>
<path d="M52.08 171.12H44.64V178.56H52.08V171.12Z" fill="black"/>
<path d="M74.4 171.12H66.96V178.56H74.4V171.12Z" fill="black"/>
<path d="M81.84 171.12H74.4V178.56H81.84V171.12Z" fill="black"/>
<path d="M89.28 171.12H81.84V178.56H89.28V171.12Z" fill="black"/>
<path d="M104.16 171.12H96.72V178.56H104.16V171.12Z" fill="black"/>
<path d="M111.6 171.12H104.16V178.56H111.6V171.12Z" fill="black"/>
<path d="M133.92 171.12H126.48V178.56H133.92V171.12Z" fill="black"/>
<path d="M141.36 171.12H133.92V178.56H141.36V171.12Z" fill="black"/>
<path d="M148.8 171.12H141.36V178.56H148.8V171.12Z" fill="black"/>
<path d="M156.24 171.12H148.8V178.56H156.24V171.12Z" fill="black"/>
<path d="M171.12 171.12H163.68V178.56H171.12V171.12Z" fill="black"/>
<path d="M178.56 171.12H171.12V178.56H178.56V171.12Z" fill="black"/>
<path d="M186 171.12H178.56V178.56H186V171.12Z" fill="black"/>
<path d="M7.44 178.56H0V186H7.44V178.56Z" fill="black"/>
<path d="M14.88 178.56H7.44V186H14.88V178.56Z" fill="black"/>
<path d="M22.32 178.56H14.88V186H22.32V178.56Z" fill="black"/>
<path d="M29.76 178.56H22.32V186H29.76V178.56Z" fill="black"/>
<path d="M37.2 178.56H29.76V186H37.2V178.56Z" fill="black"/>
<path d="M44.64 178.56H37.2V186H44.64L44.64 178.56Z" fill="black"/>
<path d="M52.08 178.56H44.64L44.64 186H52.08V178.56Z" fill="black"/>
<path d="M66.96 178.56H59.52V186H66.96V178.56Z" fill="black"/>
<path d="M89.28 178.56H81.84V186H89.28V178.56Z" fill="black"/>
<path d="M96.72 178.56H89.28V186H96.72V178.56Z" fill="black"/>
<path d="M126.48 178.56H119.04V186H126.48V178.56Z" fill="black"/>
<path d="M163.68 178.56H156.24V186H163.68V178.56Z" fill="black"/>
<path d="M186 178.56H178.56V186H186V178.56Z" fill="black"/>
</mask>
<g mask="url(#mask0_378_2672)">
</g>
</svg>
