<svg width="20" height="20" viewBox="0 0 20 20" fill="none" xmlns="http://www.w3.org/2000/svg">
<path fill-rule="evenodd" clip-rule="evenodd" d="M9.99994 7.76685C8.76415 7.76685 7.7666 8.76439 7.7666 10.0002C7.7666 10.3438 7.84345 10.6677 7.98189 10.9576L10.9573 7.98214C10.6674 7.84369 10.3436 7.76685 9.99994 7.76685ZM6.2666 10.0002C6.2666 7.93597 7.93572 6.26685 9.99994 6.26685C11.0327 6.26685 11.9627 6.68562 12.6386 7.36152C12.7793 7.50217 12.8583 7.69293 12.8583 7.89185C12.8583 8.09076 12.7793 8.28152 12.6386 8.42218L8.42193 12.6388C8.12904 12.9317 7.65417 12.9317 7.36127 12.6388C6.68537 11.9629 6.2666 11.033 6.2666 10.0002Z" fill="#BDBDBD"/>
<path fill-rule="evenodd" clip-rule="evenodd" d="M1.7757 7.4387C3.78495 4.28033 6.74023 2.3584 9.99987 2.3584C11.9045 2.3584 13.727 3.02201 15.3015 4.20963C15.6322 4.45907 15.6981 4.92935 15.4486 5.26004C15.1992 5.59073 14.7289 5.6566 14.3982 5.40716C13.0561 4.39479 11.5452 3.8584 9.99987 3.8584C7.37635 3.8584 4.84843 5.40293 3.04102 8.24427L3.04039 8.24526C2.76081 8.68327 2.5957 9.32098 2.5957 10.0042C2.5957 10.6875 2.76081 11.3252 3.04039 11.7632L3.04074 11.7637C3.66284 12.7402 4.38231 13.5748 5.15557 14.2398C5.46962 14.5098 5.50526 14.9834 5.23518 15.2974C4.96509 15.6115 4.49156 15.6471 4.17751 15.377C3.28409 14.6087 2.47023 13.6599 1.77567 12.5697C1.30549 11.8328 1.0957 10.8958 1.0957 10.0042C1.0957 9.11268 1.3055 8.1756 1.7757 7.4387Z" fill="#BDBDBD"/>
<path fill-rule="evenodd" clip-rule="evenodd" d="M16.2384 6.02401C16.5612 5.7644 17.0333 5.8156 17.2929 6.13836C17.6151 6.53896 17.9322 6.97014 18.225 7.43156C18.6947 8.16829 18.9043 9.10485 18.9043 9.99593C18.9043 10.8875 18.6945 11.8246 18.2243 12.5615C16.215 15.7198 13.2598 17.6418 10.0001 17.6418C8.86859 17.6418 7.76162 17.4025 6.72575 16.9663C6.344 16.8056 6.16483 16.3658 6.32557 15.9841C6.48631 15.6023 6.92608 15.4231 7.30784 15.5839C8.17197 15.9477 9.08167 16.1418 10.0001 16.1418C12.6236 16.1418 15.1516 14.5972 16.959 11.7559L16.9596 11.7549C17.2392 11.3169 17.4043 10.6792 17.4043 9.99593C17.4043 9.31267 17.2392 8.67497 16.9596 8.23695L16.9585 8.23529C16.7014 7.83004 16.4185 7.44456 16.1241 7.07849C15.8644 6.75573 15.9156 6.28363 16.2384 6.02401Z" fill="#BDBDBD"/>
<path fill-rule="evenodd" clip-rule="evenodd" d="M13.0613 9.84582C13.4687 9.92093 13.738 10.312 13.6629 10.7194C13.3898 12.2002 12.1922 13.3979 10.7113 13.671C10.304 13.7461 9.91288 13.4767 9.83776 13.0694C9.76265 12.662 10.032 12.2709 10.4393 12.1958C11.3085 12.0356 12.0275 11.3165 12.1878 10.4474C12.2629 10.04 12.654 9.77071 13.0613 9.84582Z" fill="#BDBDBD"/>
<path fill-rule="evenodd" clip-rule="evenodd" d="M8.42232 11.5781C8.71522 11.871 8.71522 12.3458 8.42232 12.6387L2.19732 18.8637C1.90443 19.1566 1.42956 19.1566 1.13666 18.8637C0.843769 18.5708 0.843769 18.096 1.13666 17.8031L7.36166 11.5781C7.65456 11.2852 8.12943 11.2852 8.42232 11.5781Z" fill="#BDBDBD"/>
<path fill-rule="evenodd" clip-rule="evenodd" d="M18.8637 1.13642C19.1566 1.42931 19.1566 1.90418 18.8637 2.19708L12.6387 8.42208C12.3458 8.71497 11.871 8.71497 11.5781 8.42208C11.2852 8.12919 11.2852 7.65431 11.5781 7.36142L17.8031 1.13642C18.096 0.843525 18.5708 0.843525 18.8637 1.13642Z" fill="#BDBDBD"/>
</svg>
