<svg width="28" height="29" viewBox="0 0 28 29" fill="none" xmlns="http://www.w3.org/2000/svg">
<path d="M10.0917 4.40832L6.8367 7.66332C6.46337 8.02498 6.72004 8.65498 7.24504 8.65498H9.33337V15.6667C9.33337 16.3083 9.85837 16.8333 10.5 16.8333C11.1417 16.8333 11.6667 16.3083 11.6667 15.6667V8.65498H13.755C14.28 8.65498 14.5367 8.02498 14.1634 7.66332L10.9084 4.40832C10.6867 4.18665 10.3134 4.18665 10.0917 4.40832ZM18.6667 20.345V13.3333C18.6667 12.6916 18.1417 12.1666 17.5 12.1666C16.8584 12.1666 16.3334 12.6916 16.3334 13.3333V20.345H14.245C13.72 20.345 13.4634 20.975 13.8367 21.3367L17.0917 24.58C17.325 24.8016 17.6867 24.8016 17.92 24.58L21.175 21.3367C21.5484 20.975 21.28 20.345 20.7667 20.345H18.6667V20.345Z" fill="#3C3C3C"/>
</svg>
