<svg width="18" height="18" viewBox="0 0 18 18" fill="none" xmlns="http://www.w3.org/2000/svg">
<path d="M3 13.5H11.25C11.6625 13.5 12 13.1625 12 12.75C12 12.3375 11.6625 12 11.25 12H3C2.5875 12 2.25 12.3375 2.25 12.75C2.25 13.1625 2.5875 13.5 3 13.5ZM3 9.75H9C9.4125 9.75 9.75 9.4125 9.75 9C9.75 8.5875 9.4125 8.25 9 8.25H3C2.5875 8.25 2.25 8.5875 2.25 9C2.25 9.4125 2.5875 9.75 3 9.75ZM2.25 5.25C2.25 5.6625 2.5875 6 3 6H11.25C11.6625 6 12 5.6625 12 5.25C12 4.8375 11.6625 4.5 11.25 4.5H3C2.5875 4.5 2.25 4.8375 2.25 5.25ZM15.225 11.16L13.065 9L15.225 6.84C15.5175 6.5475 15.5175 6.075 15.225 5.7825C14.9325 5.49 14.46 5.49 14.1675 5.7825L11.475 8.475C11.1825 8.7675 11.1825 9.24 11.475 9.5325L14.1675 12.225C14.46 12.5175 14.9325 12.5175 15.225 12.225C15.51 11.9325 15.5175 11.4525 15.225 11.16Z" fill="#3C3C3C"/>
</svg>
