<svg width="24" height="24" viewBox="0 0 24 24" fill="none" xmlns="http://www.w3.org/2000/svg">
<path d="M15.0972 14H14.3277L14.055 13.73C15.0095 12.59 15.5842 11.11 15.5842 9.5C15.5842 5.91 12.7498 3 9.25304 3C5.75629 3 2.92188 5.91 2.92188 9.5C2.92188 13.09 5.75629 16 9.25304 16C10.8212 16 12.2628 15.41 13.3732 14.43L13.6362 14.71V15.5L18.5063 20.49L19.9576 19L15.0972 14V14ZM9.25304 14C6.82772 14 4.86993 11.99 4.86993 9.5C4.86993 7.01 6.82772 5 9.25304 5C11.6784 5 13.6362 7.01 13.6362 9.5C13.6362 11.99 11.6784 14 9.25304 14Z" fill="#3C3C3C"/>
</svg>
