<svg width="34" height="34" viewBox="0 0 34 34" fill="none" xmlns="http://www.w3.org/2000/svg">
<path fill-rule="evenodd" clip-rule="evenodd" d="M17 0C7.61116 0 0 7.61116 0 17C0 26.3888 7.61116 34 17 34C26.3888 34 34 26.3888 34 17C34 7.61116 26.3888 0 17 0ZM24.0845 11.1558C24.8647 11.3699 25.4792 12.0007 25.6877 12.8019C26.0667 14.2538 26.0667 17.2833 26.0667 17.2833C26.0667 17.2833 26.0667 20.3127 25.6877 21.7648C25.4792 22.5659 24.8647 23.1968 24.0845 23.411C22.6705 23.8 17 23.8 17 23.8C17 23.8 11.3295 23.8 9.91543 23.411C9.13518 23.1968 8.52071 22.5659 8.31218 21.7648C7.93333 20.3127 7.93333 17.2833 7.93333 17.2833C7.93333 17.2833 7.93333 14.2538 8.31218 12.8019C8.52071 12.0007 9.13518 11.3699 9.91543 11.1558C11.3295 10.7667 17 10.7667 17 10.7667C17 10.7667 22.6705 10.7667 24.0845 11.1558Z" fill="black"/>
<path d="M15.3008 20.4001V14.7334L19.8341 17.5668L15.3008 20.4001Z" fill="black"/>
</svg>
