<svg width="34" height="34" viewBox="0 0 34 34" fill="none" xmlns="http://www.w3.org/2000/svg">
<path d="M0 17C0 7.61116 7.61116 0 17 0C26.3888 0 34 7.61116 34 17C34 26.3888 26.3888 34 17 34C7.61116 34 0 26.3888 0 17Z" fill="black"/>
<mask id="mask0_527_5627" style="mask-type:alpha" maskUnits="userSpaceOnUse" x="0" y="0" width="34" height="34">
<path fill-rule="evenodd" clip-rule="evenodd" d="M0 17C0 7.61116 7.61116 0 17 0C26.3888 0 34 7.61116 34 17C34 26.3888 26.3888 34 17 34C7.61116 34 0 26.3888 0 17Z" fill="white"/>
</mask>
<g mask="url(#mask0_527_5627)">
<path fill-rule="evenodd" clip-rule="evenodd" d="M17.0011 7.93335C14.5387 7.93335 14.2297 7.94412 13.2626 7.98813C12.2973 8.03233 11.6385 8.18514 11.062 8.40935C10.4657 8.64093 9.95983 8.95072 9.45587 9.45487C8.95153 9.95883 8.64175 10.4647 8.40941 11.0608C8.18463 11.6375 8.03163 12.2965 7.98818 13.2614C7.94493 14.2285 7.93359 14.5377 7.93359 17.0001C7.93359 19.4625 7.94455 19.7706 7.98837 20.7377C8.03276 21.7029 8.18557 22.3618 8.4096 22.9383C8.64137 23.5346 8.95115 24.0404 9.4553 24.5444C9.95907 25.0487 10.4649 25.3593 11.0609 25.5909C11.6377 25.8151 12.2968 25.9679 13.2618 26.0121C14.2289 26.0561 14.5378 26.0669 17 26.0669C19.4625 26.0669 19.7706 26.0561 20.7377 26.0121C21.703 25.9679 22.3626 25.8151 22.9395 25.5909C23.5356 25.3593 24.0407 25.0487 24.5445 24.5444C25.0488 24.0404 25.3586 23.5346 25.5909 22.9385C25.8138 22.3618 25.9668 21.7027 26.0121 20.7379C26.0556 19.7708 26.0669 19.4625 26.0669 17.0001C26.0669 14.5377 26.0556 14.2287 26.0121 13.2616C25.9668 12.2963 25.8138 11.6375 25.5909 11.061C25.3586 10.4647 25.0488 9.95883 24.5445 9.45487C24.0401 8.95053 23.5358 8.64075 22.9389 8.40935C22.3609 8.18514 21.7017 8.03233 20.7364 7.98813C19.7693 7.94412 19.4614 7.93335 16.9983 7.93335H17.0011ZM16.6988 9.56717H16.6989L17.0011 9.56725C19.4219 9.56725 19.7089 9.57594 20.6648 9.61939C21.5488 9.65981 22.0286 9.80752 22.3482 9.93163C22.7713 10.096 23.073 10.2924 23.3902 10.6097C23.7075 10.9271 23.9039 11.2293 24.0686 11.6524C24.1927 11.9716 24.3407 12.4514 24.3809 13.3354C24.4243 14.2912 24.4338 14.5783 24.4338 16.998C24.4338 19.4177 24.4243 19.7048 24.3809 20.6606C24.3405 21.5446 24.1927 22.0244 24.0686 22.3436C23.9043 22.7668 23.7075 23.068 23.3902 23.3852C23.0728 23.7025 22.7715 23.899 22.3482 24.0633C22.029 24.188 21.5488 24.3353 20.6648 24.3757C19.709 24.4192 19.4219 24.4286 17.0011 24.4286C14.5801 24.4286 14.2932 24.4192 13.3374 24.3757C12.4534 24.3349 11.9736 24.1872 11.6538 24.0631C11.2307 23.8988 10.9285 23.7023 10.6111 23.385C10.2938 23.0677 10.0973 22.7662 9.93263 22.3429C9.80852 22.0237 9.66062 21.5439 9.62039 20.6599C9.57694 19.7041 9.56826 19.417 9.56826 16.9958C9.56826 14.5746 9.57694 14.289 9.62039 13.3332C9.66081 12.4492 9.80852 11.9694 9.93263 11.6498C10.097 11.2267 10.2938 10.9244 10.6111 10.6071C10.9285 10.2898 11.2307 10.0933 11.6538 9.9286C11.9734 9.80394 12.4534 9.6566 13.3374 9.61599C14.1738 9.57821 14.4979 9.56688 16.1877 9.56499V9.56725C16.3456 9.56701 16.5154 9.56708 16.6986 9.56717H16.6987H16.6988ZM20.7529 12.1603C20.7529 11.5595 21.2402 11.0727 21.8409 11.0727V11.0723C22.4415 11.0723 22.9289 11.5597 22.9289 12.1603C22.9289 12.761 22.4415 13.2484 21.8409 13.2484C21.2402 13.2484 20.7529 12.761 20.7529 12.1603ZM17.0009 12.344C14.4296 12.3441 12.3449 14.4288 12.3449 17.0001C12.3449 19.5715 14.4297 21.6553 17.0011 21.6553C19.5725 21.6553 21.6565 19.5715 21.6565 17.0001C21.6565 14.4287 19.5723 12.344 17.0009 12.344ZM20.0234 17.0001C20.0234 15.3309 18.6702 13.9779 17.0011 13.9779C15.3319 13.9779 13.9789 15.3309 13.9789 17.0001C13.9789 18.6692 15.3319 20.0224 17.0011 20.0224C18.6702 20.0224 20.0234 18.6692 20.0234 17.0001Z" fill="white"/>
</g>
</svg>
